<svg width="484" height="324" viewBox="0 0 484 324" fill="none" xmlns="http://www.w3.org/2000/svg">
<path d="M85.0487 165.259L20.9106 175.598L29.1417 227.084L93.2798 216.745L85.0487 165.259Z" fill="#F5F5F5"/>
<path d="M85.0485 165.24L84.7387 165.298L83.8417 165.454L80.3633 166.031L67.2373 168.195L20.9411 175.757L21.083 175.563C23.5353 190.888 26.3554 208.455 29.3304 227.04L29.1174 226.884L93.2571 216.575L93.128 216.756C90.6822 201.249 88.6559 188.393 87.2361 179.399C86.5392 174.902 85.9842 171.377 85.6099 168.96C85.4249 167.754 85.2829 166.834 85.184 166.199C85.0936 165.551 85.0485 165.246 85.0485 165.246C85.0485 165.246 85.113 165.551 85.2162 166.16C85.3195 166.769 85.4744 167.696 85.668 168.882C86.0616 171.292 86.636 174.804 87.3717 179.282C88.8301 188.289 90.921 201.165 93.4378 216.704V216.86H93.2829L29.1497 227.228H28.969V227.046C26.0005 208.455 23.1997 190.888 20.7539 175.563V175.394H20.9217L67.3534 167.994L80.4537 165.927L83.9062 165.389L84.7903 165.253L85.0485 165.24Z" fill="#E0E0E0"/>
<path d="M83.267 168.867L23.6338 178.479L30.8287 223.483L90.4619 213.871L83.267 168.867Z" fill="#EBEBEB"/>
<path d="M30.8403 223.482L47.1931 192.145L62.894 207.567L70.1476 196.804L90.4691 213.866L30.8403 223.482Z" fill="#E0E0E0"/>
<path d="M65.0239 185.756C65.1742 186.688 65.0456 187.645 64.6543 188.504C64.263 189.364 63.6267 190.087 62.8258 190.583C62.0249 191.079 61.0954 191.326 60.155 191.291C59.2146 191.257 58.3056 190.943 57.5429 190.389C56.7802 189.836 56.1982 189.067 55.8705 188.182C55.5428 187.296 55.4841 186.332 55.7019 185.413C55.9197 184.494 56.4042 183.66 57.094 183.018C57.7839 182.375 58.6481 181.952 59.5773 181.803C60.8214 181.603 62.0937 181.907 63.1149 182.648C64.136 183.389 64.8226 184.507 65.0239 185.756V185.756Z" fill="#E0E0E0"/>
<path d="M386.245 238.412C383.328 236.574 380.029 235.435 376.604 235.081C375.029 234.919 373.312 234.965 372.048 235.924C371.901 236.007 371.78 236.129 371.697 236.276C371.614 236.423 371.572 236.591 371.576 236.76C371.652 236.997 371.81 237.199 372.022 237.33C375.945 240.337 381.876 240.713 386.219 238.412" fill="#E0E0E0"/>
<path d="M386 238.14C383.767 236.494 381.683 234.653 379.772 232.638C377.869 230.606 376.533 228.104 375.9 225.387C375.774 224.985 375.737 224.56 375.79 224.141C375.844 223.723 375.987 223.321 376.21 222.964C381.173 226.852 385.071 231.887 386.032 238.14" fill="#E0E0E0"/>
<path d="M386.193 238.373C385.731 235.652 385.771 232.87 386.309 230.163C386.867 227.438 388.421 225.023 390.665 223.391C391.524 225.407 391.156 227.727 390.549 229.826C389.611 233.084 388.153 236.167 386.232 238.956" fill="#E0E0E0"/>
<path d="M391.072 247.128C388.116 247.491 385.548 249.072 383.328 251.055C381.11 253.081 379.567 255.744 378.907 258.682C381.805 258.5 384.264 256.446 386.045 254.146C387.826 251.845 389.059 249.324 391.02 247.173" fill="#E0E0E0"/>
<path d="M392.117 248.527C390.952 245.565 390.541 242.357 390.922 239.194C391.303 236.031 392.463 233.014 394.299 230.416C395.983 236.429 395.363 243.214 392.098 248.527" fill="#E0E0E0"/>
<path d="M398.545 256.213C395.846 256.046 393.157 256.68 390.813 258.035C388.469 259.389 386.573 261.406 385.361 263.833C385.199 264.164 385.051 264.578 385.27 264.87C385.385 264.982 385.524 265.063 385.677 265.109C385.83 265.154 385.992 265.161 386.148 265.129C388.729 264.961 391.046 263.393 392.95 261.604C394.854 259.816 396.506 257.755 398.603 256.206" fill="#E0E0E0"/>
<path d="M398.339 255.798C396.958 251.322 396.873 246.544 398.093 242.021C398.577 240.252 399.384 238.386 401.023 237.55C401.083 237.501 401.154 237.467 401.23 237.453C401.307 237.44 401.385 237.446 401.458 237.471C401.532 237.496 401.597 237.54 401.649 237.598C401.7 237.656 401.736 237.727 401.752 237.803C402.3 239.044 402.537 240.401 402.443 241.756C402.337 243.104 402.121 244.441 401.798 245.754C401.288 248.197 401.01 250.828 399.674 252.934C399.361 253.441 399.079 253.967 398.829 254.508C398.577 255.046 398.571 255.234 398.345 255.662" fill="#E0E0E0"/>
<path d="M415.356 258.345C414.065 253.523 415.433 247.692 418.454 243.739C418.679 243.447 418.97 243.136 419.338 243.175C419.893 243.227 420.035 243.972 420.015 244.529C419.783 249.482 418.168 254.269 415.356 258.345" fill="#E0E0E0"/>
<path d="M416.885 259.394C422.693 260.917 429.392 259.44 434.238 255.85C431.339 254.376 428.021 253.956 424.849 254.664C421.712 255.39 418.841 256.796 416.892 259.368" fill="#E0E0E0"/>
<path d="M418.176 256.187C421.441 250.847 427.695 247.361 433.929 247.043C433.212 249.59 431.128 251.579 428.766 252.759C426.404 253.938 423.79 254.476 421.203 254.981C420.196 255.176 418.815 255.396 418.163 256.187" fill="#E0E0E0"/>
<path d="M415.679 240.628C416.668 237.62 417.343 234.517 417.692 231.368C417.937 228.213 417.492 224.888 415.859 222.206C412.807 228.128 412.503 235.049 415.588 240.946" fill="#E0E0E0"/>
<path d="M425.92 235.425C429.489 228.945 436.762 223.722 444.118 222.996C441.279 230.092 433.535 235.574 425.92 235.425Z" fill="#E0E0E0"/>
<path d="M423.7 236.695C429.018 237.511 433.542 240.92 438.543 242.987C439.584 243.491 440.739 243.714 441.892 243.635C442.429 243.631 442.952 243.461 443.389 243.148C443.827 242.835 444.158 242.394 444.337 241.886C444.516 241.377 444.535 240.826 444.391 240.306C444.246 239.787 443.946 239.325 443.531 238.982C442.83 238.329 442.005 237.825 441.105 237.498C435.691 235.237 429.889 235.179 424.191 236.552" fill="#E0E0E0"/>
<path d="M420.622 240.44C421.829 240.784 422.235 241.412 423.203 242.229C426.454 245.003 430.299 246.986 434.438 248.022C434.864 248.126 435.426 248.171 435.639 247.782C435.852 247.393 435.594 247.031 435.348 246.726C433.545 244.598 431.201 243.002 428.566 242.106C425.985 241.134 423.732 239.967 420.635 240.22" fill="#E0E0E0"/>
<path d="M417.15 217.832C419.331 219.848 421.908 221.384 424.715 222.343C427.522 223.301 430.498 223.661 433.451 223.398C433.722 223.4 433.985 223.306 434.193 223.132C434.6 222.685 434.109 221.992 433.632 221.616C428.837 217.864 423.035 216.309 417.15 217.832Z" fill="#E0E0E0"/>
<path d="M421.267 216.315C424.152 214.183 427.498 212.767 431.032 212.181C434.566 211.595 438.188 211.857 441.602 212.946C438.945 215.423 435.535 216.93 431.922 217.223C428.347 217.547 424.743 217.24 421.274 216.315" fill="#E0E0E0"/>
<path d="M419.635 205.928C419.163 201.126 419.467 197.335 419.138 192.508C419.138 192.125 419.028 191.659 418.667 191.523C418.17 191.328 417.75 191.944 417.589 192.456C416.891 194.693 416.711 197.06 417.065 199.378C417.418 201.695 418.295 203.9 419.628 205.824" fill="#E0E0E0"/>
<path d="M419.286 206.459C422.409 204.432 425.102 201.805 427.211 198.729C428.772 196.577 430.095 193.998 429.74 191.361C428.638 191.39 427.556 191.66 426.568 192.153C425.581 192.645 424.712 193.348 424.023 194.212C422.658 195.951 421.667 197.954 421.112 200.096C420.467 202.208 420.034 204.379 419.286 206.459" fill="#E0E0E0"/>
<path d="M427.069 204.288C434.202 201.636 440.807 197.725 446.571 192.741C444.241 191.801 441.576 192.365 439.246 193.305C433.922 195.463 429.566 199.104 426.985 204.237" fill="#E0E0E0"/>
<path d="M421.474 209.084C425.075 209.479 428.734 209.732 432.302 209.135C435.871 208.539 439.13 207.153 442.408 205.766C442.695 205.682 442.941 205.495 443.099 205.241C443.149 205.088 443.152 204.923 443.107 204.768C443.062 204.612 442.972 204.475 442.847 204.373C442.597 204.173 442.302 204.035 441.989 203.971C438.42 202.967 434.574 203.433 431.063 204.619C427.721 205.767 424.507 207.261 421.474 209.077" fill="#E0E0E0"/>
<path d="M400.926 217.994C398.467 213.017 398.629 207.211 400.752 202.079C402.243 204.366 402.423 207.263 402.152 209.991C401.881 212.719 401.055 215.512 401.004 218.24" fill="#E0E0E0"/>
<path d="M391.117 213.023C388.042 212.984 384.993 213.588 382.164 214.799C379.335 216.009 376.788 217.799 374.687 220.054C377.786 220.426 380.924 219.841 383.683 218.376C386.433 216.917 389.028 215.18 391.427 213.192" fill="#E0E0E0"/>
<path d="M384.522 210.814C381.521 210.568 378.636 210.166 375.752 211.08C374.296 211.49 372.945 212.211 371.791 213.192C370.638 214.174 369.708 215.394 369.066 216.769C371.896 216.998 374.735 216.461 377.288 215.214C379.824 213.965 382.245 212.492 384.522 210.814" fill="#E0E0E0"/>
<path d="M394.299 210.911C391.601 209.135 388.833 207.328 385.69 206.595C382.547 205.863 378.908 206.401 376.713 208.779C379.256 210.276 382.341 210.457 385.29 210.451C388.239 210.444 391.853 210.451 394.634 211.403" fill="#E0E0E0"/>
<path d="M394.299 211.054C389.691 206.518 387.942 198.34 389.781 192.119C393.429 197.713 395.026 204.407 394.299 211.054" fill="#E0E0E0"/>
<path d="M406.986 198.171C407.857 196.137 408.464 194.005 409.245 191.938C409.958 189.84 411.052 187.894 412.471 186.196C413.915 184.493 415.965 183.426 418.182 183.222C417.474 186.356 416.123 189.308 414.213 191.888C412.304 194.467 409.88 196.619 407.096 198.204" fill="#E0E0E0"/>
<path d="M404.689 200.88C403.249 198.891 401.585 196.188 399.636 194.704C397.687 193.221 395.118 192.32 392.756 192.89C393.991 195.06 395.712 196.912 397.783 198.299C399.854 199.686 402.219 200.569 404.689 200.88Z" fill="#E0E0E0"/>
<path d="M405.147 198.333C404.114 195.961 403.352 193.478 402.875 190.933C402.397 188.359 402.802 185.698 404.024 183.384C406.56 188.192 407.373 193.35 405.276 198.366" fill="#E0E0E0"/>
<path d="M407.005 183.384C408.444 178.621 412.813 175.116 417.479 173.502C418.059 173.264 418.688 173.17 419.312 173.23C419.623 173.263 419.918 173.387 420.159 173.588C420.4 173.788 420.577 174.056 420.667 174.357C420.835 175.174 420.17 175.9 419.544 176.437C415.877 179.582 411.611 181.946 407.005 183.384Z" fill="#E0E0E0"/>
<path d="M407.063 179.496C407.244 176.424 407.431 173.308 408.431 170.424C409.432 167.54 411.342 164.78 414.13 163.51C414.607 166.607 413.239 169.698 411.6 172.368C409.961 175.038 407.973 177.552 406.986 180.533" fill="#E0E0E0"/>
<path d="M406.986 181.628C405.799 178.155 405.695 173.748 403.604 170.722C402.159 168.61 399.842 167.165 398.597 164.929C397.842 167.077 397.946 169.434 398.887 171.506C399.829 173.554 401.125 175.419 402.714 177.014C404.25 178.654 405.56 179.891 406.986 181.628Z" fill="#E0E0E0"/>
<path d="M407.005 283.882C406.915 283.882 406.837 260.716 406.831 232.152C406.825 203.589 406.896 180.416 406.986 180.416C407.076 180.416 407.16 203.576 407.167 232.152C407.173 260.729 407.102 283.882 407.005 283.882Z" fill="#E0E0E0"/>
<path d="M427.166 214.488C426.887 214.621 426.598 214.729 426.301 214.812L423.913 215.622C421.9 216.309 419.138 217.307 416.169 218.538C413.201 219.769 410.361 220.858 408.799 222.251C408.163 222.776 407.655 223.441 407.315 224.195C407.089 224.739 407.051 225.07 407.018 225.063C406.986 225.057 407.018 224.979 407.018 224.824C407.057 224.603 407.115 224.386 407.192 224.176C407.494 223.366 407.99 222.645 408.638 222.076C409.61 221.257 410.697 220.586 411.865 220.087C413.155 219.484 414.562 218.862 416.066 218.24C419.073 217.002 421.874 216.037 423.9 215.402C424.913 215.084 425.746 214.851 426.32 214.695C426.594 214.596 426.877 214.527 427.166 214.488Z" fill="#E0E0E0"/>
<path d="M433.774 198.204C433.702 198.299 433.619 198.386 433.529 198.463L432.793 199.163C432.102 199.811 431.167 200.64 430.024 201.683L420.828 209.907C417.24 213.114 414.136 216.179 411.987 218.486C410.91 219.64 410.051 220.599 409.483 221.26L408.838 222.031C408.765 222.125 408.681 222.21 408.586 222.283C408.636 222.175 408.702 222.075 408.78 221.985C408.922 221.797 409.128 221.525 409.425 221.182C409.974 220.482 410.793 219.503 411.852 218.331C414.627 215.282 417.563 212.386 420.648 209.654C424.249 206.453 427.527 203.576 429.908 201.502C431.083 200.498 432.038 199.668 432.741 199.059L433.522 198.411C433.598 198.333 433.683 198.263 433.774 198.204Z" fill="#E0E0E0"/>
<path d="M416.956 213.192C416.859 213.153 417.602 211.41 418.357 209.213C419.112 207.016 419.467 205.157 419.563 205.176C419.481 206.594 419.181 207.991 418.673 209.317C418.355 210.267 417.982 211.197 417.556 212.103C417.407 212.492 417.205 212.858 416.956 213.192V213.192Z" fill="#E0E0E0"/>
<path d="M407.031 227.189C406.824 226.993 406.638 226.776 406.476 226.541L405.056 224.72C403.869 223.171 402.223 221.039 400.378 218.706C398.532 216.374 396.835 214.274 395.609 212.764C395.028 212.039 394.544 211.468 394.157 210.963C393.968 210.752 393.801 210.521 393.66 210.276C393.882 210.453 394.083 210.655 394.26 210.879C394.628 211.28 395.15 211.87 395.789 212.609C397.08 214.086 398.79 216.16 400.636 218.499C402.481 220.838 404.101 222.99 405.25 224.577C405.818 225.368 406.276 226.009 406.579 226.463C406.755 226.688 406.906 226.931 407.031 227.189V227.189Z" fill="#E0E0E0"/>
<path d="M402.611 221.486C401.717 220.498 401.081 219.302 400.759 218.007C400.409 216.873 400.267 215.685 400.339 214.501H400.488C400.417 214.773 400.371 214.916 400.346 214.909C400.32 214.903 400.346 214.754 400.346 214.481H400.494C400.567 215.636 400.763 216.778 401.081 217.89C401.499 219.126 402.011 220.328 402.611 221.486V221.486Z" fill="#E0E0E0"/>
<path d="M396.88 214.281C396.483 213.977 396.049 213.725 395.589 213.529C394.427 213.182 393.204 213.083 392.001 213.237C390.783 213.335 389.574 213.532 388.387 213.827C387.9 213.981 387.401 214.1 386.897 214.183C387.34 213.919 387.821 213.722 388.323 213.6C389.51 213.231 390.736 212.999 391.975 212.907C393.224 212.74 394.495 212.878 395.68 213.309C396.178 213.487 396.601 213.83 396.88 214.281V214.281Z" fill="#E0E0E0"/>
<path d="M395.551 212.544C395.551 212.596 394.795 212.239 393.569 211.818C390.361 210.712 386.924 210.449 383.586 211.054C382.295 211.28 381.54 211.52 381.521 211.468C381.68 211.367 381.854 211.292 382.037 211.248C382.528 211.078 383.028 210.938 383.534 210.827C386.909 210.084 390.426 210.347 393.653 211.585C394.136 211.773 394.608 211.99 395.067 212.233C395.389 212.408 395.589 212.544 395.551 212.544Z" fill="#E0E0E0"/>
<path d="M406.986 205.15C406.399 203.502 405.916 201.818 405.54 200.109C405.058 198.428 404.683 196.718 404.417 194.99C405.007 196.635 405.489 198.317 405.863 200.025C406.347 201.707 406.722 203.419 406.986 205.15V205.15Z" fill="#E0E0E0"/>
<path d="M407.076 205.15C406.615 204.107 406.08 203.098 405.476 202.131C404.797 201.219 404.005 200.398 403.12 199.688C403.456 199.773 403.767 199.935 404.03 200.161C404.699 200.65 405.28 201.25 405.747 201.936C406.466 202.87 406.925 203.979 407.076 205.15V205.15Z" fill="#E0E0E0"/>
<path d="M407.005 271.512C406.973 271.512 406.902 270.961 406.644 269.976C406.261 268.592 405.744 267.249 405.101 265.965C403.507 262.693 400.584 258.545 396.925 254.392C395.099 252.299 393.324 250.322 391.82 248.43C390.472 246.767 389.253 245.001 388.174 243.149C387.451 241.897 386.836 240.586 386.335 239.229C386.167 238.743 386.038 238.367 385.974 238.108C385.927 237.978 385.895 237.843 385.877 237.706C385.877 237.706 386.077 238.237 386.458 239.183C387.004 240.514 387.651 241.801 388.394 243.032C389.495 244.848 390.727 246.581 392.079 248.216C393.582 250.089 395.357 252.059 397.19 254.152C400.881 258.319 403.779 262.518 405.327 265.816C405.96 267.119 406.449 268.488 406.786 269.898C406.889 270.397 406.96 270.793 406.986 271.058C407.012 271.208 407.018 271.361 407.005 271.512V271.512Z" fill="#E0E0E0"/>
<path d="M425.223 250.873C424.917 251.075 424.598 251.254 424.268 251.411C423.407 251.902 422.581 252.452 421.796 253.057C420.644 253.963 419.565 254.96 418.57 256.038C417.427 257.243 416.253 258.63 415.052 260.159C412.652 263.179 410.406 265.855 409.064 267.993C408.38 269.05 407.883 269.937 407.56 270.585C407.407 270.918 407.231 271.238 407.031 271.544C407.053 271.453 407.083 271.364 407.121 271.279C407.192 271.104 407.289 270.845 407.444 270.527C407.861 269.614 408.335 268.729 408.864 267.877C410.154 265.693 412.394 262.978 414.788 259.965C415.995 258.455 417.182 257.042 418.344 255.837C419.369 254.757 420.485 253.769 421.68 252.882C422.492 252.282 423.356 251.757 424.261 251.314C424.578 251.152 424.836 251.055 425.004 250.977C425.074 250.936 425.147 250.902 425.223 250.873V250.873Z" fill="#E0E0E0"/>
<path d="M425.578 257.58C424.915 257.725 424.242 257.823 423.564 257.872C421.943 258.039 420.34 258.356 418.776 258.818C417.232 259.322 415.783 260.085 414.491 261.073C413.504 261.844 413.039 262.479 412.994 262.44C412.949 262.401 413.071 262.252 413.291 261.973C413.606 261.58 413.958 261.217 414.343 260.891C415.62 259.823 417.09 259.011 418.673 258.5C420.256 258.025 421.889 257.736 423.539 257.638C424.215 257.555 424.898 257.536 425.578 257.58V257.58Z" fill="#E0E0E0"/>
<path d="M413.581 261.701C413.478 261.643 414.388 260.25 415.091 258.371C415.795 256.491 415.911 254.819 416.027 254.839C416.088 255.199 416.088 255.567 416.027 255.928C415.928 256.8 415.731 257.659 415.44 258.487C415.132 259.309 414.738 260.095 414.265 260.833C413.872 261.403 413.62 261.727 413.581 261.701Z" fill="#E0E0E0"/>
<path d="M431.121 232.885C431.02 232.952 430.912 233.008 430.799 233.053L429.85 233.487C429.437 233.669 428.934 233.889 428.366 234.194C427.798 234.498 427.127 234.79 426.43 235.211L425.326 235.859C424.945 236.079 424.571 236.338 424.171 236.591C423.358 237.09 422.545 237.693 421.674 238.315C417.958 241.095 414.717 244.463 412.077 248.288C411.49 249.182 410.909 250.018 410.445 250.88C410.206 251.288 409.961 251.677 409.754 252.065L409.167 253.193C408.773 253.906 408.522 254.58 408.218 255.137C407.915 255.694 407.734 256.232 407.573 256.653L407.179 257.619C407.137 257.734 407.083 257.845 407.018 257.949C407.033 257.828 407.066 257.711 407.115 257.599L407.45 256.608C407.599 256.174 407.792 255.655 408.057 255.059C408.322 254.463 408.58 253.763 408.96 253.063L409.535 251.916C409.735 251.521 409.98 251.126 410.18 250.711C410.638 249.869 411.213 249.02 411.8 248.119C414.439 244.246 417.712 240.85 421.48 238.075C422.358 237.46 423.184 236.85 424.01 236.364C424.416 236.118 424.797 235.859 425.184 235.645L426.307 235.03C427.01 234.621 427.682 234.33 428.243 234.051C428.804 233.772 429.34 233.552 429.76 233.403C430.179 233.254 430.482 233.131 430.734 233.027C430.856 232.962 430.986 232.914 431.121 232.885Z" fill="#E0E0E0"/>
<path d="M416.705 242.579C416.845 242.113 417.122 241.7 417.498 241.393C418.388 240.621 419.518 240.186 420.693 240.162C421.845 240.155 422.987 240.375 424.055 240.81C424.514 240.961 424.949 241.18 425.346 241.458C424.881 241.366 424.425 241.231 423.984 241.056C422.93 240.695 421.825 240.509 420.712 240.505C419.606 240.526 418.536 240.903 417.66 241.581C417.32 241.892 417 242.225 416.705 242.579V242.579Z" fill="#E0E0E0"/>
<path d="M414.549 244.814C414.978 243.871 415.284 242.875 415.459 241.853C415.527 240.816 415.457 239.774 415.253 238.756C415.448 239.007 415.579 239.303 415.633 239.617C416.018 241.112 415.834 242.697 415.117 244.063C414.833 244.575 414.582 244.834 414.549 244.814Z" fill="#E0E0E0"/>
<path d="M391.072 274.856C391.569 283.707 394.221 292.708 398.313 301.813H416.079C419.951 292.799 422.448 283.811 422.887 274.856H391.072Z" fill="#E0E0E0"/>
<path d="M420.015 289.176C420.015 289.267 414.162 289.345 406.947 289.345C399.732 289.345 393.879 289.267 393.879 289.176C393.879 289.086 399.732 289.008 406.947 289.008C414.162 289.008 420.015 289.086 420.015 289.176Z" fill="#FAFAFA"/>
<path d="M419.615 292.384C419.615 292.475 414.13 292.553 407.354 292.553C400.578 292.553 395.092 292.475 395.092 292.384C395.092 292.293 400.578 292.216 407.354 292.216C414.13 292.216 419.615 292.293 419.615 292.384Z" fill="#FAFAFA"/>
<path d="M398.603 280.668C398.827 283.402 398.827 286.151 398.603 288.885C398.379 286.151 398.379 283.402 398.603 280.668V280.668Z" fill="#FAFAFA"/>
<path d="M408.122 280.668C408.345 283.5 408.345 286.345 408.122 289.176C407.898 286.345 407.898 283.5 408.122 280.668V280.668Z" fill="#FAFAFA"/>
<path d="M417.06 280.584C417.283 283.474 417.283 286.377 417.06 289.267C416.836 286.377 416.836 283.474 417.06 280.584V280.584Z" fill="#FAFAFA"/>
<path d="M422.332 280.668C422.332 280.759 415.466 280.83 407.005 280.83C398.545 280.83 391.679 280.759 391.679 280.668C391.679 280.578 398.539 280.5 407.005 280.5C415.472 280.5 422.332 280.584 422.332 280.668Z" fill="#FAFAFA"/>
<path d="M463.265 122.129C463.564 122.196 463.847 122.322 464.097 122.499C464.348 122.676 464.561 122.901 464.725 123.161C464.888 123.421 464.999 123.711 465.051 124.014C465.103 124.317 465.095 124.628 465.027 124.928L464.595 126.872L460.607 144.368C460.517 144.768 460.273 145.116 459.929 145.336C459.584 145.556 459.166 145.63 458.768 145.541L418.912 136.372C418.53 136.283 418.196 136.051 417.979 135.723C417.762 135.396 417.678 134.997 417.744 134.609L421.5 111.838C421.528 111.627 421.601 111.423 421.712 111.241C421.823 111.059 421.97 110.902 422.145 110.78C422.32 110.658 422.518 110.574 422.727 110.533C422.935 110.492 423.151 110.495 423.358 110.542L432.393 112.616C433.245 112.81 434.001 113.305 434.522 114.009L436.02 116.024L463.265 122.129Z" fill="#E0E0E0"/>
<path d="M465.707 125.165L422.158 115.15L416.139 141.54L459.688 151.555L465.707 125.165Z" fill="#F5F5F5"/>
<path d="M418.176 116.724L415.22 145.009C415.197 145.251 415.261 145.493 415.401 145.69C415.541 145.888 415.747 146.028 415.982 146.085L458.419 155.844C458.662 155.899 458.918 155.859 459.133 155.733C459.349 155.607 459.508 155.403 459.581 155.164L467.97 128.136C468.016 128.003 468.034 127.863 468.022 127.723C468.01 127.584 467.969 127.448 467.902 127.326C467.834 127.204 467.741 127.097 467.63 127.013C467.518 126.929 467.39 126.87 467.254 126.84L419.351 115.824C419.214 115.798 419.073 115.801 418.937 115.833C418.802 115.866 418.674 115.926 418.564 116.011C418.453 116.096 418.361 116.203 418.294 116.326C418.228 116.449 418.187 116.585 418.176 116.724V116.724Z" fill="#EBEBEB"/>
<path d="M61.0423 92.9815C61.5259 93.0552 61.9609 93.318 62.2523 93.7125C62.5437 94.1071 62.6678 94.6014 62.5975 95.0875C62.5072 95.7355 62.4168 96.3835 62.3716 96.6492L60.3001 110.73C60.278 110.89 60.2246 111.043 60.1431 111.182C60.0615 111.32 59.9534 111.441 59.825 111.538C59.6966 111.634 59.5504 111.704 59.3949 111.744C59.2394 111.783 59.0777 111.791 58.9191 111.767L26.846 107.004C26.5433 106.958 26.2691 106.799 26.0778 106.559C25.8865 106.319 25.7922 106.015 25.8135 105.708L27.3752 87.467C27.3885 87.2998 27.4358 87.1371 27.5142 86.989C27.5927 86.8409 27.7006 86.7105 27.8313 86.606C27.962 86.5015 28.1127 86.4251 28.274 86.3815C28.4353 86.3378 28.6039 86.328 28.7691 86.3525L36.0227 87.4282C36.7098 87.5321 37.3383 87.8763 37.7974 88.4002L39.088 89.897L61.0423 92.9815Z" fill="#E0E0E0"/>
<path d="M63.1587 95.2338L28.1045 90.0298L24.9766 111.274L60.0308 116.478L63.1587 95.2338Z" fill="#F5F5F5"/>
<path d="M25.0262 91.517L24.4389 114.048C24.4327 114.237 24.4945 114.423 24.6129 114.57C24.7314 114.718 24.8986 114.817 25.0842 114.851L59.2482 119.925C59.4441 119.954 59.6438 119.908 59.8068 119.795C59.9697 119.682 60.0838 119.511 60.1258 119.316L65.1078 97.4202C65.1332 97.3144 65.1363 97.2044 65.117 97.0972C65.0976 96.9901 65.0563 96.8882 64.9956 96.7979C64.9349 96.7077 64.8561 96.6312 64.7643 96.5732C64.6726 96.5152 64.5697 96.4771 64.4625 96.4612L25.8974 90.7329C25.7877 90.7211 25.6768 90.7326 25.5718 90.7666C25.4668 90.8006 25.3701 90.8563 25.288 90.9303C25.2058 91.0042 25.1401 91.0946 25.095 91.1957C25.0499 91.2968 25.0264 91.4062 25.0262 91.517V91.517Z" fill="#EBEBEB"/>
<path d="M449.229 68.202L424.855 75.816C424.455 75.9414 424.035 75.9864 423.617 75.9484C423.2 75.9104 422.794 75.7901 422.423 75.5945C422.052 75.3989 421.723 75.1318 421.455 74.8084C421.187 74.4851 420.985 74.1118 420.861 73.71L410.342 39.8325C410.098 39.0196 410.182 38.1433 410.576 37.392C410.969 36.6407 411.641 36.0744 412.445 35.8149L427.933 30.9808L443.738 39.6187L451.359 64.1714C451.605 64.9894 451.519 65.872 451.121 66.6269C450.722 67.3818 450.042 67.9479 449.229 68.202V68.202Z" fill="#EBEBEB"/>
<path d="M427.901 30.9938L430.857 40.5259C431.097 41.2773 431.623 41.9031 432.32 42.2671C433.018 42.6312 433.83 42.7041 434.58 42.4699L443.705 39.6122L427.901 30.9938Z" fill="#E0E0E0"/>
<path d="M428.695 40.7786C428.734 40.9017 426.236 41.7894 423.126 42.7614C420.015 43.7334 417.453 44.4268 417.421 44.3037C417.389 44.1806 419.873 43.2928 422.99 42.3208C426.107 41.3488 428.656 40.6554 428.695 40.7786Z" fill="#FAFAFA"/>
<path d="M437.652 43.889C437.684 44.0121 433.561 45.4118 428.437 47.0124C423.313 48.6129 419.131 49.8182 419.092 49.6951C419.054 49.572 423.177 48.1723 428.301 46.5717C433.425 44.9712 437.613 43.7659 437.652 43.889Z" fill="#FAFAFA"/>
<path d="M440.718 47.8677C440.756 47.9908 436.258 49.5072 430.67 51.2503C425.081 52.9934 420.525 54.3218 420.486 54.1987C420.448 54.0756 424.946 52.5592 430.534 50.8096C436.123 49.06 440.679 47.7446 440.718 47.8677Z" fill="#FAFAFA"/>
<path d="M442.053 52.1121C442.092 52.2352 437.594 53.7516 432.012 55.5012C426.43 57.2508 421.867 58.5662 421.829 58.4431C421.79 58.32 426.288 56.8036 431.87 55.054C437.452 53.3044 441.995 51.989 442.053 52.1121Z" fill="#FAFAFA"/>
<path d="M443.344 56.376C443.376 56.4991 438.878 58.0154 433.296 59.765C427.714 61.5146 423.152 62.83 423.113 62.7069C423.074 62.5838 427.572 61.0675 433.161 59.3244C438.749 57.5812 443.344 56.2334 443.344 56.376Z" fill="#FAFAFA"/>
<path d="M444.673 60.6073C444.712 60.7305 440.214 62.2468 434.625 63.9899C429.037 65.733 424.481 67.0614 424.442 66.9383C424.403 66.8152 428.901 65.2989 434.49 63.5493C440.079 61.7997 444.635 60.4842 444.673 60.6073Z" fill="#FAFAFA"/>
<path d="M388.375 31.2012H83.6548C81.132 31.2012 78.7125 32.2075 76.9286 33.9987C75.1448 35.79 74.1426 38.2195 74.1426 40.7527V256.874C74.1426 259.407 75.1448 261.836 76.9286 263.628C78.7125 265.419 81.132 266.425 83.6548 266.425H200.609C200.609 266.425 208.043 289.526 184.985 301.482H294.337C294.337 301.482 268.304 292.514 274.977 266.425H388.362C390.883 266.423 393.301 265.416 395.084 263.625C396.866 261.834 397.868 259.406 397.868 256.874V40.7527C397.868 38.2228 396.868 35.7963 395.088 34.0056C393.309 32.2149 390.894 31.2063 388.375 31.2012V31.2012Z" fill="#455A64"/>
<path d="M240.064 243.7C244.207 249.648 237.722 256.161 231.797 252.001C231.6 251.86 231.427 251.687 231.288 251.489C227.151 245.54 233.63 239.034 239.554 243.188C239.754 243.326 239.926 243.5 240.064 243.7V243.7Z" fill="#263238"/>
<path d="M85.6487 35.1604H386.374C388.034 35.1604 389.626 35.8226 390.8 37.0014C391.974 38.1802 392.634 39.779 392.634 41.446V226.891H79.376V41.4719C79.3726 40.6432 79.5325 39.822 79.8463 39.0556C80.1602 38.2891 80.6219 37.5926 81.2049 37.006C81.7878 36.4194 82.4806 35.9543 83.2432 35.6376C84.0059 35.3209 84.8234 35.1587 85.6487 35.1604Z" fill="white"/>
<path d="M85.2942 35.1604H387.794C389.081 35.1604 390.316 35.6738 391.226 36.5877C392.136 37.5015 392.647 38.741 392.647 40.0334V51.0947H79.3765V41.0896C79.3765 40.3099 79.5296 39.5378 79.8272 38.8176C80.1247 38.0974 80.5608 37.4432 81.1105 36.8924C81.6602 36.3417 82.3126 35.9052 83.0305 35.608C83.7484 35.3108 84.5177 35.1587 85.2942 35.1604V35.1604Z" fill="#EBEBEB"/>
<path d="M91.5667 43.4614C91.5667 43.8984 91.4376 44.3256 91.1958 44.689C90.954 45.0524 90.6103 45.3356 90.2082 45.5029C89.8061 45.6701 89.3637 45.7139 88.9368 45.6286C88.5099 45.5433 88.1178 45.3329 87.8101 45.0239C87.5023 44.7148 87.2927 44.3211 87.2078 43.8925C87.1229 43.4638 87.1665 43.0195 87.333 42.6158C87.4996 42.212 87.7816 41.8669 88.1435 41.6241C88.5054 41.3813 88.9309 41.2517 89.3661 41.2517C89.9497 41.2517 90.5095 41.4845 90.9222 41.8989C91.3349 42.3133 91.5667 42.8753 91.5667 43.4614Z" fill="#263238"/>
<path d="M98.1233 43.4614C98.1233 43.8984 97.9943 44.3256 97.7525 44.689C97.5107 45.0524 97.167 45.3356 96.7649 45.5029C96.3628 45.6701 95.9203 45.7139 95.4934 45.6286C95.0666 45.5433 94.6745 45.3329 94.3667 45.0239C94.0589 44.7148 93.8494 44.3211 93.7645 43.8925C93.6795 43.4638 93.7231 43.0195 93.8897 42.6158C94.0562 42.212 94.3383 41.8669 94.7002 41.6241C95.0621 41.3813 95.4875 41.2517 95.9228 41.2517C96.5064 41.2517 97.0661 41.4845 97.4788 41.8989C97.8915 42.3133 98.1233 42.8753 98.1233 43.4614Z" fill="#263238"/>
<path d="M104.364 43.4614C104.364 43.8984 104.235 44.3256 103.993 44.689C103.751 45.0524 103.407 45.3356 103.005 45.5029C102.603 45.6701 102.161 45.7139 101.734 45.6286C101.307 45.5433 100.915 45.3329 100.607 45.0239C100.299 44.7148 100.09 44.3211 100.005 43.8925C99.9198 43.4638 99.9634 43.0195 100.13 42.6158C100.296 42.212 100.579 41.8669 100.94 41.6241C101.302 41.3813 101.728 41.2517 102.163 41.2517C102.747 41.2517 103.306 41.4845 103.719 41.8989C104.132 42.3133 104.364 42.8753 104.364 43.4614V43.4614Z" fill="#263238"/>
<path d="M333.896 266.458C333.896 266.561 290.536 266.639 237.057 266.639C183.578 266.639 140.206 266.561 140.206 266.458C140.206 266.354 183.559 266.276 237.057 266.276C290.555 266.276 333.896 266.328 333.896 266.458Z" fill="#263238"/>
<path d="M372.222 113.97C372.222 113.97 372.222 113.653 372.222 113.044C372.222 112.434 372.222 111.527 372.222 110.348C372.222 107.983 372.222 104.516 372.183 100.064C372.183 91.1671 372.144 78.3561 372.119 62.6486L372.248 62.7782L287.154 62.8171L287.322 62.6486C287.322 80.825 287.322 98.1784 287.322 113.97L287.167 113.815L348.396 113.892L365.962 113.931H370.641H371.848H372.267H371.867H370.68H366.027L348.48 114.048L287.173 114.126H287.019V113.97C287.019 98.1784 287.019 80.825 287.019 62.6486V62.4801H287.193L372.286 62.519H372.416V62.6486C372.416 78.3885 372.364 91.2319 372.351 100.148C372.351 104.587 372.351 108.041 372.312 110.4C372.312 111.566 372.312 112.46 372.312 113.069C372.312 113.679 372.222 113.97 372.222 113.97Z" fill="#263238"/>
<path d="M166.632 226.45C166.541 226.45 166.464 187.194 166.464 138.776C166.464 90.357 166.541 51.0947 166.632 51.0947C166.722 51.0947 166.806 90.3441 166.806 138.776C166.806 187.207 166.728 226.45 166.632 226.45Z" fill="#263238"/>
<path d="M153.932 80.8185H100.801V89.8192H153.932V80.8185Z" fill="#E0E0E0"/>
<path d="M337.471 108.488L310.948 108.449C310.329 108.447 309.737 108.2 309.3 107.76C308.863 107.32 308.618 106.724 308.618 106.103L308.67 70.2237C308.671 69.6027 308.918 69.0077 309.356 68.5692C309.794 68.1306 310.387 67.8844 311.006 67.8844H329.553L339.846 77.9738L339.807 106.123C339.811 106.433 339.753 106.74 339.637 107.028C339.521 107.315 339.349 107.576 339.132 107.796C338.914 108.016 338.656 108.191 338.371 108.309C338.085 108.428 337.78 108.489 337.471 108.488V108.488Z" fill="#00AFDB"/>
<g opacity="0.3">
<path d="M329.553 67.8197V74.9477C329.551 75.3666 329.632 75.7817 329.79 76.1693C329.948 76.5568 330.182 76.909 330.476 77.2059C330.77 77.5027 331.12 77.7382 331.506 77.8989C331.891 78.0596 332.304 78.1423 332.721 78.1423L339.82 77.9933L329.553 67.8197Z" fill="white"/>
</g>
<path d="M333.502 101.393C333.493 101.28 333.493 101.168 333.502 101.056C333.502 100.822 333.502 100.505 333.502 100.109C333.502 99.2606 333.502 98.0618 333.502 96.5455C333.502 93.474 333.47 89.1259 333.444 83.916L333.592 84.065H315.523L315.691 83.903V86.2747C315.691 87.0588 315.691 87.8364 315.691 88.6075C315.691 90.1432 315.691 91.6531 315.691 93.1435C315.691 96.0789 315.691 98.8524 315.691 101.399L315.542 101.256L328.61 101.347L332.302 101.393H333.289H333.638C333.532 101.402 333.427 101.402 333.321 101.393H332.366H328.701L315.542 101.451H315.4V101.302C315.4 98.7552 315.4 95.9817 315.4 93.0463V88.5103C315.4 87.7456 315.4 86.968 315.4 86.1775V83.8123L315.568 83.6373L333.638 83.6892H333.779V83.8317C333.741 89.0805 333.709 93.461 333.689 96.552C333.689 98.0553 333.689 99.2476 333.644 100.084C333.644 100.472 333.644 100.777 333.644 101.004C333.613 101.139 333.565 101.269 333.502 101.393Z" fill="white"/>
<path d="M324.28 101.587C324.19 101.587 324.119 97.6989 324.125 92.8519C324.132 88.0048 324.216 84.1104 324.306 84.1104C324.396 84.1104 324.474 87.9983 324.461 92.8519C324.448 97.7054 324.377 101.587 324.28 101.587Z" fill="white"/>
<path d="M333.438 97.1093C333.438 97.2065 329.372 97.2713 324.358 97.2648C319.343 97.2583 315.278 97.1805 315.278 97.0833C315.278 96.9861 319.343 96.9213 324.358 96.9278C329.372 96.9343 333.438 97.0185 333.438 97.1093Z" fill="white"/>
<path d="M333.637 92.6639C333.637 92.7547 329.572 92.8259 324.558 92.8195C319.543 92.813 315.478 92.7287 315.478 92.638C315.478 92.5473 319.543 92.4695 324.558 92.4825C329.572 92.4955 333.637 92.5603 333.637 92.6639Z" fill="white"/>
<path d="M333.521 88.1993C333.521 88.29 329.488 88.3613 324.487 88.3548C319.485 88.3483 315.452 88.2641 315.452 88.1734C315.452 88.0827 319.485 88.0114 324.487 88.0179C329.488 88.0243 333.521 88.128 333.521 88.1993Z" fill="white"/>
<path d="M376.281 108.469H350.752C349.907 108.46 349.1 108.12 348.502 107.52C347.905 106.92 347.566 106.109 347.557 105.261V69.7831C347.557 68.9294 347.893 68.1101 348.491 67.5034C349.089 66.8967 349.902 66.5516 350.752 66.5431H366.943L379.476 79.5031V105.216C379.479 106.072 379.145 106.894 378.546 107.504C377.948 108.113 377.134 108.46 376.281 108.469Z" fill="#455A64"/>
<path d="M366.943 66.5754V76.5611C366.943 77.3517 367.256 78.1099 367.813 78.6689C368.369 79.2279 369.124 79.5419 369.912 79.5419H379.456L366.943 66.5754Z" fill="#455A64"/>
<g opacity="0.2">
<path d="M367.072 77.4359C367.075 78.1952 367.336 78.9308 367.813 79.5202C368.289 80.1097 368.953 80.5175 369.692 80.6759L370.009 80.7472C371.254 80.9675 379.476 82.4385 379.476 82.2506V79.5678H369.912C369.912 79.5678 367.524 79.4642 367.072 77.4359Z" fill="black"/>
</g>
<g opacity="0.3">
<path d="M366.943 66.5754V76.5611C366.943 77.3517 367.256 78.1099 367.813 78.6689C368.369 79.2279 369.124 79.5419 369.912 79.5419H379.456L366.943 66.5754Z" fill="white"/>
</g>
<path d="M364.801 76.153C364.801 76.2826 362.161 76.3862 358.896 76.3862C355.631 76.3862 352.991 76.2826 352.991 76.153C352.991 76.0234 355.637 75.9197 358.896 75.9197C362.155 75.9197 364.801 76.0234 364.801 76.153Z" fill="#FAFAFA"/>
<path d="M372.429 81.797C372.429 81.9266 368.079 82.0303 362.71 82.0303C357.341 82.0303 352.991 81.9266 352.991 81.797C352.991 81.6674 357.341 81.5702 362.71 81.5702C368.079 81.5702 372.429 81.648 372.429 81.797Z" fill="#FAFAFA"/>
<path d="M374.184 86.5144C374.184 86.644 369.434 86.7477 363.588 86.7477C357.741 86.7477 352.991 86.644 352.991 86.5144C352.991 86.3848 357.734 86.2811 363.588 86.2811C369.441 86.2811 374.184 86.3848 374.184 86.5144Z" fill="#FAFAFA"/>
<path d="M374.184 90.9597C374.184 91.0893 369.434 91.193 363.588 91.193C357.741 91.193 352.991 91.0893 352.991 90.9597C352.991 90.8301 357.734 90.7329 363.588 90.7329C369.441 90.7329 374.184 90.8366 374.184 90.9597Z" fill="#FAFAFA"/>
<path d="M374.184 95.4115C374.184 95.5411 369.434 95.6448 363.588 95.6448C357.741 95.6448 352.991 95.5411 352.991 95.4115C352.991 95.2819 357.734 95.1782 363.588 95.1782C369.441 95.1782 374.184 95.256 374.184 95.4115Z" fill="#FAFAFA"/>
<path d="M374.184 99.8568C374.184 99.9864 369.434 100.09 363.587 100.09C357.741 100.09 352.998 99.9864 352.998 99.8568C352.998 99.7272 357.741 99.6235 363.594 99.6235C369.447 99.6235 374.184 99.7272 374.184 99.8568Z" fill="#FAFAFA"/>
<path d="M261.567 62.0719H199.402V115.817H261.567V62.0719Z" fill="#F5F5F5"/>
<path d="M261.573 115.811C261.573 115.811 261.573 115.467 261.573 114.813C261.573 114.158 261.573 113.193 261.573 111.935C261.573 109.415 261.573 105.734 261.534 101.036C261.534 91.6466 261.489 78.233 261.463 62.0719L261.605 62.2144H199.44L199.608 62.0459C199.608 81.5508 199.608 99.928 199.608 115.785L199.46 115.636L244.401 115.713L257.101 115.752H260.463H261.631H261.347H260.495H257.159L244.498 115.791L199.408 115.992H199.26V115.843C199.26 99.9864 199.26 81.6091 199.26 62.1043V61.9358H199.408H261.573H261.715V62.0784C261.683 78.2784 261.657 91.7244 261.638 101.133C261.638 105.812 261.638 109.486 261.605 112C261.605 113.244 261.605 114.197 261.605 114.851C261.605 115.506 261.573 115.811 261.573 115.811Z" fill="#263238"/>
<path d="M201.57 115.759C201.506 115.687 214.89 103.615 231.455 88.7889C248.021 73.9627 261.509 62.0006 261.573 62.0719C261.638 62.1431 248.253 74.2154 231.675 89.0416C215.096 103.868 201.628 115.823 201.57 115.759Z" fill="#263238"/>
<path d="M262.096 115.81C262.032 115.882 247.95 103.907 230.643 89.074C213.335 74.2413 199.344 62.1431 199.408 62.0718C199.473 62.0006 213.548 73.9691 230.868 88.8148C248.189 103.66 262.154 115.739 262.096 115.81Z" fill="#263238"/>
<path d="M369.641 126.256H316.581V172.128H369.641V126.256Z" fill="#EBEBEB"/>
<path d="M369.641 172.128C369.641 172.128 369.641 171.83 369.641 171.273C369.641 170.716 369.641 169.886 369.641 168.817C369.641 166.659 369.641 163.516 369.602 159.505C369.602 151.496 369.563 140.065 369.531 126.256L369.673 126.399H316.62L316.788 126.23C316.788 142.877 316.788 158.566 316.788 172.102L316.64 171.953L354.992 172.025L365.827 172.063H368.699H369.441H369.699H368.679H365.833L355.031 172.102L316.582 172.18H316.433V172.031C316.433 158.494 316.433 142.806 316.433 126.159V125.991H316.607H369.66H369.776V126.133C369.776 139.961 369.718 151.405 369.705 159.473C369.705 163.464 369.705 166.601 369.667 168.752C369.667 169.808 369.667 170.618 369.667 171.182C369.667 171.746 369.641 172.128 369.641 172.128Z" fill="#263238"/>
<path d="M318.427 172.076C318.369 172.012 329.785 161.708 343.924 149.04C358.063 136.372 369.583 126.185 369.641 126.256C369.699 126.328 358.289 136.624 344.144 149.293C329.998 161.961 318.492 172.148 318.427 172.076Z" fill="#263238"/>
<path d="M370.086 172.128C370.028 172.199 357.999 161.987 343.227 149.319C328.456 136.65 316.523 126.36 316.582 126.256C316.64 126.153 328.669 136.397 343.447 149.04C358.225 161.682 370.151 172.057 370.086 172.128Z" fill="#263238"/>
<path d="M94.2189 85.3156C94.2202 85.9003 94.0487 86.4722 93.7261 86.959C93.4036 87.4458 92.9444 87.8255 92.4068 88.0502C91.8692 88.2748 91.2773 88.3342 90.7061 88.221C90.1348 88.1077 89.6099 87.8268 89.1977 87.4138C88.7855 87.0008 88.5046 86.4743 88.3905 85.9009C88.2764 85.3276 88.3343 84.7331 88.5569 84.1928C88.7794 83.6525 89.1566 83.1906 89.6407 82.8656C90.1247 82.5407 90.6939 82.3672 91.2762 82.3672C92.0556 82.3672 92.8031 82.6776 93.3547 83.2304C93.9064 83.7831 94.2172 84.533 94.2189 85.3156Z" fill="#00AFDB"/>
<path d="M153.932 102.112H100.801V111.113H153.932V102.112Z" fill="#E0E0E0"/>
<path d="M94.2189 106.609C94.2189 107.193 94.0464 107.765 93.723 108.251C93.3997 108.737 92.9401 109.115 92.4024 109.339C91.8646 109.563 91.2729 109.621 90.7021 109.507C90.1313 109.393 89.6069 109.112 89.1954 108.698C88.7839 108.285 88.5036 107.759 88.39 107.185C88.2765 106.612 88.3348 106.018 88.5575 105.478C88.7802 104.938 89.1574 104.477 89.6413 104.152C90.1253 103.827 90.6942 103.654 91.2762 103.654C92.0567 103.654 92.8052 103.965 93.357 104.52C93.9089 105.074 94.2189 105.825 94.2189 106.609Z" fill="#E0E0E0"/>
<path d="M153.932 123.399H100.801V132.399H153.932V123.399Z" fill="#E0E0E0"/>
<path d="M94.2189 127.902C94.2189 128.487 94.0464 129.058 93.723 129.544C93.3997 130.03 92.9401 130.409 92.4024 130.632C91.8646 130.856 91.2729 130.914 90.7021 130.8C90.1313 130.686 89.6069 130.405 89.1954 129.992C88.7839 129.578 88.5036 129.052 88.39 128.479C88.2765 127.906 88.3348 127.311 88.5575 126.771C88.7802 126.232 89.1574 125.77 89.6413 125.445C90.1253 125.121 90.6942 124.947 91.2762 124.947C92.0567 124.947 92.8052 125.259 93.357 125.813C93.9089 126.367 94.2189 127.119 94.2189 127.902Z" fill="#00AFDB"/>
<path d="M153.932 144.692H100.801V153.693H153.932V144.692Z" fill="#E0E0E0"/>
<path d="M94.2189 149.189C94.2202 149.774 94.0487 150.346 93.7261 150.832C93.4036 151.319 92.9444 151.699 92.4068 151.924C91.8692 152.148 91.2773 152.208 90.7061 152.094C90.1348 151.981 89.6099 151.7 89.1977 151.287C88.7855 150.874 88.5046 150.348 88.3905 149.774C88.2764 149.201 88.3343 148.607 88.5569 148.066C88.7794 147.526 89.1566 147.064 89.6407 146.739C90.1247 146.414 90.6939 146.241 91.2762 146.241C92.0556 146.241 92.8031 146.551 93.3547 147.104C93.9064 147.657 94.2172 148.406 94.2189 149.189V149.189Z" fill="#E0E0E0"/>
<path d="M153.932 165.985H100.801V174.986H153.932V165.985Z" fill="#E0E0E0"/>
<path d="M94.2189 170.482C94.2189 171.067 94.0464 171.638 93.723 172.124C93.3997 172.61 92.9401 172.989 92.4024 173.212C91.8646 173.436 91.2729 173.494 90.7021 173.38C90.1313 173.266 89.6069 172.985 89.1954 172.572C88.7839 172.159 88.5036 171.632 88.39 171.059C88.2765 170.486 88.3348 169.892 88.5575 169.352C88.7802 168.812 89.1574 168.35 89.6413 168.025C90.1253 167.701 90.6942 167.527 91.2762 167.527C92.0567 167.527 92.8052 167.839 93.357 168.393C93.9089 168.947 94.2189 169.699 94.2189 170.482Z" fill="#E0E0E0"/>
<path d="M153.932 187.272H100.801V196.273H153.932V187.272Z" fill="#E0E0E0"/>
<path d="M94.2189 191.808C94.2189 192.392 94.0464 192.964 93.723 193.45C93.3997 193.936 92.9401 194.314 92.4024 194.538C91.8646 194.762 91.2729 194.82 90.7021 194.706C90.1313 194.592 89.6069 194.311 89.1954 193.897C88.7839 193.484 88.5036 192.958 88.39 192.385C88.2765 191.811 88.3348 191.217 88.5575 190.677C88.7802 190.137 89.1574 189.676 89.6413 189.351C90.1253 189.026 90.6942 188.853 91.2762 188.853C92.0567 188.853 92.8052 189.164 93.357 189.719C93.9089 190.273 94.2189 191.024 94.2189 191.808V191.808Z" fill="#00AFDB"/>
<path d="M303.52 171.96C303.52 171.96 303.52 171.882 303.52 171.739C303.52 171.597 303.52 171.37 303.52 171.091C303.52 170.521 303.52 169.692 303.52 168.622C303.52 166.458 303.52 163.309 303.481 159.311C303.481 151.321 303.436 139.955 303.41 126.418L303.559 126.567H265.187L265.355 126.399C265.355 143.247 265.355 158.87 265.323 171.934L265.187 171.791L292.995 171.862L300.784 171.901H302.842H303.559H302.875H300.842L293.098 171.934L265.2 172.012H265.058V171.869C265.058 158.805 265.058 143.15 265.058 126.334V126.166H265.226H303.597H303.746V126.315C303.714 139.923 303.688 151.288 303.668 159.304C303.668 163.283 303.636 166.432 303.63 168.584C303.63 169.64 303.63 170.456 303.63 171.02C303.63 171.286 303.63 171.493 303.63 171.668C303.63 171.843 303.52 171.96 303.52 171.96Z" fill="#263238"/>
<path d="M303.52 181.991H265.148V220.521H303.52V181.991Z" fill="#EBEBEB"/>
<path d="M372.222 183.766H312.974V222.296H372.222V183.766Z" fill="#EBEBEB"/>
<path d="M254.914 126.425H196.053V171.96H254.914V126.425Z" fill="#EBEBEB"/>
<path d="M253.468 220.521C253.468 220.521 253.468 220.268 253.468 219.782C253.468 219.296 253.468 218.583 253.468 217.657C253.468 215.784 253.468 213.049 253.436 209.55C253.436 202.552 253.397 192.514 253.365 180.28L253.5 180.416L194.646 180.449L194.814 180.28C194.814 194.64 194.814 208.28 194.814 220.521L194.659 220.372L237.057 220.443L249.17 220.489H252.397H253.52H253.249H252.435H249.241L237.16 220.527L194.659 220.605H194.504V220.45C194.504 208.209 194.504 194.569 194.504 180.209V180.144H194.678L253.533 180.176H253.616V180.313C253.584 192.579 253.565 202.649 253.545 209.667C253.545 213.153 253.545 215.875 253.513 217.741C253.513 218.655 253.513 219.361 253.513 219.847C253.513 220.333 253.468 220.521 253.468 220.521Z" fill="#263238"/>
<path d="M242.981 136.112C243.267 136.114 243.549 136.172 243.813 136.284C244.076 136.395 244.315 136.557 244.515 136.761C244.716 136.965 244.875 137.207 244.983 137.472C245.09 137.738 245.145 138.022 245.143 138.309V140.162L245.021 156.868C245.019 157.25 244.866 157.616 244.597 157.885C244.327 158.155 243.962 158.306 243.581 158.306L205.507 158.028C205.141 158.023 204.791 157.878 204.528 157.623C204.266 157.367 204.11 157.021 204.094 156.654L202.945 135.192C202.933 134.996 202.962 134.8 203.029 134.616C203.096 134.431 203.199 134.263 203.334 134.12C203.468 133.977 203.63 133.864 203.809 133.786C203.989 133.709 204.182 133.669 204.377 133.669L212.993 133.728C213.809 133.735 214.596 134.034 215.213 134.57L216.974 136.099L242.981 136.112Z" fill="#00AFDB"/>
<g opacity="0.3">
<path d="M242.981 136.112C243.267 136.114 243.549 136.172 243.813 136.284C244.076 136.395 244.315 136.557 244.515 136.761C244.716 136.965 244.875 137.207 244.983 137.472C245.09 137.738 245.145 138.022 245.143 138.309V140.162L245.021 156.868C245.019 157.25 244.866 157.616 244.597 157.885C244.327 158.155 243.962 158.306 243.581 158.306L205.507 158.028C205.141 158.023 204.791 157.878 204.528 157.623C204.266 157.367 204.11 157.021 204.094 156.654L202.945 135.192C202.933 134.996 202.962 134.8 203.029 134.616C203.096 134.431 203.199 134.263 203.334 134.12C203.468 133.977 203.63 133.864 203.809 133.786C203.989 133.709 204.182 133.669 204.377 133.669L212.993 133.728C213.809 133.735 214.596 134.034 215.213 134.57L216.974 136.099L242.981 136.112Z" fill="black"/>
</g>
<path d="M245.799 138.384L204.195 138.078L204.011 163.291L245.615 163.597L245.799 138.384Z" fill="#F5F5F5"/>
<path d="M200.867 140.318L203.854 166.633C203.878 166.858 203.983 167.066 204.15 167.217C204.317 167.369 204.533 167.454 204.758 167.456L245.311 167.754C245.542 167.756 245.766 167.67 245.936 167.512C246.107 167.354 246.211 167.137 246.227 166.905L248.453 140.616C248.465 140.488 248.45 140.36 248.41 140.238C248.37 140.117 248.305 140.005 248.219 139.91C248.134 139.815 248.029 139.739 247.913 139.687C247.797 139.634 247.671 139.606 247.544 139.605L201.777 139.268C201.645 139.269 201.516 139.297 201.397 139.352C201.277 139.407 201.171 139.487 201.085 139.586C200.999 139.686 200.935 139.802 200.897 139.928C200.86 140.055 200.849 140.187 200.867 140.318V140.318Z" fill="#00AFDB"/>
<path d="M321.991 131.157L321.945 175.053L376.624 175.11L376.67 131.215L321.991 131.157Z" fill="#EBEBEB"/>
<path d="M376.694 131.226H376.43H375.662H372.693H361.497H322.015L322.157 131.084C322.157 144.148 322.157 159.123 322.157 174.973L322.002 174.811L376.681 174.902L376.546 175.031C376.591 161.818 376.63 150.861 376.649 143.195C376.649 139.365 376.688 136.359 376.694 134.298C376.694 133.281 376.694 132.49 376.694 131.952C376.694 131.414 376.694 131.136 376.694 131.136C376.694 131.136 376.694 131.401 376.694 131.926C376.694 132.451 376.694 133.222 376.694 134.246C376.694 136.3 376.694 139.294 376.694 143.117C376.694 150.796 376.694 161.78 376.727 175.031V175.167H376.598L321.918 175.128H321.757V174.973C321.757 159.123 321.802 144.148 321.822 131.084V130.941H322.022L361.6 131.058L372.758 131.11H375.7H376.701L376.694 131.226Z" fill="#263238"/>
<path d="M323.872 133.926L323.832 172.294L374.672 172.348L374.712 133.98L323.872 133.926Z" fill="#00AFDB"/>
<path d="M323.861 172.303L341.64 148.47L352.623 163.406L360.09 155.436L374.694 172.361L323.861 172.303Z" fill="#00AFDB"/>
<path d="M357.308 145.567C357.307 146.361 357.071 147.138 356.63 147.798C356.19 148.458 355.564 148.972 354.832 149.274C354.101 149.577 353.296 149.656 352.52 149.499C351.744 149.343 351.032 148.959 350.473 148.396C349.915 147.834 349.535 147.117 349.382 146.338C349.229 145.558 349.309 144.75 349.613 144.017C349.917 143.283 350.431 142.656 351.09 142.216C351.748 141.776 352.522 141.541 353.314 141.543C353.839 141.543 354.359 141.648 354.844 141.851C355.329 142.054 355.77 142.35 356.141 142.724C356.512 143.098 356.806 143.541 357.006 144.029C357.206 144.516 357.309 145.039 357.308 145.567V145.567Z" fill="#00AFDB"/>
<g opacity="0.2">
<path d="M323.861 172.303L341.64 148.47L352.623 163.406L360.09 155.436L374.694 172.361L323.861 172.303Z" fill="black"/>
</g>
<g opacity="0.2">
<path d="M357.308 145.567C357.307 146.361 357.071 147.138 356.63 147.798C356.19 148.458 355.564 148.972 354.832 149.274C354.101 149.577 353.296 149.656 352.52 149.499C351.744 149.343 351.032 148.959 350.473 148.396C349.915 147.834 349.535 147.117 349.382 146.338C349.229 145.558 349.309 144.75 349.613 144.017C349.917 143.283 350.431 142.656 351.09 142.216C351.748 141.776 352.522 141.541 353.314 141.543C353.839 141.543 354.359 141.648 354.844 141.851C355.329 142.054 355.77 142.35 356.141 142.724C356.512 143.098 356.806 143.541 357.006 144.029C357.206 144.516 357.309 145.039 357.308 145.567V145.567Z" fill="black"/>
</g>
<path d="M191.527 65.5235L191.477 113.164L250.822 113.227L250.872 65.5859L191.527 65.5235Z" fill="#EBEBEB"/>
<path d="M250.88 65.6035H249.744H246.517H234.366H191.522L191.677 65.4479C191.677 79.6327 191.677 95.9039 191.638 113.082L191.464 112.907L250.834 113.005L250.692 113.147C250.738 98.807 250.776 86.9162 250.802 78.5959C250.802 74.4422 250.841 71.1763 250.854 68.9407C250.854 67.8304 250.854 66.9815 250.854 66.394C250.854 65.8173 250.854 65.5127 250.854 65.5127C250.854 65.5127 250.854 65.7979 250.854 66.3616C250.854 66.9254 250.854 67.7872 250.854 68.8823C250.854 71.1115 250.854 74.3644 250.854 78.5116C250.854 86.8449 250.854 98.7681 250.854 113.147V113.4H250.712L191.341 113.361H191.173V113.186C191.173 95.9882 191.225 79.7363 191.244 65.5516V65.4026H191.399L234.346 65.5257L246.459 65.5775H249.653H250.467L250.88 65.6035Z" fill="#263238"/>
<path d="M193.569 68.5324L193.526 110.173L248.702 110.231L248.745 68.5904L193.569 68.5324Z" fill="#00AFDB"/>
<path d="M193.535 110.179L212.837 84.3177L224.75 100.524L232.862 91.8734L248.705 110.238L193.535 110.179Z" fill="#00AFDB"/>
<path d="M229.842 81.162C229.841 82.0245 229.585 82.8673 229.106 83.5837C228.628 84.3002 227.949 84.8581 227.155 85.187C226.361 85.5159 225.487 85.601 224.645 85.4314C223.803 85.2619 223.03 84.8454 222.423 84.2346C221.817 83.6238 221.404 82.8461 221.238 81.9999C221.072 81.1537 221.159 80.277 221.489 79.4806C221.819 78.6842 222.376 78.0039 223.091 77.5258C223.806 77.0477 224.646 76.7932 225.505 76.7944C226.076 76.7953 226.64 76.9089 227.167 77.1289C227.693 77.3488 228.172 77.6708 228.574 78.0763C228.977 78.4819 229.296 78.9631 229.514 79.4926C229.731 80.022 229.843 80.5893 229.842 81.162V81.162Z" fill="#00AFDB"/>
<g opacity="0.2">
<path d="M193.535 110.179L212.837 84.3177L224.75 100.524L232.862 91.8734L248.705 110.238L193.535 110.179Z" fill="black"/>
</g>
<g opacity="0.2">
<path d="M229.842 81.162C229.841 82.0245 229.585 82.8673 229.106 83.5837C228.628 84.3002 227.949 84.8581 227.155 85.187C226.361 85.5159 225.487 85.601 224.645 85.4314C223.803 85.2619 223.03 84.8454 222.423 84.2346C221.817 83.6238 221.404 82.8461 221.238 81.9999C221.072 81.1537 221.159 80.277 221.489 79.4806C221.819 78.6842 222.376 78.0039 223.091 77.5258C223.806 77.0477 224.646 76.7932 225.505 76.7944C226.076 76.7953 226.64 76.9089 227.167 77.1289C227.693 77.3488 228.172 77.6708 228.574 78.0763C228.977 78.4819 229.296 78.9631 229.514 79.4926C229.731 80.022 229.843 80.5893 229.842 81.162V81.162Z" fill="black"/>
</g>
<path d="M246.556 113.4H250.176L250.512 108.482L251.086 104.153L250.944 97.2L254.429 100.952C254.745 101.421 254.938 101.963 254.99 102.527L255.591 115.817L255.752 121.5L249.395 125.654V118.889L247.905 117.288C246.978 116.212 246.495 114.821 246.556 113.4V113.4Z" fill="#BD8C83"/>
<path d="M254.338 108.475C253.477 107.014 252.486 105.635 251.376 104.354C251.038 103.915 250.611 103.553 250.124 103.291C249.878 103.165 249.601 103.112 249.326 103.137C249.051 103.162 248.789 103.265 248.569 103.434C248.357 103.666 248.221 103.959 248.179 104.272C248.137 104.585 248.193 104.903 248.337 105.183C248.638 105.736 249.026 106.237 249.485 106.667C249.947 107.101 250.264 107.666 250.395 108.287C250.401 108.881 250.303 109.471 250.105 110.03C249.897 110.977 249.932 111.962 250.208 112.892C250.483 113.821 250.99 114.665 251.68 115.344" fill="#BD8C83"/>
<path d="M251.68 115.344C251.68 115.344 251.48 115.111 251.17 114.696C250.732 114.072 250.421 113.367 250.254 112.622C250.132 112.114 250.084 111.59 250.112 111.067C250.159 110.466 250.276 109.872 250.46 109.298C250.554 108.959 250.582 108.605 250.544 108.255C250.485 107.889 250.343 107.541 250.131 107.237C249.724 106.622 249.144 106.162 248.737 105.572C248.532 105.296 248.398 104.973 248.35 104.632C248.302 104.401 248.328 104.16 248.422 103.943C248.516 103.726 248.675 103.544 248.876 103.421C249.077 103.298 249.312 103.241 249.547 103.257C249.782 103.273 250.006 103.362 250.189 103.511C250.684 103.834 251.121 104.239 251.48 104.71C251.854 105.144 252.19 105.559 252.486 105.941C253.087 106.713 253.532 107.361 253.842 107.814C253.986 108.056 254.15 108.286 254.332 108.501C254.232 108.234 254.102 107.98 253.945 107.743C253.549 107.073 253.118 106.424 252.654 105.799C252.364 105.404 252.009 104.976 251.667 104.503C251.295 103.992 250.834 103.553 250.305 103.207C249.991 103.029 249.633 102.946 249.273 102.967C249.077 102.974 248.886 103.024 248.712 103.114C248.538 103.204 248.386 103.33 248.266 103.486C248.065 103.83 247.975 104.228 248.007 104.625C248.04 105.023 248.193 105.401 248.447 105.708C248.892 106.356 249.473 106.81 249.847 107.374C250.034 107.636 250.16 107.937 250.215 108.255C250.253 108.565 250.228 108.88 250.144 109.181C249.964 109.778 249.855 110.393 249.821 111.015C249.778 112.358 250.213 113.672 251.047 114.722C251.179 114.888 251.324 115.044 251.48 115.188C251.602 115.305 251.68 115.344 251.68 115.344Z" fill="#896360"/>
<path d="M277.706 277.798L280.339 290.758C280.339 290.758 268.117 297.795 268.375 300.238L293.543 296.006L290.264 275.659L277.706 277.798Z" fill="#00AFDB"/>
<g opacity="0.3">
<path d="M277.706 277.798L280.339 290.758C280.339 290.758 268.117 297.795 268.375 300.238L293.543 296.006L290.264 275.659L277.706 277.798Z" fill="black"/>
</g>
<path d="M287.948 288.36C288.203 288.392 288.437 288.518 288.605 288.713C288.773 288.908 288.863 289.158 288.858 289.416C288.828 289.669 288.705 289.901 288.512 290.066C288.319 290.23 288.072 290.315 287.819 290.304C287.548 290.27 287.299 290.136 287.123 289.927C286.946 289.718 286.853 289.45 286.864 289.176C286.917 288.911 287.07 288.677 287.291 288.522C287.513 288.368 287.785 288.305 288.051 288.347" fill="#E0E0E0"/>
<path d="M293.562 296L293.156 293.965L269.156 298.78C269.156 298.78 268.117 299.46 268.375 300.231L293.562 296Z" fill="#263238"/>
<path d="M279.913 290.693C279.913 290.816 280.559 290.764 281.204 291.062C281.849 291.36 282.288 291.82 282.391 291.755C282.495 291.691 282.198 291.004 281.378 290.66C280.559 290.317 279.868 290.583 279.913 290.693Z" fill="#263238"/>
<path d="M277.454 292.248C277.454 292.378 278.009 292.494 278.519 292.948C279.029 293.401 279.236 293.933 279.358 293.907C279.481 293.881 279.442 293.168 278.803 292.611C278.164 292.054 277.435 292.112 277.454 292.248Z" fill="#263238"/>
<path d="M276.48 295.656C276.596 295.656 276.667 295.008 276.235 294.399C275.802 293.79 275.189 293.602 275.15 293.712C275.112 293.823 275.538 294.127 275.88 294.646C276.222 295.164 276.357 295.669 276.48 295.656Z" fill="#263238"/>
<path d="M279.636 287.673C279.707 287.777 280.242 287.511 280.927 287.44C281.611 287.368 282.217 287.498 282.256 287.381C282.295 287.265 281.707 286.915 280.881 287.006C280.055 287.096 279.558 287.582 279.636 287.673Z" fill="#263238"/>
<path d="M286.005 280.765L286.457 293.978C286.457 293.978 273.24 298.877 273.085 301.326L298.628 301.365L298.763 280.752L286.005 280.765Z" fill="#00AFDB"/>
<path d="M294.356 292.896C294.603 292.97 294.814 293.134 294.948 293.355C295.081 293.577 295.128 293.841 295.079 294.095C295.013 294.344 294.855 294.558 294.636 294.693C294.417 294.829 294.155 294.874 293.904 294.821C293.638 294.74 293.413 294.562 293.273 294.322C293.133 294.081 293.088 293.796 293.149 293.525C293.239 293.27 293.423 293.06 293.664 292.939C293.905 292.818 294.183 292.796 294.44 292.877" fill="#E0E0E0"/>
<path d="M298.628 301.365L298.563 299.285L274.099 300.024C274.099 300.024 272.956 300.516 273.085 301.32L298.628 301.365Z" fill="#263238"/>
<path d="M286.044 293.849C286.044 293.972 286.689 294.03 287.283 294.432C287.876 294.834 288.225 295.365 288.341 295.313C288.457 295.261 288.27 294.542 287.521 294.069C286.773 293.596 286.018 293.732 286.044 293.849Z" fill="#263238"/>
<path d="M283.366 294.957C283.333 295.08 283.875 295.294 284.301 295.818C284.727 296.343 284.843 296.914 284.947 296.907C285.05 296.901 285.153 296.194 284.618 295.546C284.082 294.898 283.366 294.84 283.366 294.957Z" fill="#263238"/>
<path d="M281.836 298.171C281.952 298.203 282.127 297.575 281.836 296.875C281.546 296.175 280.933 295.916 280.881 296.019C280.829 296.123 281.184 296.492 281.436 297.056C281.688 297.62 281.714 298.158 281.836 298.171Z" fill="#263238"/>
<path d="M286.276 290.822C286.328 290.939 286.921 290.764 287.605 290.822C288.289 290.881 288.857 291.095 288.896 290.991C288.935 290.887 288.431 290.434 287.605 290.388C286.779 290.343 286.211 290.725 286.276 290.822Z" fill="#263238"/>
<path d="M302.293 177.856L302.171 190.933L299.008 231.589C299.008 231.589 300.564 251.34 301.532 262.485C302.371 272.16 300.725 289.008 300.725 289.008L284.469 288.859L279.139 232.632L275.854 197.562L270.046 179.295L302.293 177.856Z" fill="#263238"/>
<path d="M262.179 181.505L262.05 234.608C262.041 237.315 262.524 240.001 263.477 242.533L278.093 281.349L278.829 283.941L288.561 281.666L282.075 178.2L262.179 181.505Z" fill="#263238"/>
<path d="M275.957 190.655C275.95 190.741 275.95 190.827 275.957 190.914C275.957 191.095 275.957 191.341 275.957 191.659C275.957 192.307 275.99 193.298 276.009 194.536C276.054 197.031 276.183 200.64 276.377 205.105C276.79 214.021 277.59 226.333 278.894 239.883C280.197 253.433 281.617 265.68 282.656 274.538C283.192 278.951 283.624 282.528 283.947 285.016C284.101 286.241 284.224 287.194 284.308 287.867C284.347 288.179 284.385 288.425 284.405 288.606C284.424 288.788 284.45 288.859 284.45 288.859C284.457 288.773 284.457 288.686 284.45 288.6C284.45 288.418 284.411 288.172 284.379 287.855C284.308 287.207 284.205 286.228 284.076 285.003C283.798 282.509 283.398 278.925 282.901 274.506C281.901 265.641 280.494 253.407 279.216 239.851C277.939 226.295 277.074 214.002 276.635 205.092C276.409 200.634 276.248 197.024 276.17 194.53C276.119 193.298 276.08 192.333 276.054 191.659C276.054 191.341 276.054 191.095 276.015 190.907C276.005 190.821 275.985 190.737 275.957 190.655V190.655Z" fill="#455A64"/>
<path d="M289.987 181.44C289.977 181.643 289.999 181.846 290.051 182.043C290.15 182.582 290.299 183.112 290.497 183.624C291.14 185.338 292.223 186.851 293.634 188.011C295.046 189.172 296.737 189.938 298.537 190.233C299.077 190.325 299.623 190.367 300.17 190.356C300.37 190.371 300.571 190.351 300.764 190.298C300.764 190.246 299.912 190.298 298.576 190.02C296.832 189.676 295.2 188.905 293.825 187.775C292.45 186.644 291.375 185.189 290.697 183.54C290.167 182.256 290.045 181.401 289.987 181.44Z" fill="#455A64"/>
<path d="M274.989 183.753C274.988 183.92 275.036 184.083 275.127 184.222C275.218 184.362 275.348 184.471 275.501 184.536C275.654 184.6 275.823 184.618 275.986 184.587C276.149 184.556 276.299 184.477 276.417 184.36C276.535 184.243 276.616 184.094 276.65 183.93C276.683 183.767 276.668 183.598 276.606 183.443C276.543 183.289 276.437 183.157 276.3 183.063C276.162 182.969 276.001 182.919 275.835 182.917C275.724 182.917 275.615 182.937 275.513 182.979C275.411 183.021 275.318 183.082 275.24 183.16C275.161 183.237 275.099 183.33 275.056 183.431C275.013 183.533 274.99 183.643 274.989 183.753V183.753Z" fill="#455A64"/>
<path d="M261.908 190.253C262.344 189.955 262.733 189.595 263.064 189.184C263.91 188.228 264.61 187.151 265.142 185.989C265.671 184.827 266.027 183.593 266.2 182.328C266.295 181.808 266.313 181.278 266.252 180.753C266.2 180.753 266.161 181.349 265.987 182.295C265.533 184.766 264.473 187.085 262.902 189.041C262.302 189.793 261.876 190.214 261.908 190.253Z" fill="#455A64"/>
<path d="M271.685 114.346C271.685 114.346 267.168 117.994 265.419 122.07C263.883 125.389 262.143 128.609 260.211 131.712L256.72 119.841L247.885 124.254C247.885 124.254 250.938 142.884 251.635 145.061C252.59 148.074 254.803 150.757 258.191 150.381C261.579 150.006 263.56 148.437 265.735 145.197L268.652 139.696L271.685 114.346Z" fill="#00AFDB"/>
<path d="M293.691 106.168C293.691 106.168 306.52 112.259 309.244 115.953C312.548 120.437 303.855 135.082 303.236 138.691C302.932 140.421 301.022 153.44 302.197 163.659C302.962 170.457 303.33 177.294 303.3 184.136L262.179 181.505C262.057 174.312 263.819 168.733 264.896 159.583L267.478 129.736L271.685 114.346L277.984 111.547L293.691 106.168Z" fill="#00AFDB"/>
<path d="M268.149 124.695C268.112 124.794 268.09 124.899 268.084 125.006C268.046 125.252 268.007 125.556 267.955 125.919C267.846 126.71 267.71 127.863 267.549 129.282C267.226 132.121 266.82 136.054 266.439 140.402C266.058 144.75 265.793 148.69 265.6 151.541C265.51 152.967 265.451 154.133 265.419 154.924C265.419 155.293 265.419 155.572 265.387 155.844C265.376 155.952 265.376 156.06 265.387 156.168C265.422 156.066 265.441 155.959 265.445 155.85C265.445 155.604 265.497 155.3 265.535 154.93C265.606 154.088 265.703 152.947 265.819 151.561C266.065 148.664 266.394 144.757 266.755 140.428C267.116 136.099 267.504 132.198 267.768 129.308C267.891 127.915 267.994 126.775 268.072 125.932C268.072 125.563 268.123 125.284 268.143 125.012C268.162 124.907 268.164 124.8 268.149 124.695Z" fill="#263238"/>
<path d="M299.131 127.202C299.189 127.202 299.131 126.347 299.376 125.006C299.69 123.263 300.426 121.624 301.52 120.235C302.614 118.846 304.032 117.749 305.649 117.042C306.888 116.497 307.733 116.355 307.72 116.297C307.52 116.291 307.32 116.315 307.127 116.368C306.593 116.474 306.07 116.63 305.565 116.834C303.876 117.502 302.393 118.607 301.266 120.037C300.14 121.466 299.41 123.169 299.15 124.973C299.07 125.514 299.039 126.06 299.06 126.606C299.055 126.807 299.079 127.008 299.131 127.202Z" fill="#263238"/>
<path d="M272.085 162.324C272.355 162.306 272.623 162.263 272.885 162.194C273.606 162.045 274.317 161.855 275.015 161.624C276.057 161.282 277.076 160.875 278.067 160.406C279.275 159.822 280.439 159.153 281.552 158.404C282.657 157.638 283.705 156.794 284.689 155.876C285.488 155.127 286.238 154.326 286.934 153.479C287.397 152.907 287.828 152.31 288.225 151.69C288.388 151.473 288.527 151.239 288.638 150.99C288.586 150.99 287.948 151.924 286.734 153.33C286.023 154.151 285.265 154.93 284.463 155.663C282.503 157.461 280.298 158.969 277.913 160.14C276.939 160.627 275.939 161.06 274.918 161.436C273.195 162 272.066 162.266 272.085 162.324Z" fill="#263238"/>
<g opacity="0.3">
<path d="M301.203 135.814C304.113 151.58 303.048 168.305 299.267 183.876L298.215 183.805C297.073 167.832 298.376 151.587 301.203 135.814Z" fill="black"/>
</g>
<path d="M300.564 186.993L300.318 190.596C300.318 190.596 297.589 192.087 296.621 193.11C295.653 194.134 292.858 199.558 292.858 199.558C293.118 199.801 293.454 199.944 293.808 199.963C294.162 199.982 294.511 199.875 294.794 199.662C295.527 198.751 296.19 197.784 296.776 196.772V196.772C297.028 196.717 297.289 196.727 297.537 196.8C297.784 196.873 298.009 197.007 298.191 197.19C298.374 197.373 298.507 197.599 298.58 197.848C298.653 198.096 298.663 198.359 298.608 198.612C298.266 200.225 297.873 202.105 297.866 202.357C297.86 202.61 296.292 204.178 295.104 205.306C294.947 205.457 294.841 205.655 294.803 205.871C294.766 206.087 294.797 206.309 294.893 206.505C294.99 206.702 295.146 206.862 295.339 206.963C295.533 207.065 295.753 207.101 295.969 207.068C296.059 207.049 296.142 207.004 296.208 206.939C296.208 206.939 296.098 208.656 298.421 207.25C298.421 207.25 300.506 207.723 301.506 206.518C301.506 206.518 304.087 206.116 304.965 205.358C305.843 204.599 307.766 196.798 307.766 196.798L308.817 188.503L300.564 186.993Z" fill="#BD8C83"/>
<path d="M300.983 199.454C301.05 199.923 301.05 200.399 300.983 200.867C300.917 202.007 300.588 203.116 300.022 204.107C299.365 205.045 298.475 205.793 297.441 206.278C297.04 206.519 296.604 206.699 296.15 206.809C296.503 206.514 296.888 206.259 297.299 206.051C298.245 205.523 299.062 204.79 299.693 203.906C300.23 202.946 300.574 201.889 300.706 200.796C300.75 200.34 300.843 199.89 300.983 199.454V199.454Z" fill="#896360"/>
<path d="M302.764 200.368C302.888 200.789 302.908 201.234 302.822 201.664C302.777 202.129 302.697 202.591 302.584 203.044C302.457 203.615 302.218 204.155 301.88 204.632C301.495 205.063 301.062 205.447 300.59 205.779L299.499 206.582C299.179 206.852 298.82 207.071 298.434 207.23C298.402 207.191 298.75 206.861 299.338 206.356C299.628 206.103 299.983 205.798 300.383 205.481C300.814 205.152 301.212 204.78 301.571 204.373C301.874 203.934 302.093 203.441 302.216 202.921C302.358 202.429 302.455 201.975 302.526 201.593C302.713 200.88 302.713 200.375 302.764 200.368Z" fill="#896360"/>
<path d="M304.733 201.593C304.875 201.593 304.539 203.018 304.029 204.658C303.954 204.883 303.823 205.086 303.648 205.247C303.508 205.392 303.359 205.529 303.203 205.656C302.943 205.869 302.665 206.057 302.371 206.219C301.867 206.498 301.512 206.563 301.493 206.518C301.474 206.472 301.79 206.323 302.235 205.999C302.496 205.813 302.746 205.611 302.984 205.397C303.119 205.273 303.261 205.144 303.39 205.001C303.522 204.875 303.624 204.72 303.687 204.548C303.939 203.712 304.197 202.979 304.384 202.442C304.464 202.145 304.581 201.86 304.733 201.593V201.593Z" fill="#896360"/>
<path d="M309.244 115.953C309.244 115.953 314.297 122.044 314.406 127.079C314.516 132.114 316.11 164.663 316.11 164.663L309.657 191.879L298.57 189.287L302.016 160.613L301.216 135.814L309.244 115.953Z" fill="#00AFDB"/>
<path d="M309.65 191.866C309.59 191.837 309.527 191.816 309.463 191.802L308.888 191.652L306.681 191.095L298.589 189.151L298.679 189.287L301.454 167.638C301.699 165.661 301.945 163.75 302.177 161.87C301.912 154.094 301.68 147.226 301.532 142.294C301.435 139.864 301.357 137.901 301.306 136.521C301.273 135.873 301.248 135.348 301.228 134.972C301.228 134.81 301.228 134.674 301.228 134.57C301.237 134.525 301.237 134.479 301.228 134.434C301.223 134.479 301.223 134.525 301.228 134.57V134.972C301.228 135.348 301.228 135.866 301.228 136.527C301.261 137.907 301.312 139.864 301.364 142.301C301.506 147.239 301.706 154.088 301.925 161.877C301.686 163.737 301.441 165.674 301.19 167.651C300.157 175.971 299.215 183.572 298.499 189.307V189.417H298.602L306.727 191.283L308.94 191.769L309.521 191.892C309.564 191.886 309.607 191.877 309.65 191.866V191.866Z" fill="#263238"/>
<g opacity="0.3">
<path d="M283.301 163.121C279.031 164.976 274.446 165.992 269.794 166.115C270.517 167.171 271.859 167.411 273.131 167.476C274.387 167.564 275.649 167.422 276.854 167.054C279.184 166.296 281.92 165.11 283.308 163.121" fill="black"/>
</g>
<g opacity="0.3">
<path d="M260.218 131.738C260.819 134.739 260.939 137.817 260.573 140.856C260.561 141.236 260.435 141.605 260.211 141.912C260.156 141.988 260.085 142.05 260.003 142.096C259.921 142.141 259.831 142.169 259.737 142.175C259.644 142.182 259.55 142.168 259.463 142.135C259.375 142.102 259.296 142.05 259.23 141.983C259.155 141.844 259.113 141.689 259.107 141.53C259.101 141.372 259.133 141.214 259.198 141.069C260.077 138.043 260.422 134.885 260.218 131.738Z" fill="black"/>
</g>
<path d="M266.929 81.8877C267.51 80.4881 269.143 79.4318 269.246 78.9912C269.523 77.8313 268.504 76.6001 268.852 75.4661C269.678 72.7963 271.84 73.1073 271.84 73.1073C272.802 71.8956 274.105 70.295 276.248 69.6989C278.577 69.0509 282.011 68.5454 284.108 69.7377C286.205 70.9301 287.754 71.7271 288.464 74.0469L274.17 100.31C272.473 99.5522 271.388 97.835 270.737 96.0854C270.085 94.3358 269.769 92.4761 269.052 90.7524C268.517 89.4564 269.052 87.4022 267.878 86.657C266.419 85.7174 266.394 83.1708 266.929 81.8877Z" fill="#263238"/>
<path d="M271.769 84.1427C271.901 81.2777 273.103 78.5677 275.137 76.5535C277.17 74.5393 279.885 73.3689 282.74 73.2758H283.327C289.677 73.4313 293.097 78.9328 292.762 85.3026L293.665 106.188L283.069 113.607C279.487 116.4 278.003 114.255 277.958 111.566L277.855 105.598C277.855 105.598 271.73 104.853 271.446 98.7422C271.298 95.7678 271.511 89.6637 271.769 84.1427Z" fill="#BD8C83"/>
<path d="M273.737 89.3656C273.744 89.5937 273.839 89.8103 274.001 89.9698C274.163 90.1294 274.381 90.2194 274.609 90.221C274.719 90.2253 274.83 90.2073 274.934 90.1681C275.038 90.1288 275.133 90.0691 275.214 89.9924C275.294 89.9157 275.359 89.8236 275.403 89.7216C275.448 89.6195 275.472 89.5095 275.473 89.398C275.468 89.1711 275.375 88.9552 275.213 88.7966C275.052 88.6379 274.835 88.5491 274.609 88.5491C274.498 88.5439 274.387 88.561 274.283 88.5995C274.178 88.638 274.083 88.697 274.002 88.773C273.92 88.8491 273.855 88.9407 273.81 89.0425C273.764 89.1443 273.74 89.2541 273.737 89.3656Z" fill="#263238"/>
<path d="M273.086 87.4087C273.202 87.5188 273.841 87.0069 274.776 86.981C275.712 86.955 276.416 87.3957 276.512 87.2791C276.609 87.1624 276.441 87.0263 276.138 86.8125C275.723 86.545 275.236 86.4137 274.744 86.4367C274.256 86.4497 273.786 86.6201 273.402 86.9227C273.124 87.1495 273.034 87.3633 273.086 87.4087Z" fill="#263238"/>
<path d="M282.159 89.3656C282.165 89.5937 282.26 89.8103 282.422 89.9698C282.585 90.1294 282.803 90.2194 283.03 90.221C283.141 90.2253 283.251 90.2073 283.355 90.1681C283.459 90.1288 283.554 90.0691 283.635 89.9924C283.715 89.9157 283.78 89.8236 283.825 89.7216C283.869 89.6195 283.893 89.5095 283.895 89.398C283.891 89.1706 283.798 88.9537 283.636 88.7947C283.474 88.6357 283.256 88.5474 283.03 88.5491C282.919 88.5439 282.808 88.561 282.704 88.5995C282.6 88.638 282.504 88.697 282.423 88.773C282.342 88.8491 282.277 88.9407 282.231 89.0425C282.186 89.1443 282.161 89.2541 282.159 89.3656V89.3656Z" fill="#263238"/>
<path d="M282.152 87.3957C282.262 87.5058 282.92 87.0134 283.856 87.0069C284.792 87.0004 285.482 87.467 285.586 87.3503C285.689 87.2337 285.521 87.0976 285.224 86.8838C284.817 86.6008 284.332 86.4535 283.837 86.4626C283.348 86.4644 282.873 86.6234 282.482 86.9162C282.198 87.1365 282.101 87.3438 282.152 87.3957Z" fill="#263238"/>
<path d="M279.223 94.0378C278.724 93.8992 278.21 93.8252 277.693 93.8174C277.454 93.8174 277.229 93.7591 277.183 93.5971C277.152 93.349 277.199 93.0972 277.319 92.8778C277.519 92.2882 277.738 91.6726 277.964 91.0246C278.855 88.3937 279.494 86.2293 279.39 86.1905C279.287 86.1516 278.474 88.2641 277.577 90.9014L276.964 92.7612C276.823 93.0557 276.789 93.3902 276.867 93.7073C276.904 93.7917 276.96 93.8662 277.03 93.9247C277.101 93.9833 277.184 94.0243 277.274 94.0442C277.406 94.0796 277.543 94.0949 277.68 94.0896C278.195 94.138 278.713 94.1206 279.223 94.0378V94.0378Z" fill="#263238"/>
<path d="M282.094 84.0909C282.223 84.3307 283.133 84.0909 284.237 84.0391C285.34 83.9872 286.269 84.1687 286.379 83.9224C286.424 83.7993 286.237 83.5855 285.85 83.3975C285.335 83.1604 284.77 83.0514 284.204 83.08C283.637 83.098 283.082 83.2513 282.585 83.5271C282.21 83.7475 282.01 83.9743 282.094 84.0909Z" fill="#263238"/>
<path d="M272.976 84.2724C273.169 84.4797 273.892 84.2335 274.77 84.1881C275.647 84.1428 276.396 84.2788 276.557 84.052C276.628 83.9419 276.506 83.728 276.177 83.5401C275.722 83.3101 275.215 83.2051 274.708 83.2358C274.2 83.2666 273.709 83.4319 273.285 83.7151C272.976 83.9484 272.872 84.1687 272.976 84.2724Z" fill="#263238"/>
<path d="M287.999 73.6127C288.015 74.2933 287.881 74.969 287.607 75.5916C287.333 76.2141 286.925 76.7681 286.412 77.2139C285.9 77.6597 285.296 77.9862 284.643 78.1703C283.99 78.3543 283.305 78.3912 282.636 78.2783C281.604 78.1098 280.462 77.6303 279.584 78.1746C278.706 78.7189 278.635 80.1899 277.816 80.9286C276.648 81.9849 274.738 81.0453 273.24 81.5183C272.079 81.8877 271.369 83.0152 270.607 83.9742C269.846 84.9333 268.704 85.8405 267.536 85.51C267.554 84.4547 267.691 83.4049 267.942 82.3801C268.203 81.3414 268.814 80.4254 269.672 79.7881C270.143 79.4641 270.704 79.2633 271.143 78.8939C272.098 78.0904 272.298 76.7231 272.879 75.615C273.261 74.905 273.805 74.2962 274.467 73.8388C275.129 73.3814 275.89 73.0885 276.686 72.9841C278.016 72.8286 279.384 73.2045 280.675 72.8545C281.623 72.5953 282.449 71.9603 283.417 71.7594C285.295 71.3641 287.07 72.6925 288.464 74.0274" fill="#263238"/>
<path d="M282.01 76.4121C282.849 76.1529 284.592 75.5762 285.011 74.831C285.453 74.0311 286.097 73.3628 286.88 72.894C287.662 72.4251 288.553 72.1723 289.464 72.1613C290.379 72.222 291.25 72.5777 291.948 73.1754C292.646 73.7732 293.132 74.5811 293.336 75.479C294.439 75.5003 295.517 75.8197 296.455 76.4035C297.393 76.9873 298.157 77.814 298.666 78.7968C299.193 79.8278 299.461 80.9722 299.447 82.1306C299.434 83.2891 299.139 84.4268 298.589 85.4453C298.238 85.9296 298.015 86.4962 297.944 87.0912C297.944 87.8429 298.512 88.4325 298.918 89.0352C300.015 90.72 299.97 93.0528 299.176 94.919C298.383 96.7853 297.808 97.4462 296.64 97.835C294.356 98.5997 294.097 101.827 293.22 102.734L291.884 89.5147C291.775 89.5809 291.655 89.627 291.529 89.6508C289.27 90.2081 288.903 85.7628 289.387 84.4668C288.517 83.7833 287.738 82.9906 287.07 82.1081C286.323 80.6981 285.937 79.1237 285.947 77.5267C285.14 77.6174 281.643 76.5223 282.01 76.4121Z" fill="#263238"/>
<path d="M291.575 89.6249C291.678 89.573 295.718 88.2382 295.73 92.4242C295.743 96.6103 291.549 95.755 291.542 95.6642C291.536 95.5735 291.575 89.6249 291.575 89.6249Z" fill="#BD8C83"/>
<path d="M292.813 94.0442C292.813 94.0442 292.884 94.0961 293.007 94.1544C293.181 94.2237 293.375 94.2237 293.549 94.1544C293.819 93.9831 294.038 93.7427 294.185 93.4579C294.331 93.1732 294.399 92.8544 294.382 92.5344C294.389 92.1757 294.318 91.8198 294.175 91.4911C294.135 91.3608 294.064 91.2421 293.969 91.1451C293.873 91.0481 293.756 90.9756 293.627 90.9338C293.543 90.9107 293.455 90.9183 293.377 90.9551C293.299 90.992 293.236 91.0557 293.201 91.1347C293.143 91.2513 293.201 91.3356 293.149 91.3421C293.097 91.3486 293.059 91.2708 293.091 91.1023C293.115 90.9986 293.171 90.9053 293.252 90.8366C293.359 90.7539 293.492 90.7125 293.627 90.72C293.798 90.7551 293.957 90.8329 294.09 90.9461C294.223 91.0594 294.326 91.2045 294.388 91.368C294.566 91.7303 294.655 92.1304 294.646 92.5344C294.667 92.9079 294.578 93.2793 294.39 93.6021C294.202 93.9249 293.923 94.1847 293.588 94.3488C293.479 94.378 293.365 94.3833 293.253 94.3642C293.142 94.3452 293.036 94.3024 292.943 94.2386C292.82 94.1479 292.801 94.0507 292.813 94.0442Z" fill="#896360"/>
<path d="M277.842 105.579C277.842 105.579 283.379 104.633 286.573 102.099C286.573 102.099 284.953 107.231 277.881 107.497L277.842 105.579Z" fill="#896360"/>
<path d="M281.656 94.6079C281.501 94.6079 281.533 95.6382 280.681 96.4029C279.829 97.1675 278.745 97.0897 278.745 97.2388C278.745 97.3878 278.997 97.4267 279.461 97.4267C280.067 97.4104 280.647 97.181 281.101 96.7787C281.534 96.3936 281.803 95.8548 281.849 95.2753C281.849 94.8282 281.727 94.6079 281.656 94.6079Z" fill="#263238"/>
<path d="M277.454 88.6464C277.422 88.6464 277.454 88.3159 277.274 87.7521C277.05 86.9726 276.576 86.2891 275.925 85.8081C275.397 85.4107 274.768 85.1688 274.111 85.1096C273.453 85.0504 272.792 85.1761 272.202 85.4727C271.612 85.7694 271.115 86.2252 270.768 86.7891C270.421 87.3531 270.237 88.0029 270.237 88.6658C270.237 89.3287 270.421 89.9785 270.768 90.5424C271.115 91.1064 271.612 91.5622 272.202 91.8588C272.792 92.1555 273.453 92.2812 274.111 92.222C274.768 92.1628 275.397 91.9209 275.925 91.5235C276.576 91.0431 277.051 90.3595 277.274 89.5795C277.429 89.0222 277.422 88.6917 277.454 88.6917C277.487 88.6917 277.454 88.7695 277.454 88.9315C277.457 89.1606 277.431 89.3892 277.377 89.6119C277.194 90.4558 276.721 91.2082 276.041 91.7373C275.639 92.0518 275.177 92.2821 274.685 92.4147C274.192 92.5473 273.678 92.5795 273.173 92.5095C272.668 92.4394 272.182 92.2685 271.743 92.0068C271.305 91.7451 270.923 91.3979 270.62 90.9856C270.13 90.3222 269.865 89.5179 269.865 88.6917C269.865 87.8655 270.13 87.0612 270.62 86.3978C270.923 85.9856 271.305 85.6384 271.743 85.3767C272.182 85.1149 272.668 84.944 273.173 84.874C273.678 84.8039 274.192 84.8361 274.685 84.9687C275.177 85.1014 275.639 85.3317 276.041 85.6461C276.719 86.174 277.192 86.9237 277.377 87.7651C277.431 87.99 277.457 88.2207 277.454 88.452C277.493 88.5621 277.493 88.6464 277.454 88.6464Z" fill="#455A64"/>
<path d="M287.121 88.7111C287.083 88.7111 287.121 88.3612 286.934 87.778C286.706 86.9536 286.208 86.2301 285.521 85.7239C284.969 85.3073 284.312 85.0535 283.624 84.9907C282.937 84.928 282.245 85.0589 281.627 85.3688C281.009 85.6786 280.49 86.1551 280.127 86.7449C279.763 87.3347 279.571 88.0145 279.571 88.7079C279.571 89.4014 279.763 90.0811 280.127 90.6709C280.49 91.2607 281.009 91.7372 281.627 92.0471C282.245 92.3569 282.937 92.4878 283.624 92.4251C284.312 92.3624 284.969 92.1085 285.521 91.692C286.208 91.1857 286.706 90.4622 286.934 89.6378C287.096 89.0546 287.083 88.7047 287.121 88.7111C287.16 88.7176 287.121 88.7954 287.121 88.9574C287.124 89.1972 287.098 89.4365 287.044 89.6702C286.849 90.5487 286.356 91.3319 285.65 91.8864C285.058 92.3458 284.35 92.6294 283.606 92.7051C282.862 92.7807 282.111 92.6454 281.44 92.3144C280.768 91.9834 280.203 91.4701 279.807 90.8326C279.411 90.1951 279.202 89.459 279.202 88.7079C279.202 87.9568 279.411 87.2207 279.807 86.5832C280.203 85.9458 280.768 85.4324 281.44 85.1014C282.111 84.7704 282.862 84.6351 283.606 84.7107C284.35 84.7864 285.058 85.0701 285.65 85.5295C286.356 86.0839 286.849 86.8672 287.044 87.7456C287.098 87.9793 287.124 88.2186 287.121 88.4584C287.173 88.6204 287.134 88.7111 287.121 88.7111Z" fill="#455A64"/>
<path d="M279.384 88.8472C279.319 88.9185 278.932 88.6463 278.384 88.6658C277.835 88.6852 277.454 88.9444 277.39 88.8796C277.325 88.8148 277.39 88.7241 277.59 88.588C277.824 88.4275 278.1 88.3417 278.384 88.3417C278.667 88.3417 278.944 88.4275 279.177 88.588C279.352 88.6917 279.429 88.8148 279.384 88.8472Z" fill="#455A64"/>
<path d="M291.31 89.6767C290.584 89.7008 289.86 89.591 289.174 89.3527C288.466 89.2205 287.777 89.003 287.122 88.7047C287.847 88.6769 288.571 88.7846 289.258 89.0222C289.966 89.1538 290.656 89.3736 291.31 89.6767V89.6767Z" fill="#455A64"/>
<path d="M299.764 133.579C299.764 133.669 292.555 134.188 283.63 134.726C274.705 135.264 267.497 135.626 267.497 135.536C267.497 135.445 274.712 134.927 283.63 134.389C292.549 133.851 299.757 133.488 299.764 133.579Z" fill="white"/>
<path d="M314.077 130.352C311.919 130.667 309.745 130.868 307.566 130.954C303.965 131.188 301.042 131.304 301.035 131.214C303.194 130.903 305.367 130.704 307.547 130.617C309.718 130.418 311.897 130.329 314.077 130.352V130.352Z" fill="white"/>
<path d="M267.497 131.881C265.487 131.494 263.526 130.883 261.65 130.06C262.666 130.202 263.664 130.454 264.625 130.812C265.619 131.06 266.582 131.419 267.497 131.881Z" fill="white"/>
<path d="M123.904 212.453C117.773 203.038 118.006 189.274 125.33 180.76C127.602 178.122 130.777 175.822 134.242 176.12C137.708 176.418 140.644 179.477 141.728 182.885C142.812 186.294 142.432 189.981 141.799 193.499C140.909 198.424 139.424 203.466 135.991 207.107C132.558 210.749 128.247 214.831 123.878 212.434" fill="#00AFDB"/>
<path d="M126.647 257.457C125.546 254.719 125.33 251.702 126.031 248.835C126.732 245.967 128.313 243.393 130.551 241.477C131.964 240.324 133.778 239.43 135.565 239.896C137.353 240.363 138.559 242.209 138.792 244.063C138.93 245.936 138.613 247.815 137.869 249.538C136.966 252.001 135.746 254.457 133.661 256.018C131.577 257.58 128.667 259.077 126.627 257.444" fill="#00AFDB"/>
<path d="M111.862 254.223C113.546 245.877 109.171 236.669 101.646 232.736C99.3103 231.517 96.4321 230.792 94.0766 231.977C91.7212 233.163 90.5144 236.144 90.7015 238.846C90.8887 241.548 92.1858 244.03 93.612 246.331C95.6125 249.571 98.0648 252.675 101.479 254.288C104.892 255.902 109.455 257.146 111.862 254.223" fill="#00AFDB"/>
<path d="M112.933 231.653C115.87 222.147 110.894 210.613 102.608 205.157C100.027 203.466 96.8001 202.286 93.9025 203.388C91.005 204.489 89.2626 207.807 89.1722 210.976C89.0819 214.145 90.2887 217.184 91.6826 220.048C93.6186 224.027 96.116 227.947 99.9041 230.234C103.692 232.522 109.804 234.77 112.946 231.679" fill="#00AFDB"/>
<path d="M118.819 278.141C118.772 277.991 118.739 277.837 118.722 277.681L118.528 276.385C118.49 276.093 118.444 275.737 118.393 275.426C118.341 275.115 118.257 274.694 118.18 274.292C118.025 273.482 117.864 272.555 117.599 271.551C117.476 271.045 117.347 270.514 117.218 269.963C117.089 269.412 116.896 268.855 116.721 268.266C116.405 267.086 115.941 265.868 115.502 264.565C113.446 258.958 110.627 253.663 107.125 248.832C106.286 247.75 105.531 246.681 104.725 245.767L103.589 244.413L102.485 243.214C101.795 242.436 101.117 241.795 100.549 241.218L99.6976 240.408L98.9748 239.76L97.981 238.866C97.8595 238.766 97.7492 238.653 97.6519 238.529C97.7903 238.602 97.9183 238.694 98.0326 238.801L99.078 239.643L99.8266 240.259C100.085 240.505 100.369 240.764 100.672 241.043C101.272 241.607 101.963 242.242 102.679 242.987L103.808 244.173L104.963 245.514C105.79 246.428 106.557 247.491 107.409 248.579C110.967 253.411 113.811 258.734 115.85 264.384C116.283 265.68 116.734 266.931 117.044 268.123C117.205 268.713 117.367 269.283 117.515 269.834C117.664 270.384 117.76 270.922 117.877 271.434C118.122 272.452 118.264 273.378 118.399 274.201C118.464 274.609 118.528 274.992 118.586 275.342C118.645 275.692 118.651 275.99 118.683 276.314C118.735 276.858 118.774 277.299 118.806 277.649C118.827 277.812 118.831 277.977 118.819 278.141Z" fill="#263238"/>
<path d="M118.606 279.845C118.597 279.783 118.597 279.72 118.606 279.657C118.606 279.508 118.606 279.327 118.644 279.107C118.69 278.588 118.754 277.882 118.838 276.994C118.883 276.534 118.935 276.022 118.986 275.471C119.038 274.92 119.045 274.298 119.077 273.65C119.128 272.354 119.251 270.858 119.206 269.212C119.206 268.389 119.206 267.527 119.206 266.62C119.206 265.712 119.116 264.792 119.07 263.827C119.006 261.883 118.741 259.842 118.509 257.677C117.305 248.309 114.608 239.196 110.52 230.688C109.539 228.744 108.648 226.884 107.648 225.225C107.164 224.389 106.725 223.566 106.248 222.808L104.854 220.631C104.002 219.225 103.092 218.039 102.337 216.983C101.956 216.451 101.614 215.952 101.272 215.505L100.323 214.307L99.0328 212.648L98.6972 212.207C98.6262 212.103 98.5875 212.052 98.594 212.045C98.6004 212.039 98.6456 212.084 98.7295 212.175L99.0909 212.589L100.465 214.209C100.762 214.566 101.111 214.961 101.446 215.389C101.782 215.816 102.143 216.322 102.537 216.847C103.311 217.909 104.241 219.076 105.118 220.476L106.538 222.64C107.022 223.398 107.467 224.227 107.964 225.057C108.977 226.716 109.9 228.582 110.875 230.526C112.917 234.799 114.632 239.223 116.005 243.758C117.314 248.312 118.278 252.958 118.89 257.658C119.116 259.829 119.361 261.889 119.412 263.833C119.451 264.805 119.529 265.738 119.529 266.639C119.529 267.54 119.529 268.402 119.529 269.231C119.529 270.883 119.412 272.374 119.341 273.683C119.296 274.331 119.27 274.946 119.219 275.504C119.167 276.061 119.09 276.566 119.032 277.026C118.922 277.921 118.832 278.621 118.761 279.139C118.728 279.359 118.703 279.534 118.683 279.683C118.666 279.741 118.64 279.796 118.606 279.845Z" fill="#263238"/>
<path d="M134.565 187.492C134.542 187.553 134.514 187.611 134.481 187.667L134.223 188.16L133.171 190.039C132.945 190.447 132.674 190.888 132.416 191.393L131.596 193.052C131.299 193.648 130.983 194.277 130.654 194.951C130.325 195.625 130.009 196.37 129.693 197.128C129.376 197.886 128.996 198.69 128.654 199.532C128.312 200.375 128.008 201.269 127.634 202.183L127.098 203.582C126.937 204.062 126.776 204.554 126.608 205.047C126.272 206.036 125.93 207.055 125.582 208.105C124.291 212.324 123.052 217.022 122.013 222.011C120.974 227.001 120.297 231.816 119.774 236.203C119.251 240.589 118.999 244.562 118.909 247.905C118.825 249.577 118.806 251.087 118.799 252.441C118.793 253.796 118.799 254.91 118.799 255.843C118.799 256.777 118.799 257.47 118.832 257.995C118.832 258.222 118.832 258.41 118.832 258.559C118.841 258.623 118.841 258.689 118.832 258.753C118.825 258.688 118.825 258.623 118.832 258.559C118.832 258.41 118.832 258.228 118.793 258.001C118.793 257.476 118.735 256.757 118.69 255.85C118.644 254.943 118.619 253.77 118.619 252.441C118.619 251.113 118.619 249.597 118.664 247.905C118.715 244.555 119.019 240.577 119.445 236.17C119.871 231.764 120.645 226.949 121.658 221.914C122.671 216.879 123.943 212.194 125.266 207.976C125.627 206.932 125.975 205.909 126.311 204.917C126.485 204.425 126.653 203.932 126.814 203.453L127.363 202.053L128.408 199.403C128.757 198.56 129.131 197.763 129.467 196.999C129.802 196.234 130.112 195.508 130.461 194.828L131.435 192.936L132.287 191.29C132.558 190.791 132.842 190.35 133.074 189.948L134.191 188.101L134.487 187.628C134.52 187.538 134.558 187.486 134.565 187.492Z" fill="#263238"/>
<path d="M132.481 245.262C132.292 245.658 132.076 246.041 131.835 246.409C131.384 247.128 130.771 248.191 130.048 249.525C129.325 250.86 128.531 252.474 127.725 254.308C126.918 256.142 126.163 258.196 125.472 260.412C124.782 262.628 124.291 264.773 123.904 266.736C123.517 268.7 123.259 270.495 123.13 272.005C123.001 273.514 122.891 274.739 122.859 275.582C122.854 276.016 122.817 276.449 122.749 276.878C122.699 276.447 122.682 276.014 122.697 275.582C122.697 274.726 122.697 273.495 122.852 271.979C122.992 270.197 123.22 268.424 123.536 266.665C123.94 264.515 124.459 262.389 125.092 260.295C125.744 258.209 126.511 256.16 127.389 254.159C128.113 252.527 128.918 250.933 129.803 249.383C130.558 248.087 131.216 247.018 131.7 246.324C131.928 245.948 132.19 245.592 132.481 245.262V245.262Z" fill="#263238"/>
<path d="M106.783 273.903H133.707L130.448 301.514H110.132L106.783 273.903Z" fill="#455A64"/>
<path d="M107.764 298.534L110.049 301.514H130.448L132.803 298.631L107.764 298.534Z" fill="#263238"/>
<path d="M132.661 282.023C132.661 282.133 127.073 282.223 120.18 282.223C113.288 282.223 107.7 282.133 107.7 282.023C107.7 281.912 113.288 281.822 120.18 281.822C127.073 281.822 132.661 281.912 132.661 282.023Z" fill="#FAFAFA"/>
<path d="M132.661 283.863C132.661 283.973 127.073 284.064 120.18 284.064C113.288 284.064 107.7 283.973 107.7 283.863C107.7 283.753 113.288 283.662 120.18 283.662C127.073 283.662 132.661 283.753 132.661 283.863Z" fill="#FAFAFA"/>
<path d="M132.326 285.638C132.326 285.755 126.931 285.846 120.277 285.846C113.624 285.846 108.235 285.755 108.235 285.638C108.235 285.522 113.63 285.438 120.277 285.438C126.924 285.438 132.326 285.528 132.326 285.638Z" fill="#FAFAFA"/>
<path d="M110.894 214.384C110.907 214.47 110.907 214.558 110.894 214.644C110.894 214.851 110.856 215.097 110.83 215.395C110.759 216.089 110.668 217.015 110.552 218.149C110.307 220.469 109.952 223.677 109.539 227.221C109.539 227.357 109.507 227.493 109.494 227.617V227.733H109.378C105.919 227.792 102.802 227.824 100.556 227.837H97.8973H97.1745C97.0909 227.845 97.0065 227.845 96.9229 227.837C96.9229 227.837 97.0067 227.837 97.1745 227.837L97.8973 227.798L100.55 227.714C102.802 227.655 105.912 227.591 109.371 227.532L109.242 227.655C109.242 227.532 109.242 227.396 109.287 227.26C109.7 223.722 110.088 220.521 110.385 218.188C110.533 217.067 110.656 216.14 110.746 215.447C110.791 215.149 110.823 214.909 110.856 214.702C110.856 214.595 110.869 214.488 110.894 214.384V214.384Z" fill="#263238"/>
<path d="M104.77 206.122C104.785 206.212 104.785 206.304 104.77 206.394C104.77 206.602 104.77 206.861 104.77 207.172C104.77 207.885 104.77 208.85 104.77 210.023C104.731 212.427 104.667 215.752 104.577 219.419C104.577 219.568 104.577 219.717 104.577 219.853V219.996H104.435C101.429 219.767 98.4129 219.7 95.3999 219.795C94.2448 219.828 93.3155 219.879 92.6702 219.912H91.9281C91.8422 219.92 91.7558 219.92 91.6699 219.912C91.6699 219.912 91.7538 219.912 91.9216 219.86L92.6637 219.776C93.3091 219.711 94.2384 219.633 95.3935 219.568C98.4197 219.418 101.452 219.459 104.473 219.691L104.331 219.828C104.331 219.691 104.331 219.542 104.331 219.393C104.422 215.726 104.519 212.401 104.602 209.997C104.648 208.824 104.686 207.865 104.712 207.146C104.712 206.842 104.744 206.582 104.757 206.375C104.754 206.291 104.758 206.206 104.77 206.122Z" fill="#263238"/>
<path d="M97.6067 203.31C97.6864 203.57 97.7425 203.837 97.7745 204.107L98.1746 206.278C98.5231 208.112 99.0652 210.645 99.8396 213.406L99.917 213.697L99.646 213.561L99.3233 213.406C97.0607 212.318 94.6371 211.607 92.1472 211.3C91.1921 211.183 90.4113 211.138 89.8692 211.118C89.5889 211.122 89.3086 211.107 89.0303 211.073C89.0303 211.073 89.1077 211.073 89.2497 211.041C89.3917 211.008 89.6046 211.041 89.895 211.041C90.6619 211.027 91.429 211.057 92.1924 211.131C94.709 211.39 97.1614 212.087 99.4395 213.192L99.7686 213.354L99.575 213.51C98.9219 211.148 98.392 208.753 97.9875 206.336C97.8326 205.416 97.7294 204.664 97.6713 204.146C97.6247 203.87 97.6031 203.59 97.6067 203.31V203.31Z" fill="#263238"/>
<path d="M135.63 253.66C135.63 253.699 134.849 253.621 133.597 253.569C131.963 253.506 130.326 253.56 128.699 253.731C128.312 253.77 127.931 253.822 127.57 253.867H127.441V253.737C127.15 252.104 126.905 250.666 126.744 249.629C126.63 249.08 126.559 248.524 126.531 247.964C126.698 248.498 126.828 249.044 126.918 249.597C127.124 250.621 127.402 252.059 127.705 253.692L127.55 253.582C127.918 253.53 128.299 253.478 128.686 253.439C130.314 253.27 131.953 253.246 133.584 253.368C134.23 253.42 134.726 253.485 135.075 253.537C135.265 253.547 135.453 253.589 135.63 253.66V253.66Z" fill="#263238"/>
<path d="M138.172 248.579C138.172 248.625 137.424 248.45 136.204 248.301C134.617 248.106 133.013 248.089 131.422 248.249L130.577 248.359H130.441V248.216C130.267 246.538 130.132 245.048 130.048 243.978C129.975 243.405 129.945 242.826 129.957 242.248C130.088 242.811 130.176 243.383 130.222 243.959C130.357 245.022 130.532 246.506 130.706 248.19L130.551 248.067L131.409 247.957C133.019 247.788 134.644 247.832 136.243 248.087C136.888 248.19 137.34 248.301 137.675 248.391C137.848 248.434 138.015 248.497 138.172 248.579V248.579Z" fill="#263238"/>
<path d="M139.999 200.511C139.915 200.564 139.826 200.609 139.734 200.647L138.947 200.997L136.03 202.247L126.388 206.258L125.866 206.472L125.743 206.524L125.691 206.401L121.613 197.161L120.413 194.361L120.103 193.603C120.032 193.422 120 193.331 120.013 193.324C120.064 193.405 120.109 193.489 120.148 193.577C120.245 193.771 120.367 194.018 120.509 194.322L121.8 197.083C122.871 199.454 124.33 202.688 125.95 206.291L125.775 206.22L126.298 206.006L135.978 202.066L138.921 200.899L139.727 200.595C139.813 200.554 139.905 200.525 139.999 200.511Z" fill="#263238"/>
<path d="M142.361 188.827C142.29 188.897 142.209 188.956 142.122 189.002L141.412 189.462L138.786 191.108L130.016 196.48L129.874 196.564L129.815 196.409L129.661 195.981C128.228 192.093 126.937 188.607 125.982 186.028C125.537 184.771 125.169 183.747 124.898 182.995L124.614 182.166C124.575 182.072 124.549 181.974 124.537 181.874C124.589 181.96 124.633 182.051 124.666 182.146C124.756 182.362 124.866 182.634 124.995 182.963L126.163 185.976C127.137 188.568 128.454 192.048 129.912 195.91L130.074 196.331L129.874 196.266L138.689 190.966L141.36 189.391L142.096 188.976C142.179 188.917 142.267 188.867 142.361 188.827Z" fill="#263238"/>
<path d="M141.586 182.6C141.401 182.727 141.207 182.84 141.005 182.937C140.631 183.151 140.083 183.462 139.418 183.87C137.656 184.965 136.02 186.251 134.539 187.706L134.197 188.037L134.313 187.577C134.43 187.091 134.539 186.585 134.623 186.06C134.989 183.655 134.855 181.199 134.229 178.848C134.037 178.136 133.807 177.435 133.539 176.749C133.424 176.503 133.327 176.25 133.249 175.99C133.403 176.215 133.533 176.457 133.636 176.71C133.944 177.386 134.205 178.083 134.417 178.796C135.097 181.166 135.256 183.655 134.881 186.093C134.791 186.631 134.681 187.149 134.559 187.635L134.333 187.505C135.834 186.044 137.507 184.771 139.315 183.715C139.96 183.319 140.554 183.028 140.947 182.846C141.15 182.739 141.364 182.656 141.586 182.6V182.6Z" fill="#263238"/>
<path d="M110.862 243.22C110.837 243.457 110.794 243.691 110.733 243.92C110.642 244.367 110.507 245.015 110.358 245.819C109.972 247.936 109.731 250.077 109.636 252.228V252.351H109.513L108.913 252.383C106.241 252.545 103.821 252.681 102.072 252.759L100.001 252.843C99.7454 252.867 99.4884 252.867 99.2329 252.843C99.4833 252.787 99.7381 252.752 99.9944 252.739L102.059 252.571C103.808 252.441 106.222 252.279 108.894 252.117L109.5 252.085L109.371 252.215C109.463 250.053 109.735 247.903 110.184 245.786C110.352 244.983 110.52 244.335 110.642 243.894C110.69 243.662 110.763 243.436 110.862 243.22V243.22Z" fill="#263238"/>
<path d="M105.57 235.606C105.574 235.843 105.559 236.079 105.525 236.313C105.467 236.812 105.396 237.453 105.306 238.257C105.112 239.883 104.822 242.145 104.48 244.678V244.788H104.363L103.499 244.847C100.762 245.028 98.2972 245.313 96.5161 245.547L94.4058 245.832C94.1482 245.88 93.887 245.906 93.625 245.91C93.8726 245.825 94.1276 245.765 94.3865 245.728C94.8834 245.624 95.5997 245.495 96.4838 245.352C98.2649 245.074 100.737 244.756 103.479 244.568L104.35 244.516L104.221 244.633C104.57 242.099 104.867 239.844 105.138 238.224C105.254 237.453 105.357 236.812 105.435 236.28C105.456 236.051 105.501 235.826 105.57 235.606Z" fill="#263238"/>
<path d="M99.3364 232.328C99.3816 232.328 99.2138 233.066 99.0202 234.272C98.7678 235.856 98.6233 237.456 98.5878 239.06V239.209H98.433L97.9812 239.151C96.2935 238.951 94.5954 238.851 92.896 238.853H91.3536C91.1628 238.875 90.9701 238.875 90.7793 238.853C90.9639 238.798 91.1548 238.767 91.3472 238.762C91.7086 238.723 92.2377 238.684 92.896 238.658C94.6071 238.596 96.3204 238.67 98.0199 238.879L98.4717 238.944L98.3168 239.073C98.3524 237.456 98.5273 235.845 98.8395 234.259C98.9621 233.656 99.0783 233.176 99.1686 232.846C99.2015 232.666 99.2579 232.492 99.3364 232.328V232.328Z" fill="#263238"/>
<path d="M134.817 239.942C134.472 240.879 134.072 241.794 133.616 242.683C133.242 243.609 132.811 244.512 132.326 245.385C132.884 243.456 133.726 241.621 134.823 239.942H134.817Z" fill="#263238"/>
<path d="M138.198 243.544C137.167 243.7 136.145 243.916 135.139 244.192C134.158 244.546 133.197 244.955 132.261 245.417C133.936 244.068 136.058 243.408 138.198 243.57V243.544Z" fill="#263238"/>
<path d="M446.1 301.443C446.1 301.534 354.714 301.612 242.013 301.612C129.312 301.612 37.9004 301.534 37.9004 301.443C37.9004 301.352 129.267 301.275 242.013 301.275C354.759 301.275 446.1 301.32 446.1 301.443Z" fill="#263238"/>
</svg>
