<svg width="423" height="282" viewBox="0 0 423 282" fill="none" xmlns="http://www.w3.org/2000/svg">
<path d="M30.3433 112.095C31.3144 111.509 32.3596 111.056 33.4509 110.747L34.0883 107.679L39.2771 107.583L40.0441 110.634C41.1436 110.904 42.202 111.319 43.1912 111.869L45.8138 110.177L49.5475 113.787L47.9232 116.466C48.509 117.435 48.9623 118.478 49.2711 119.568L52.3393 120.211L52.4352 125.4L49.3839 126.144C49.1156 127.246 48.7001 128.306 48.1488 129.297L49.8408 131.92L46.2481 135.625L43.5691 134.001C42.5987 134.584 41.5558 135.038 40.4671 135.349L39.8241 138.417L34.6353 138.507L33.8909 135.462C32.7891 135.191 31.7286 134.774 30.7381 134.221L28.1099 135.924L24.3762 132.32L26.0005 129.641C25.4169 128.669 24.9637 127.624 24.6525 126.533L21.5844 125.896L21.4941 120.707L24.5397 119.957C24.8116 118.858 25.2269 117.8 25.7749 116.81L24.0829 114.187L27.6869 110.454L30.3659 112.078L30.3433 112.095ZM33.1125 119.004C32.351 119.797 31.8414 120.798 31.6479 121.88C31.4545 122.963 31.5859 124.078 32.0256 125.086C32.4653 126.093 33.1936 126.948 34.1186 127.543C35.0436 128.137 36.1239 128.444 37.2232 128.425C38.3225 128.407 39.3917 128.063 40.2958 127.437C41.1998 126.811 41.8984 125.932 42.3033 124.91C42.7082 123.887 42.8013 122.768 42.5709 121.693C42.3404 120.618 41.7968 119.635 41.0085 118.869C40.4823 118.357 39.8601 117.954 39.1777 117.684C38.4953 117.414 37.7662 117.281 37.0324 117.294C36.2985 117.306 35.5744 117.464 34.9017 117.757C34.2289 118.051 33.6209 118.475 33.1125 119.004V119.004Z" fill="#EBEBEB"/>
<path d="M37.9854 36.9871C38.9565 36.4012 40.0017 35.9479 41.093 35.6391L41.736 32.5653L46.9248 32.4751L47.6693 35.532C48.7682 35.8058 49.8263 36.223 50.8164 36.7728L53.439 35.0526L57.1727 38.6622L55.5483 41.3412C56.1341 42.3104 56.5875 43.3536 56.8963 44.4432L59.9701 45.0861L60.0603 50.2749L57.0091 51.0194C56.7398 52.1117 56.3243 53.1627 55.774 54.144L57.466 56.7722L53.8563 60.5059L51.1773 58.8759C50.2094 59.464 49.1658 59.9175 48.0753 60.2239L47.4324 63.2977L42.2436 63.3879L41.5273 60.348C40.4263 60.0751 39.3662 59.6579 38.3746 59.1072L35.752 60.7992L32.0183 57.1952L33.6482 54.5106C33.0607 53.5416 32.6054 52.4983 32.2946 51.4086L29.2265 50.7713L29.1362 45.5825L32.1818 44.8323C32.4565 43.7498 32.8738 42.7086 33.4226 41.736L31.7306 39.1134L35.3064 35.3628L37.9854 36.9871ZM40.7546 43.9017C39.9937 44.6954 39.4848 45.6965 39.2921 46.779C39.0995 47.8615 39.2317 48.9768 39.6721 49.9842C40.1125 50.9917 40.8414 51.8461 41.7668 52.4398C42.6923 53.0335 43.7728 53.3398 44.8721 53.3202C45.9714 53.3006 47.0403 52.9558 47.9439 52.3295C48.8475 51.7031 49.5455 50.8232 49.9496 49.8007C50.3538 48.7782 50.4461 47.6589 50.2149 46.584C49.9838 45.5091 49.4394 44.5267 48.6506 43.7607C48.1244 43.2487 47.502 42.846 46.8194 42.5758C46.1367 42.3055 45.4073 42.1731 44.6733 42.1863C43.9392 42.1994 43.215 42.3577 42.5424 42.6521C41.8698 42.9466 41.2622 43.3713 40.7546 43.9017V43.9017Z" fill="#EBEBEB"/>
<path d="M151.231 66.1178C152.401 65.4093 153.661 64.861 154.976 64.4878L155.749 60.7767L162.015 60.6696L162.917 64.3468C164.245 64.6731 165.524 65.1758 166.719 65.8414L169.888 63.7659L174.4 68.12L172.438 71.3574C173.144 72.5283 173.692 73.7875 174.068 75.1023L177.773 75.875L177.886 82.141L174.203 83.0434C173.879 84.3724 173.376 85.6512 172.708 86.8448L174.784 90.0145L170.435 94.5265L167.198 92.5638C166.025 93.27 164.764 93.8181 163.447 94.1937L162.675 97.8992L156.409 98.012L155.506 94.3291C154.178 94.0033 152.9 93.5006 151.705 92.8345L148.541 94.91L144.029 90.5559L145.992 87.3186C145.282 86.1493 144.734 84.8896 144.362 83.5736L140.651 82.8009L140.543 76.5349L144.221 75.6325C144.551 74.3057 145.054 73.0278 145.715 71.8311L143.64 68.6671L147.994 64.1551L151.231 66.1234V66.1178ZM154.57 74.4481C153.647 75.4045 153.027 76.6132 152.791 77.9215C152.554 79.2297 152.711 80.5788 153.241 81.7981C153.771 83.0173 154.65 84.0521 155.768 84.7715C156.886 85.4909 158.193 85.8627 159.522 85.8398C160.851 85.817 162.144 85.4005 163.237 84.6431C164.329 83.8856 165.173 82.8212 165.66 81.5844C166.148 80.3477 166.258 78.994 165.977 77.6947C165.695 76.3953 165.035 75.2086 164.079 74.2845C162.796 73.0461 161.074 72.3677 159.291 72.3984C157.508 72.4291 155.81 73.1663 154.57 74.4481V74.4481Z" fill="#EBEBEB"/>
<path d="M65.898 25.38C66.3882 25.0803 66.9178 24.8506 67.4716 24.6975L67.7931 23.124L70.4157 23.0789L70.7936 24.6186C71.349 24.7561 71.8838 24.9666 72.384 25.2446L73.7094 24.3761L75.5763 26.2147L74.7528 27.5739C75.0502 28.0633 75.2798 28.5907 75.4353 29.1419L76.9863 29.4633L77.0314 32.0859L75.4917 32.4638C75.3561 33.0199 75.1455 33.555 74.8656 34.0543L75.7342 35.3853L73.9125 37.2691L72.5589 36.4457C72.0702 36.7444 71.5426 36.9741 70.991 37.1281L70.6695 38.6847L68.0412 38.7299L67.6803 37.1901C67.1248 37.0526 66.59 36.8421 66.0898 36.5641L64.7644 37.4327L62.875 35.6109L63.7323 34.2517C63.4297 33.7714 63.1908 33.2539 63.0216 32.712L61.4763 32.3623L61.4312 29.7397L62.9709 29.3618C63.1065 28.8057 63.3171 28.2707 63.5969 27.7713L62.7284 26.4403L64.5501 24.5565L65.9037 25.38H65.898ZM67.2968 28.8711C66.9083 29.2719 66.6475 29.7788 66.5474 30.3279C66.4472 30.8769 66.5123 31.4433 66.7342 31.9553C66.9561 32.4674 67.325 32.9021 67.7941 33.2044C68.2633 33.5067 68.8115 33.663 69.3695 33.6535C69.9275 33.644 70.4702 33.4692 70.9288 33.1511C71.3873 32.833 71.7412 32.3861 71.9456 31.8668C72.1501 31.3475 72.1958 30.7792 72.077 30.2339C71.9583 29.6886 71.6804 29.1907 71.2786 28.8035C70.7411 28.2854 70.0201 28.0016 69.2737 28.0143C68.5273 28.027 67.8163 28.3351 67.2968 28.8711V28.8711Z" fill="#EBEBEB"/>
<path fill-rule="evenodd" clip-rule="evenodd" d="M343.318 44.1048C343.318 44.2994 343.26 44.4896 343.152 44.6512C343.044 44.8128 342.89 44.9386 342.71 45.0125C342.53 45.0865 342.332 45.1052 342.141 45.0664C341.951 45.0276 341.776 44.9331 341.639 44.7947C341.502 44.6563 341.41 44.4804 341.373 44.2893C341.336 44.0982 341.357 43.9005 341.433 43.7214C341.509 43.5423 341.637 43.3898 341.8 43.2834C341.963 43.1769 342.154 43.1212 342.348 43.1235C342.606 43.1264 342.853 43.2312 343.035 43.4149C343.216 43.5986 343.318 43.8465 343.318 44.1048V44.1048Z" fill="#E0E0E0"/>
<path fill-rule="evenodd" clip-rule="evenodd" d="M368.704 27.856C368.705 28.0506 368.648 28.2411 368.541 28.4033C368.433 28.5656 368.28 28.6922 368.101 28.7672C367.921 28.8422 367.723 28.8621 367.533 28.8244C367.342 28.7867 367.166 28.6931 367.029 28.5555C366.891 28.418 366.797 28.2426 366.76 28.0517C366.722 27.8608 366.742 27.663 366.817 27.4835C366.892 27.3039 367.019 27.1507 367.181 27.0433C367.343 26.9359 367.534 26.8792 367.728 26.8803C367.987 26.8803 368.235 26.9831 368.418 27.166C368.601 27.349 368.704 27.5972 368.704 27.856V27.856Z" fill="#E0E0E0"/>
<path d="M338.44 226.164C338.44 226.164 338.44 225.893 338.44 225.369C338.44 224.844 338.44 224.06 338.44 223.04C338.44 220.987 338.44 217.964 338.44 214.072C338.44 206.266 338.44 194.964 338.394 180.954C338.394 152.917 338.394 114.035 338.349 70.6242V70.5903V70.5565C339.618 68.0354 340.989 65.3226 342.359 62.5928V62.6605V44.1049L342.506 44.2459L213.762 44.1669L213.824 44.1049C213.824 50.0607 213.824 54.6348 213.824 57.7198C213.824 59.2577 213.824 60.4233 213.824 61.2167C213.824 62.0006 213.824 62.4011 213.824 62.4011C213.824 62.4011 213.824 62.0006 213.824 61.2167C213.824 60.4327 213.824 59.2596 213.824 57.7198C213.824 54.6348 213.824 50.0607 213.79 44.1049V44.0372H213.858L342.602 43.9583H342.743V44.1049C342.743 49.9479 342.743 55.9489 342.743 62.0852V62.6492V62.6831L338.569 70.6693V70.6016C338.569 114.03 338.535 152.895 338.524 180.931C338.524 194.941 338.49 206.244 338.479 214.049C338.479 217.947 338.479 220.964 338.479 223.017C338.479 224.038 338.479 224.822 338.479 225.346C338.479 225.871 338.44 226.164 338.44 226.164Z" fill="#E0E0E0"/>
<path d="M363.724 114.639C363.724 114.639 363.724 114.351 363.724 113.793C363.724 113.234 363.696 112.405 363.673 111.322C363.634 109.151 363.577 105.964 363.504 101.875C363.374 93.6917 363.188 81.9154 362.94 67.5221C364.372 63.7019 365.876 59.6938 367.452 55.4976V55.5427C367.452 47.1222 367.452 37.7993 367.452 27.9462L367.593 28.0872H331.497H271.713H271.634L271.594 28.0139L268.047 20.507L268.16 20.5747L227.777 20.524L216.497 20.4901H213.536H212.521C212.521 20.4901 212.865 20.4901 213.536 20.4901H216.497L227.777 20.4563L268.16 20.4055H268.233L268.267 20.4732L271.848 27.856L271.73 27.7826H331.514H367.728V27.9236C367.728 37.7767 367.728 47.0996 367.728 55.5202L363.216 67.5334V67.4882C363.402 81.8872 363.555 93.6635 363.662 101.847C363.707 105.936 363.746 109.123 363.769 111.294C363.769 112.377 363.769 113.2 363.769 113.764C363.735 114.351 363.724 114.639 363.724 114.639Z" fill="#E0E0E0"/>
<path d="M356.691 120.944C356.691 120.944 356.691 120.628 356.651 120.008C356.612 119.388 356.612 118.468 356.578 117.273C356.522 114.859 356.437 111.317 356.324 106.771C356.116 97.6623 355.817 84.5323 355.45 68.4189L360.752 56.0109V56.056C360.915 49.288 361.096 41.956 361.282 34.2348L361.417 34.3702H298.954L197.541 34.3307L197.62 34.3025L189.38 42.4749H189.341L161.868 42.2662L154.536 42.1872H152.641H152.004H152.641H154.536H161.868L189.296 42.3395H189.228C191.792 39.7677 194.535 37.0191 197.457 34.0938L197.485 34.06H197.53L298.943 34.0205H361.406H361.541V34.1615C361.349 41.8545 361.158 49.1921 360.977 55.9827C359.122 60.3142 357.339 64.4427 355.653 68.3907V68.3455C355.98 84.4647 356.217 97.6002 356.426 106.698C356.51 111.243 356.578 114.785 356.623 117.199C356.623 118.395 356.657 119.314 356.663 119.935C356.668 120.555 356.691 120.944 356.691 120.944Z" fill="#E0E0E0"/>
<path fill-rule="evenodd" clip-rule="evenodd" d="M153.696 42.0462C153.696 42.2403 153.638 42.43 153.53 42.5914C153.422 42.7528 153.269 42.8786 153.09 42.9529C152.911 43.0271 152.713 43.0466 152.523 43.0087C152.332 42.9708 152.158 42.8774 152.02 42.7401C151.883 42.6029 151.79 42.428 151.752 42.2377C151.714 42.0473 151.733 41.85 151.808 41.6706C151.882 41.4913 152.008 41.3381 152.169 41.2302C152.33 41.1224 152.52 41.0648 152.714 41.0648C152.843 41.0641 152.971 41.089 153.091 41.138C153.21 41.1871 153.319 41.2593 153.41 41.3506C153.501 41.4419 153.573 41.5504 153.622 41.6698C153.671 41.7892 153.696 41.9171 153.696 42.0462V42.0462Z" fill="#E0E0E0"/>
<path fill-rule="evenodd" clip-rule="evenodd" d="M212.538 20.4056C212.538 20.5996 212.48 20.7894 212.373 20.9508C212.265 21.1122 212.111 21.2379 211.932 21.3122C211.753 21.3865 211.555 21.4059 211.365 21.3681C211.175 21.3302 211 21.2367 210.863 21.0995C210.725 20.9622 210.632 20.7874 210.594 20.597C210.556 20.4066 210.576 20.2093 210.65 20.03C210.724 19.8507 210.85 19.6974 211.011 19.5896C211.173 19.4818 211.362 19.4242 211.557 19.4242C211.817 19.4242 212.066 19.5276 212.25 19.7116C212.435 19.8957 212.538 20.1453 212.538 20.4056V20.4056Z" fill="#E0E0E0"/>
<path d="M375.421 224.303H354.919C360.92 203.897 362.285 165.647 361.281 140.306H368.822C368.427 165.557 370.249 203.604 375.421 224.303Z" fill="#EBEBEB"/>
<path d="M403.604 249.119C401.859 247.177 399.673 245.682 397.23 244.759C394.788 243.837 392.159 243.514 389.566 243.817C390.057 239.305 390.508 234.506 388.726 230.371C386.943 226.237 382.054 223.282 378.331 225.476C379.707 219.221 377.293 212.199 372.454 208.398C370.053 206.54 367.142 205.46 364.109 205.302C361.077 205.145 358.07 205.918 355.489 207.518C350.329 210.806 347.294 217.546 348.106 223.914C345.47 223.746 342.836 224.276 340.469 225.449C338.101 226.622 336.085 228.398 334.621 230.597C333.118 232.918 332.186 235.562 331.899 238.312C331.613 241.063 331.981 243.842 332.974 246.423C325.298 246.011 317.977 256.056 318.13 264.285L408.014 264.178C408.415 261.498 408.229 258.763 407.467 256.163C406.706 253.562 405.387 251.159 403.604 249.119V249.119Z" fill="#EBEBEB"/>
<path d="M358.36 102.704L375.664 108.672C379.482 112.591 376.916 118.124 373.69 120.251C374.867 120.818 375.834 121.745 376.45 122.897C377.066 124.05 377.301 125.368 377.118 126.663C376.936 127.957 376.348 129.16 375.437 130.098C374.527 131.035 373.342 131.66 372.054 131.88C372.484 132.525 372.773 133.254 372.903 134.018C373.033 134.783 373 135.566 372.806 136.316C372.613 137.067 372.263 137.769 371.78 138.375C371.297 138.982 370.692 139.48 370.004 139.837C369.316 140.194 368.56 140.401 367.786 140.447C367.012 140.492 366.237 140.373 365.512 140.099C364.787 139.824 364.128 139.4 363.578 138.854C363.028 138.307 362.599 137.651 362.32 136.928C361.592 135.016 361.936 132.76 360.91 130.995C359.939 129.342 358.027 128.547 356.465 127.43C352.596 124.667 350.825 119.534 351.389 114.814C351.953 110.093 354.756 105.823 358.36 102.704Z" fill="#EBEBEB"/>
<path d="M369.347 106.624C370.011 108.332 370.329 110.156 370.283 111.988C370.274 112.248 370.184 112.499 370.025 112.705C369.866 112.911 369.646 113.062 369.397 113.136C369.147 113.21 368.881 113.204 368.635 113.118C368.389 113.033 368.176 112.872 368.027 112.659V112.659C368.1 114.899 368.027 117.141 367.807 119.371C367.779 119.684 367.654 119.982 367.45 120.222C367.246 120.462 366.973 120.634 366.668 120.713C366.363 120.792 366.041 120.775 365.746 120.664C365.451 120.553 365.198 120.353 365.021 120.093C361.811 115.413 360.409 109.728 361.073 104.092L369.347 106.624Z" fill="#E0E0E0"/>
<path d="M352.184 85.7618L352.088 85.8352C349.398 87.9968 347.227 90.7353 345.736 93.8484C344.245 96.9614 343.473 100.37 343.476 103.821V108.203L352.179 102.152L352.184 85.7618Z" fill="#E0E0E0"/>
<path d="M377.045 85.728L377.141 85.8014C379.795 87.9321 381.937 90.6316 383.408 93.7007C384.879 96.7698 385.642 100.13 385.641 103.534V107.859L377.045 101.898V85.728Z" fill="#E0E0E0"/>
<path d="M364.598 42.8302C366.566 42.8302 370.187 47.9062 373.549 56.417C375.54 61.422 376.719 66.7133 377.04 72.0905V108.672H352.196V75.4745C352.178 72.2357 352.469 69.0025 353.064 65.8188C353.675 62.6154 354.541 59.4658 355.653 56.4C358.806 47.8836 362.652 42.864 364.598 42.8302Z" fill="#F5F5F5"/>
<path d="M352.444 102.738C352.444 102.778 357.954 102.834 364.75 102.874C371.546 102.913 377.057 102.908 377.057 102.874C377.057 102.84 371.546 102.778 364.75 102.744C357.954 102.71 352.444 102.704 352.444 102.738Z" fill="#E0E0E0"/>
<path d="M352.551 103.849C352.551 103.883 358.061 103.945 364.857 103.979C371.653 104.013 377.164 104.019 377.164 103.979C377.164 103.94 371.659 103.883 364.857 103.844C358.055 103.804 352.551 103.816 352.551 103.849Z" fill="#E0E0E0"/>
<path d="M352.534 105.017C352.534 105.056 358.044 105.113 364.841 105.152C371.637 105.192 377.147 105.186 377.147 105.152C377.147 105.118 371.637 105.056 364.841 105.023C358.044 104.989 352.534 104.983 352.534 105.017Z" fill="#E0E0E0"/>
<path d="M352.5 106.19C352.5 106.224 358.01 106.286 364.801 106.32C371.591 106.354 377.113 106.359 377.113 106.32C377.113 106.28 371.603 106.229 364.806 106.19C358.01 106.151 352.5 106.151 352.5 106.19Z" fill="#E0E0E0"/>
<path d="M352.5 107.357C352.5 107.397 358.01 107.453 364.806 107.493C371.603 107.532 377.113 107.527 377.113 107.493C377.113 107.459 371.608 107.397 364.806 107.357C358.005 107.318 352.5 107.324 352.5 107.357Z" fill="#E0E0E0"/>
<path d="M364.564 85.7844C364.561 85.8408 364.561 85.8973 364.564 85.9536C364.544 86.1183 364.532 86.284 364.53 86.4499C364.53 86.8786 364.53 87.5046 364.53 88.2717C364.53 89.8114 364.53 91.9377 364.53 94.2839C364.53 96.6301 364.592 98.7621 364.626 100.296C364.626 101.058 364.66 101.678 364.671 102.124C364.671 102.327 364.671 102.49 364.671 102.614C364.664 102.672 364.664 102.731 364.671 102.789C364.676 102.731 364.676 102.672 364.671 102.614C364.671 102.49 364.671 102.327 364.671 102.118C364.671 101.672 364.671 101.058 364.671 100.296C364.671 98.7451 364.637 96.6245 364.62 94.2839C364.604 91.9433 364.575 89.8227 364.558 88.2717C364.558 87.5159 364.558 86.8955 364.558 86.4499C364.558 86.2356 364.558 86.0664 364.558 85.9536C364.568 85.8977 364.57 85.8408 364.564 85.7844Z" fill="#E0E0E0"/>
<path d="M352.184 85.7619C352.184 85.7957 357.7 85.8295 364.507 85.8295C371.315 85.8295 376.837 85.8014 376.837 85.7675C376.837 85.7337 371.315 85.6998 364.507 85.6998C357.7 85.6998 352.184 85.728 352.184 85.7619Z" fill="#E0E0E0"/>
<path d="M362.579 97.8484C362.579 97.8484 362.539 97.792 362.427 97.7356C362.266 97.6665 362.087 97.6545 361.919 97.7018C361.787 97.729 361.664 97.7916 361.565 97.883C361.466 97.9744 361.393 98.0911 361.355 98.2206C361.304 98.3774 361.302 98.5461 361.351 98.7037C361.399 98.8614 361.495 99.0003 361.625 99.1014C361.755 99.2026 361.913 99.2612 362.078 99.2691C362.243 99.277 362.406 99.2338 362.545 99.1456C362.66 99.079 362.756 98.9826 362.821 98.8665C362.887 98.7505 362.92 98.619 362.917 98.4857C362.917 98.3106 362.859 98.1403 362.754 98.0007C362.68 97.9048 362.618 97.8766 362.613 97.8822C362.607 97.8879 362.652 97.933 362.714 98.0289C362.793 98.1677 362.83 98.3263 362.821 98.4857C362.82 98.6006 362.788 98.713 362.73 98.8119C362.672 98.9108 362.588 98.9928 362.489 99.0497C362.369 99.123 362.23 99.158 362.09 99.15C361.95 99.1419 361.815 99.0912 361.705 99.0047C361.594 98.9181 361.513 98.7999 361.472 98.6658C361.43 98.5317 361.431 98.3882 361.473 98.2545C361.503 98.1453 361.561 98.0458 361.641 97.9657C361.722 97.8857 361.821 97.8277 361.93 97.7976C362.082 97.7492 362.246 97.7492 362.398 97.7976C362.517 97.8202 362.573 97.854 362.579 97.8484Z" fill="#E0E0E0"/>
<path d="M362.443 90.8041C362.443 90.8041 362.404 90.7477 362.291 90.6969C362.131 90.6285 361.952 90.6146 361.784 90.6574C361.652 90.6852 361.529 90.7481 361.43 90.8394C361.331 90.9307 361.258 91.0471 361.22 91.1763C361.172 91.3337 361.172 91.5014 361.219 91.6588C361.266 91.8161 361.359 91.9563 361.485 92.0618C361.617 92.1566 361.775 92.2112 361.938 92.2192C362.101 92.2272 362.262 92.1882 362.404 92.1069C362.495 92.0491 362.573 91.9732 362.633 91.884C362.693 91.7948 362.734 91.6941 362.754 91.5883C362.773 91.4825 362.771 91.3738 362.747 91.2689C362.722 91.1641 362.677 91.0654 362.613 90.9789C362.539 90.883 362.477 90.8492 362.472 90.8548C362.466 90.8605 362.517 90.9112 362.573 91.0071C362.652 91.1438 362.689 91.3007 362.68 91.4583C362.68 91.5735 362.65 91.6866 362.591 91.7858C362.533 91.8851 362.448 91.9667 362.348 92.0223C362.228 92.0947 362.09 92.1292 361.951 92.1212C361.811 92.1132 361.678 92.063 361.568 91.9774C361.458 91.8918 361.376 91.7747 361.334 91.6417C361.292 91.5087 361.291 91.3661 361.332 91.2327C361.362 91.1227 361.42 91.0224 361.5 90.9413C361.58 90.8603 361.68 90.8013 361.789 90.7702C361.942 90.7277 362.104 90.7277 362.257 90.7702C362.381 90.7477 362.438 90.8041 362.443 90.8041Z" fill="#E0E0E0"/>
<path d="M363.932 123.617C364.221 123.806 364.424 124.099 364.498 124.435C364.572 124.772 364.511 125.123 364.328 125.415C364.146 125.707 363.856 125.916 363.521 125.996C363.187 126.076 362.834 126.022 362.538 125.845C362.243 125.668 362.029 125.382 361.943 125.049C361.856 124.716 361.904 124.362 362.075 124.063C362.247 123.765 362.529 123.546 362.86 123.453C363.191 123.36 363.546 123.401 363.848 123.567" fill="#E0E0E0"/>
<path d="M358.969 63.9689C358.235 65.0747 357.845 66.3733 357.849 67.7006C357.853 69.0279 358.25 70.3243 358.991 71.4258C359.732 72.5272 360.782 73.3844 362.01 73.8888C363.238 74.3933 364.587 74.5224 365.888 74.2598C367.19 73.9972 368.384 73.3547 369.32 72.4136C370.255 71.4725 370.891 70.275 371.147 68.9725C371.402 67.67 371.266 66.321 370.755 65.0961C370.243 63.8712 369.381 62.8253 368.275 62.0907C367.541 61.6028 366.718 61.2644 365.852 61.0947C364.987 60.925 364.097 60.9275 363.233 61.1019C362.369 61.2763 361.547 61.6193 360.816 62.1112C360.084 62.6031 359.457 63.2343 358.969 63.9689V63.9689Z" fill="white"/>
<path d="M358.969 63.969C359.322 63.5451 359.698 63.1421 360.097 62.762C361.22 61.7616 362.646 61.166 364.147 61.07C365.247 61.0044 366.346 61.2158 367.343 61.6848C368.34 62.1538 369.204 62.8655 369.854 63.7546C370.628 64.8007 371.071 66.0535 371.129 67.353C371.194 68.7482 370.812 70.1278 370.04 71.2912C369.267 72.4546 368.143 73.3412 366.831 73.822C366.213 74.0546 365.562 74.1879 364.903 74.2168C364.27 74.2579 363.634 74.2009 363.019 74.0476C361.872 73.766 360.822 73.1816 359.979 72.3556C359.236 71.6461 358.671 70.7705 358.332 69.8007C357.831 68.3864 357.821 66.8447 358.304 65.4241C358.496 64.9095 358.722 64.4083 358.981 63.9238C358.889 64.0345 358.808 64.1535 358.738 64.2792C358.639 64.422 358.552 64.573 358.479 64.7304C358.368 64.9407 358.273 65.1595 358.197 65.3846C357.751 66.6049 357.667 67.9275 357.953 69.1946C358.239 70.4617 358.883 71.6198 359.81 72.5305C360.683 73.3856 361.77 73.9913 362.957 74.2845C364.265 74.6058 365.64 74.5292 366.905 74.0646C368.286 73.5732 369.471 72.6489 370.284 71.4293C371.097 70.2098 371.494 68.7602 371.417 67.2966C371.348 65.9442 370.883 64.6418 370.08 63.5516C369.353 62.5747 368.38 61.808 367.26 61.3294C366.062 60.8299 364.745 60.6856 363.467 60.9136C362.189 61.1416 361.004 61.7323 360.052 62.6154C359.875 62.7751 359.711 62.9486 359.561 63.1342C359.443 63.2625 359.336 63.4002 359.24 63.546C359.131 63.6737 359.039 63.8161 358.969 63.969V63.969Z" fill="#E0E0E0"/>
<path d="M364.598 42.8302C366.566 42.8302 370.187 47.9062 373.549 56.417H355.653C358.806 47.8836 362.652 42.864 364.598 42.8302Z" fill="#E0E0E0"/>
<path d="M364.598 42.8302L364.248 42.8697C363.919 42.9669 363.609 43.1174 363.329 43.3153C362.285 44.1251 361.384 45.1029 360.661 46.2086C358.687 49.0286 356.397 53.5406 354.542 59.4626C353.552 62.7263 352.839 66.0676 352.41 69.451C352.188 71.3475 352.071 73.2549 352.06 75.1643C352.06 77.1327 352.06 79.1631 352.06 81.2499C352.06 89.5971 352.06 98.8523 352.06 108.683V108.852H377.214V108.711C377.214 98.8749 377.214 89.6197 377.181 81.2725C377.181 79.1857 377.181 77.1553 377.181 75.1869C377.181 74.1999 377.181 73.2298 377.181 72.2767C377.181 71.3235 377.062 70.3816 376.955 69.4567C376.541 66.0708 375.807 62.7319 374.761 59.4851C373.876 56.8385 372.821 54.2518 371.603 51.7414C370.703 49.8345 369.66 47.9982 368.484 46.2481C367.772 45.1369 366.886 44.1467 365.861 43.3153C365.664 43.2025 365.506 43.084 365.348 43.0163C365.216 42.9566 365.08 42.9057 364.942 42.8641L364.598 42.8246C364.598 42.8246 364.711 42.8246 364.936 42.8923C365.071 42.9365 365.203 42.9892 365.331 43.0502C365.503 43.1427 365.669 43.2464 365.827 43.3604C366.834 44.2031 367.701 45.1984 368.399 46.3101C369.548 48.0523 370.566 49.8772 371.445 51.7696C372.645 54.2824 373.685 56.8688 374.558 59.5133C375.585 62.7492 376.304 66.0745 376.707 69.4454C376.814 70.3591 376.904 71.2953 376.921 72.2654V75.17C376.921 77.1365 376.921 79.165 376.921 81.2555C376.921 89.6084 376.921 98.858 376.921 108.694L377.068 108.548H352.195L352.336 108.694C352.336 98.8636 352.336 89.6084 352.308 81.2612C352.308 79.1744 352.308 77.144 352.308 75.1756C352.314 73.274 352.425 71.3742 352.641 69.4849C353.056 66.114 353.754 62.7841 354.728 59.5303C356.55 53.5801 358.811 49.0681 360.746 46.2481C361.456 45.1434 362.337 44.1591 363.357 43.3322C363.63 43.1342 363.933 42.9801 364.254 42.8753L364.598 42.8302Z" fill="#E0E0E0"/>
<path d="M360.893 71.1092C361.266 70.8528 361.607 70.5517 361.908 70.2124C362.5 69.6484 363.29 68.7799 364.164 67.838L366.33 65.4071C366.65 65.09 366.939 64.7425 367.192 64.3694C366.821 64.6264 366.482 64.9275 366.183 65.2661C365.585 65.8301 364.795 66.6931 363.927 67.6406L361.761 70.0714C361.439 70.3887 361.148 70.7363 360.893 71.1092V71.1092Z" fill="#E0E0E0"/>
<path d="M362.866 71.1204C363.65 70.5147 364.373 69.8348 365.026 69.09C365.749 68.4053 366.401 67.6495 366.972 66.834C366.189 67.4402 365.465 68.1201 364.812 68.8644C364.09 69.5498 363.438 70.3055 362.866 71.1204Z" fill="#E0E0E0"/>
<path d="M401.298 264.403C401.298 264.488 315.304 264.556 209.255 264.556C103.207 264.556 17.1909 264.516 17.1909 264.403C17.1909 264.29 103.167 264.257 209.255 264.257C315.344 264.257 401.298 264.324 401.298 264.403Z" fill="#263238"/>
<path d="M379.391 133.877H358.755C355.68 133.877 353.188 136.369 353.188 139.443V160.08C353.188 163.155 355.68 165.647 358.755 165.647H379.391C382.466 165.647 384.958 163.155 384.958 160.08V139.443C384.958 136.369 382.466 133.877 379.391 133.877Z" fill="#263238"/>
<path d="M374.733 133.877H354.096C351.022 133.877 348.529 136.369 348.529 139.443V160.08C348.529 163.155 351.022 165.647 354.096 165.647H374.733C377.807 165.647 380.299 163.155 380.299 160.08V139.443C380.299 136.369 377.807 133.877 374.733 133.877Z" fill="#455A64"/>
<path d="M354.694 149.573L357.717 146.55L363.543 151.733L373.278 141.959L376.086 144.982L363.114 157.559L354.694 149.573Z" fill="white"/>
<path d="M364.66 229.994C365.429 230.362 366.117 230.881 366.682 231.521C367.247 232.16 367.677 232.907 367.948 233.716C368.475 235.342 368.624 237.066 368.382 238.758C368.01 242.029 366.155 245.334 364.152 247.951C361.394 245.543 360.768 241.352 360.571 239.204C360.278 235.82 361.8 229.492 364.66 229.994" fill="#00AFDB"/>
<path d="M367.35 253.349C367.164 252.413 367.227 251.445 367.534 250.542C367.841 249.639 368.381 248.833 369.099 248.205C369.829 247.592 370.673 247.13 371.583 246.846C372.494 246.563 373.451 246.463 374.4 246.553C374.845 246.543 375.286 246.631 375.693 246.812C376.099 246.992 376.461 247.26 376.752 247.596C376.967 247.948 377.083 248.352 377.089 248.764C377.095 249.177 376.99 249.584 376.786 249.942C376.366 250.648 375.769 251.231 375.054 251.634C372.663 253.129 370.08 254.144 367.378 253.326" fill="#00AFDB"/>
<path d="M363.819 263.388C363.832 263.162 363.864 262.937 363.915 262.717C364.005 262.243 364.118 261.634 364.248 260.901C364.558 258.876 365.192 256.914 366.126 255.091C367.096 253.272 368.535 251.745 370.294 250.67C370.826 250.352 371.394 250.098 371.986 249.914C372.195 249.846 372.364 249.818 372.471 249.79C372.529 249.781 372.588 249.781 372.646 249.79C371.861 250.062 371.105 250.411 370.39 250.833C368.693 251.936 367.302 253.449 366.346 255.232C365.427 257.035 364.78 258.964 364.428 260.957C364.259 261.718 364.124 262.333 364.022 262.756C363.974 262.972 363.906 263.184 363.819 263.388Z" fill="#263238"/>
<path d="M363.921 234.912C363.948 235.007 363.959 235.106 363.955 235.205C363.955 235.419 363.989 235.701 364.006 236.045C364.045 236.778 364.09 237.839 364.13 239.147C364.214 241.77 364.282 245.396 364.265 249.395C364.248 253.394 364.152 257.026 364.045 259.643C363.989 260.957 363.938 262.017 363.893 262.745C363.893 263.095 363.848 263.371 363.836 263.591C363.836 263.69 363.823 263.789 363.797 263.884C363.788 263.787 363.788 263.689 363.797 263.591C363.797 263.371 363.797 263.089 363.797 262.745C363.797 261.984 363.842 260.929 363.876 259.637C363.938 257.02 364.011 253.4 364.028 249.395C364.045 245.391 364.028 241.775 363.96 239.153C363.96 237.867 363.927 236.812 363.915 236.051C363.915 235.701 363.915 235.425 363.915 235.205C363.909 235.107 363.911 235.009 363.921 234.912V234.912Z" fill="#263238"/>
<path d="M362.584 255.34C362.252 253.357 361.452 251.482 360.251 249.871C359.049 248.259 357.48 246.957 355.675 246.073C354.756 245.633 353.555 245.34 352.799 246.028C352.043 246.716 352.235 247.946 352.579 248.899C353.388 250.874 354.765 252.566 356.534 253.76C358.304 254.955 360.387 255.598 362.522 255.61" fill="#00AFDB"/>
<path d="M356.121 249.175C356.316 249.242 356.505 249.327 356.685 249.429C356.912 249.534 357.132 249.653 357.344 249.784C357.633 249.945 357.914 250.12 358.185 250.309C358.52 250.533 358.842 250.776 359.149 251.036C359.507 251.324 359.848 251.633 360.17 251.961C360.911 252.72 361.564 253.56 362.116 254.465C362.654 255.38 363.085 256.352 363.402 257.364C363.534 257.806 363.641 258.254 363.723 258.707C363.804 259.101 363.859 259.501 363.887 259.902C363.938 260.269 363.921 260.602 363.938 260.895C363.953 261.143 363.953 261.392 363.938 261.64C363.933 261.854 363.908 262.067 363.864 262.277C363.808 262.277 363.904 261.363 363.746 259.919C363.695 259.558 363.65 259.164 363.554 258.746C363.464 258.3 363.349 257.86 363.21 257.426C362.89 256.443 362.462 255.497 361.935 254.606C361.393 253.717 360.756 252.888 360.035 252.136C359.721 251.806 359.39 251.494 359.042 251.2C358.746 250.939 358.435 250.694 358.112 250.467C356.927 249.598 356.098 249.22 356.121 249.175Z" fill="#263238"/>
<path d="M113.194 123.048H54.2339V264.443H113.194V123.048Z" fill="#E0E0E0"/>
<path d="M83.7142 123.048H37.0996V264.443H83.7142V123.048Z" fill="#F5F5F5"/>
<path d="M83.7819 264.335C83.7029 264.335 83.6353 232.672 83.6353 193.615C83.6353 154.558 83.7029 122.89 83.7819 122.89C83.8609 122.89 83.9285 154.553 83.9285 193.615C83.9285 232.678 83.8665 264.335 83.7819 264.335Z" fill="#263238"/>
<path d="M106.342 139.291H92.2192V140.746H106.342V139.291Z" fill="#263238"/>
<path d="M106.342 143.453H92.2192V144.908H106.342V143.453Z" fill="#263238"/>
<path d="M106.342 147.621H92.2192V149.076H106.342V147.621Z" fill="#263238"/>
<path d="M79.2082 129.06H41.9165V259.953H79.2082V129.06Z" fill="#E0E0E0"/>
<path d="M75.4911 133.882H44.5952V138.564H75.4911V133.882Z" fill="#EBEBEB"/>
<path d="M49.2764 133.882H44.5952V138.564H49.2764V133.882Z" fill="#00AFDB"/>
<path d="M76.45 133.882H66.2754V138.564H76.45V133.882Z" fill="#F5F5F5"/>
<path d="M75.4911 142.213H44.5952V146.894H75.4911V142.213Z" fill="#EBEBEB"/>
<path d="M49.2764 142.213H44.5952V146.894H49.2764V142.213Z" fill="white"/>
<path d="M76.45 142.213H66.2754V146.894H76.45V142.213Z" fill="#F5F5F5"/>
<path d="M75.4911 150.548H44.5952V155.23H75.4911V150.548Z" fill="#EBEBEB"/>
<path d="M49.2764 150.548H44.5952V155.23H49.2764V150.548Z" fill="#00AFDB"/>
<path d="M76.45 150.548H66.2754V155.23H76.45V150.548Z" fill="#F5F5F5"/>
<path d="M75.4911 158.884H44.5952V163.566H75.4911V158.884Z" fill="#EBEBEB"/>
<path d="M49.2764 158.884H44.5952V163.566H49.2764V158.884Z" fill="white"/>
<path d="M76.45 158.884H66.2754V163.566H76.45V158.884Z" fill="#F5F5F5"/>
<path d="M75.4911 167.215H44.5952V171.896H75.4911V167.215Z" fill="#EBEBEB"/>
<path d="M49.2764 167.215H44.5952V171.896H49.2764V167.215Z" fill="#00AFDB"/>
<path d="M76.45 167.215H66.2754V171.896H76.45V167.215Z" fill="#F5F5F5"/>
<path d="M75.4911 175.551H44.5952V180.232H75.4911V175.551Z" fill="#EBEBEB"/>
<path d="M49.2764 175.551H44.5952V180.232H49.2764V175.551Z" fill="#00AFDB"/>
<path d="M76.45 175.551H66.2754V180.232H76.45V175.551Z" fill="#F5F5F5"/>
<path d="M75.4911 183.886H44.5952V188.568H75.4911V183.886Z" fill="#EBEBEB"/>
<path d="M49.2764 183.886H44.5952V188.568H49.2764V183.886Z" fill="white"/>
<path d="M76.45 183.886H66.2754V188.568H76.45V183.886Z" fill="#F5F5F5"/>
<path d="M75.4911 192.217H44.5952V196.898H75.4911V192.217Z" fill="#EBEBEB"/>
<path d="M49.2764 192.217H44.5952V196.898H49.2764V192.217Z" fill="white"/>
<path d="M76.45 192.217H66.2754V196.898H76.45V192.217Z" fill="#F5F5F5"/>
<path d="M75.4911 200.553H44.5952V205.234H75.4911V200.553Z" fill="#EBEBEB"/>
<path d="M49.2764 200.553H44.5952V205.234H49.2764V200.553Z" fill="white"/>
<path d="M76.45 200.553H66.2754V205.234H76.45V200.553Z" fill="#F5F5F5"/>
<path d="M75.4911 208.889H44.5952V213.57H75.4911V208.889Z" fill="#EBEBEB"/>
<path d="M49.2764 208.889H44.5952V213.57H49.2764V208.889Z" fill="#00AFDB"/>
<path d="M76.45 208.889H66.2754V213.57H76.45V208.889Z" fill="#F5F5F5"/>
<path d="M75.4911 217.225H44.5952V221.906H75.4911V217.225Z" fill="#EBEBEB"/>
<path d="M49.2764 217.225H44.5952V221.906H49.2764V217.225Z" fill="white"/>
<path d="M76.45 217.225H66.2754V221.906H76.45V217.225Z" fill="#F5F5F5"/>
<path d="M75.4911 225.555H44.5952V230.236H75.4911V225.555Z" fill="#EBEBEB"/>
<path d="M49.2764 225.555H44.5952V230.236H49.2764V225.555Z" fill="#00AFDB"/>
<path d="M76.45 225.555H66.2754V230.236H76.45V225.555Z" fill="#F5F5F5"/>
<path d="M75.4911 233.891H44.5952V238.572H75.4911V233.891Z" fill="#EBEBEB"/>
<path d="M49.2764 233.891H44.5952V238.572H49.2764V233.891Z" fill="white"/>
<path d="M76.45 233.891H66.2754V238.572H76.45V233.891Z" fill="#F5F5F5"/>
<path d="M75.4911 242.227H44.5952V246.908H75.4911V242.227Z" fill="#EBEBEB"/>
<path d="M49.2764 242.227H44.5952V246.908H49.2764V242.227Z" fill="#00AFDB"/>
<path d="M76.45 242.227H66.2754V246.908H76.45V242.227Z" fill="#F5F5F5"/>
<path d="M75.4911 250.557H44.5952V255.238H75.4911V250.557Z" fill="#EBEBEB"/>
<path d="M49.2764 250.557H44.5952V255.238H49.2764V250.557Z" fill="white"/>
<path d="M76.45 250.557H66.2754V255.238H76.45V250.557Z" fill="#F5F5F5"/>
<path d="M113.195 264.443C113.195 263.185 113.138 205.73 113.059 123.048L113.195 123.183H37.111L37.2576 123.037C37.2576 177.316 37.2294 226.948 37.2238 264.431L37.111 264.319L113.206 264.431L37.111 264.539H36.9982V264.426C36.9982 226.942 36.9982 177.31 36.9644 123.031V122.884H37.1223H113.206H113.341V123.02C113.341 164.395 113.296 199.757 113.279 224.782C113.223 249.745 113.195 263.817 113.195 264.443Z" fill="#263238"/>
<path d="M312.975 83.1957H110.025C108.345 83.1957 106.734 83.863 105.547 85.0508C104.359 86.2386 103.691 87.8496 103.691 89.5294V232.881C103.691 234.561 104.359 236.172 105.547 237.36C106.734 238.548 108.345 239.215 110.025 239.215H187.919L184.14 264.257H240.614L237.444 239.215H312.975C314.655 239.215 316.266 238.548 317.453 237.36C318.641 236.172 319.309 234.561 319.309 232.881V89.5294C319.309 88.6976 319.145 87.874 318.826 87.1056C318.508 86.3371 318.042 85.6389 317.453 85.0508C316.865 84.4626 316.167 83.9961 315.399 83.6778C314.63 83.3595 313.807 83.1957 312.975 83.1957Z" fill="#455A64"/>
<path d="M214.207 224.139C216.971 228.087 212.651 232.408 208.703 229.644C208.571 229.552 208.456 229.437 208.364 229.306C205.612 225.358 209.927 221.043 213.869 223.801C214.001 223.893 214.115 224.008 214.207 224.139Z" fill="#263238"/>
<path d="M114.836 88.6665H308.192C309.643 88.6665 311.035 89.2429 312.061 90.2689C313.087 91.2948 313.663 92.6864 313.663 94.1373V212.989H109.365V94.1373C109.365 92.6864 109.942 91.2948 110.968 90.2689C111.994 89.2429 113.385 88.6665 114.836 88.6665V88.6665Z" fill="#263238"/>
<path d="M258.402 239.215C258.402 239.288 241.386 239.345 220.405 239.345C199.425 239.345 182.409 239.288 182.409 239.215C182.409 239.142 199.419 239.091 220.405 239.091C241.392 239.091 258.402 239.136 258.402 239.215Z" fill="#263238"/>
<path d="M144.773 98.4857H129.884V101.627H144.773V98.4857Z" fill="#455A64"/>
<path d="M137.329 112.563H129.884V115.705H137.329V112.563Z" fill="#00AFDB"/>
<path d="M145.975 119.641H135.49V122.783H145.975V119.641Z" fill="#455A64"/>
<path d="M153.746 119.641H147.638V122.783H153.746V119.641Z" fill="#455A64"/>
<path d="M208.522 119.641H195.956V122.783H208.522V119.641Z" fill="#455A64"/>
<path d="M245.238 126.539H224.015V129.681H245.238V126.539Z" fill="#455A64"/>
<path d="M277.979 119.641H267.787V122.783H277.979V119.641Z" fill="#455A64"/>
<path d="M301.599 119.641H281.103V122.783H301.599V119.641Z" fill="#455A64"/>
<path d="M145.975 126.539H135.49V129.681H145.975V126.539Z" fill="#455A64"/>
<path d="M139.528 133.42H129.043V136.561H139.528V133.42Z" fill="#00AFDB"/>
<path d="M139.533 140.306H134.632V143.448H139.533V140.306Z" fill="#455A64"/>
<path d="M157.508 154.801H152.613V157.943H157.508V154.801Z" fill="#455A64"/>
<path d="M229.565 180.993H219.994V184.135H229.565V180.993Z" fill="#455A64"/>
<path d="M283.032 180.993H259.586V184.135H283.032V180.993Z" fill="#455A64"/>
<path d="M193.531 174.118H183.96V177.26H193.531V174.118Z" fill="#E0E0E0"/>
<path d="M158.856 168.219H149.285V171.36H158.856V168.219Z" fill="#455A64"/>
<path d="M218.009 180.993H202.916V184.135H218.009V180.993Z" fill="#455A64"/>
<path d="M142.579 147.311H134.632V150.453H142.579V147.311Z" fill="#455A64"/>
<path d="M149.375 154.92H134.632V158.061H149.375V154.92Z" fill="#455A64"/>
<path d="M156.205 160.74H134.632V163.881H156.205V160.74Z" fill="#455A64"/>
<path d="M195.291 160.74H173.718V163.881H195.291V160.74Z" fill="#455A64"/>
<path d="M179.386 174.118H149.093V177.26H179.386V174.118Z" fill="#455A64"/>
<path d="M200.327 180.993H149.093V184.135H200.327V180.993Z" fill="#455A64"/>
<path d="M184.828 187.874H133.595V191.016H184.828V187.874Z" fill="#455A64"/>
<path d="M171.428 160.74H158.484V163.881H171.428V160.74Z" fill="#455A64"/>
<path d="M154.818 140.306H141.462V143.448H154.818V140.306Z" fill="#455A64"/>
<path d="M157.762 147.317H144.407V150.458H157.762V147.317Z" fill="#455A64"/>
<path d="M209.503 147.317H174.141V150.458H209.503V147.317Z" fill="#455A64"/>
<path d="M251.302 147.317H210.462V150.458H251.302V147.317Z" fill="#455A64"/>
<path d="M171.01 147.317H159.956V150.458H171.01V147.317Z" fill="#455A64"/>
<path d="M174.152 140.306H156.646V143.448H174.152V140.306Z" fill="#455A64"/>
<path d="M185.832 140.306H176.086V143.448H185.832V140.306Z" fill="#E0E0E0"/>
<path d="M158.569 126.539H147.638V129.681H158.569V126.539Z" fill="#455A64"/>
<path d="M219.966 126.539H165.997V129.681H219.966V126.539Z" fill="#455A64"/>
<path d="M280.545 147.317H255.029V150.458H280.545V147.317Z" fill="#455A64"/>
<path d="M257.573 180.993H232.052V184.135H257.573V180.993Z" fill="#455A64"/>
<path d="M263.816 119.641H210.654V122.783H263.816V119.641Z" fill="#455A64"/>
<path d="M192.651 119.641H155.658V122.783H192.651V119.641Z" fill="#455A64"/>
<path d="M154.79 105.152H129.884V108.294H154.79V105.152Z" fill="#455A64"/>
<path d="M191.382 105.152H157.277V108.294H191.382V105.152Z" fill="#455A64"/>
<path d="M158.067 98.4857H147.103V101.627H158.067V98.4857Z" fill="#E0E0E0"/>
<path d="M124.446 98.4857H121.401V101.627H124.446V98.4857Z" fill="#455A64"/>
<path d="M124.446 105.366H121.401V108.508H124.446V105.366Z" fill="#455A64"/>
<path d="M124.446 112.242H121.401V115.383H124.446V112.242Z" fill="#455A64"/>
<path d="M124.446 119.117H121.401V122.258H124.446V119.117Z" fill="#455A64"/>
<path d="M124.446 125.992H121.401V129.133H124.446V125.992Z" fill="#455A64"/>
<path d="M124.446 132.867H121.401V136.009H124.446V132.867Z" fill="#455A64"/>
<path d="M124.446 139.742H121.401V142.884H124.446V139.742Z" fill="#455A64"/>
<path d="M124.446 146.617H121.401V149.759H124.446V146.617Z" fill="#455A64"/>
<path d="M124.446 153.493H121.401V156.634H124.446V153.493Z" fill="#455A64"/>
<path d="M156.307 202.724H151.412V205.866H156.307V202.724Z" fill="#E0E0E0"/>
<path d="M148.433 202.724H133.69V205.866H148.433V202.724Z" fill="#00AFDB"/>
<path d="M124.446 202.375H121.401V205.516H124.446V202.375Z" fill="#455A64"/>
<path d="M124.446 160.368H121.401V163.509H124.446V160.368Z" fill="#455A64"/>
<path d="M124.446 167.243H121.401V170.384H124.446V167.243Z" fill="#455A64"/>
<path d="M124.446 174.118H121.401V177.26H124.446V174.118Z" fill="#455A64"/>
<path d="M124.446 180.993H121.401V184.135H124.446V180.993Z" fill="#455A64"/>
<path d="M124.446 187.874H121.401V191.016H124.446V187.874Z" fill="#455A64"/>
<path d="M148.529 195.104H133.595V198.246H148.529V195.104Z" fill="#455A64"/>
<path d="M185.201 195.104H151.412V198.246H185.201V195.104Z" fill="#455A64"/>
<path d="M124.446 195.104H121.401V198.246H124.446V195.104Z" fill="#455A64"/>
<path d="M206.509 105.13H195.544V108.271H206.509V105.13Z" fill="#E0E0E0"/>
<g opacity="0.3">
<path d="M219.554 160.148H212.064V220.992H301.306L298.982 161.626L219.554 160.148Z" fill="black"/>
</g>
<path d="M307.109 151.152H217.811V215.245H307.109V151.152Z" fill="#E0E0E0"/>
<path d="M307.38 215.527H217.529V150.87H307.38V215.527ZM218.082 214.963H306.816V151.434H218.093L218.082 214.963Z" fill="#263238"/>
<path d="M249.204 157.999H234.765V161.045H249.204V157.999Z" fill="#455A64"/>
<path d="M241.984 171.648H234.765V174.693H241.984V171.648Z" fill="#00AFDB"/>
<path d="M250.365 178.512H240.196V181.557H250.365V178.512Z" fill="#455A64"/>
<path d="M257.906 178.512H251.984V181.557H257.906V178.512Z" fill="#455A64"/>
<path d="M250.365 185.206H240.196V188.252H250.365V185.206Z" fill="#455A64"/>
<path d="M244.122 191.878H233.953V194.924H244.122V191.878Z" fill="#00AFDB"/>
<path d="M244.116 198.551H239.367V201.596H244.116V198.551Z" fill="#455A64"/>
<path d="M247.077 205.347H239.367V208.392H247.077V205.347Z" fill="#455A64"/>
<path d="M258.944 198.551H245.994V201.596H258.944V198.551Z" fill="#455A64"/>
<path d="M261.798 205.352H248.848V208.398H261.798V205.352Z" fill="#455A64"/>
<path d="M293.004 205.352H277.686V208.398H293.004V205.352Z" fill="#455A64"/>
<path d="M274.645 205.352H263.929V208.398H274.645V205.352Z" fill="#455A64"/>
<path d="M277.697 198.551H260.72V201.596H277.697V198.551Z" fill="#455A64"/>
<path d="M289.022 198.551H279.569V201.596H289.022V198.551Z" fill="white"/>
<path d="M262.581 185.206H251.984V188.252H262.581V185.206Z" fill="#455A64"/>
<path d="M295.632 178.512H259.756V181.557H295.632V178.512Z" fill="#455A64"/>
<path d="M258.921 164.462H234.765V167.508H258.921V164.462Z" fill="#455A64"/>
<path d="M294.403 164.462H261.33V167.508H294.403V164.462Z" fill="#455A64"/>
<path d="M262.091 157.999H251.459V161.045H262.091V157.999Z" fill="white"/>
<path d="M229.486 157.999H226.536V161.045H229.486V157.999Z" fill="#455A64"/>
<path d="M229.486 164.665H226.536V167.711H229.486V164.665Z" fill="#455A64"/>
<path d="M229.486 171.338H226.536V174.383H229.486V171.338Z" fill="#455A64"/>
<path d="M229.486 178.004H226.536V181.05H229.486V178.004Z" fill="#455A64"/>
<path d="M229.486 184.671H226.536V187.716H229.486V184.671Z" fill="#455A64"/>
<path d="M229.486 191.337H226.536V194.383H229.486V191.337Z" fill="#455A64"/>
<path d="M229.486 198.009H226.536V201.055H229.486V198.009Z" fill="#455A64"/>
<path d="M229.486 204.676H226.536V207.721H229.486V204.676Z" fill="#455A64"/>
<g opacity="0.3">
<path d="M169.685 238.871C170.813 233.231 167.147 216.362 167.147 216.362L139.725 219.847L138.597 238.747L169.685 238.871Z" fill="black"/>
</g>
<path d="M134.796 216.362C134.796 216.362 136.003 238.792 130.972 246.507L165.122 247.348C165.122 247.348 167.773 234.246 167.17 216.362H134.796Z" fill="#00AFDB"/>
<path d="M167.057 220.705C167.057 220.783 159.945 220.851 151.18 220.851C142.416 220.851 135.304 220.783 135.304 220.705C135.304 220.626 142.41 220.558 151.18 220.558C159.951 220.558 167.057 220.626 167.057 220.705Z" fill="#263238"/>
<path d="M163.261 228.381C163.261 228.459 157.576 228.527 150.571 228.527C143.566 228.527 137.881 228.459 137.881 228.381C137.881 228.302 143.56 228.234 150.571 228.234C157.581 228.234 163.261 228.302 163.261 228.381Z" fill="#263238"/>
<path d="M163.56 232.571C163.56 232.65 157.881 232.718 150.87 232.718C143.86 232.718 138.18 232.65 138.18 232.571C138.18 232.492 143.86 232.424 150.865 232.424C157.869 232.424 163.56 232.492 163.56 232.571Z" fill="#263238"/>
<path d="M162.742 236.762C162.742 236.84 157.057 236.908 150.052 236.908C143.047 236.908 137.362 236.84 137.362 236.762C137.362 236.683 143.042 236.615 150.052 236.615C157.063 236.615 162.742 236.683 162.742 236.762Z" fill="#263238"/>
<g opacity="0.3">
<path d="M129.156 216.779C129.156 216.779 130.617 233.383 130.617 239.288H126.409L129.156 216.779Z" fill="black"/>
</g>
<path d="M119.066 216.779C119.066 216.779 120.273 239.215 115.242 246.925H126.488C126.488 246.925 129.72 234.663 129.156 216.779H119.066Z" fill="#E0E0E0"/>
<path d="M276.275 119.23L295.186 97.493L276.146 83.6637L291.086 74.871C291.086 74.871 314.52 89.112 314.21 97.6622C313.934 105.445 284.391 125.135 284.391 125.135L276.275 119.23Z" fill="#FFBF9D"/>
<path d="M261.442 168.636C259.196 172.322 256.11 175.425 252.437 177.693C248.764 179.961 244.607 181.329 240.305 181.685C236.004 182.042 231.678 181.378 227.682 179.746C223.685 178.114 220.131 175.562 217.308 172.296C214.485 169.031 212.474 165.144 211.437 160.954C210.401 156.763 210.369 152.387 211.344 148.182C212.32 143.977 214.275 140.062 217.05 136.756C219.825 133.45 223.342 130.846 227.314 129.156V129.156C232.655 126.884 238.579 126.367 244.233 127.678C249.886 128.99 254.978 132.062 258.773 136.453C262.568 140.843 264.872 146.326 265.351 152.11C265.831 157.893 264.462 163.68 261.442 168.636ZM216.215 141.068C213.043 146.27 211.834 152.434 212.805 158.449C213.776 164.464 216.864 169.934 221.512 173.873C226.16 177.813 232.062 179.962 238.155 179.934C244.248 179.907 250.13 177.703 254.742 173.722C259.354 169.74 262.392 164.242 263.308 158.219C264.225 152.195 262.959 146.042 259.74 140.869C256.521 135.696 251.56 131.844 245.751 130.005C239.943 128.167 233.668 128.464 228.059 130.842C223.143 132.921 219.001 136.487 216.215 141.04V141.068Z" fill="#00AFDB"/>
<g opacity="0.3">
<path d="M261.442 168.636C259.196 172.322 256.11 175.425 252.437 177.693C248.764 179.961 244.607 181.329 240.305 181.685C236.004 182.042 231.678 181.378 227.682 179.746C223.685 178.114 220.131 175.562 217.308 172.296C214.485 169.031 212.474 165.144 211.437 160.954C210.401 156.763 210.369 152.387 211.344 148.182C212.32 143.977 214.275 140.062 217.05 136.756C219.825 133.45 223.342 130.846 227.314 129.156V129.156C232.655 126.884 238.579 126.367 244.233 127.678C249.886 128.99 254.978 132.062 258.773 136.453C262.568 140.843 264.872 146.326 265.351 152.11C265.831 157.893 264.462 163.68 261.442 168.636ZM216.215 141.068C213.043 146.27 211.834 152.434 212.805 158.449C213.776 164.464 216.864 169.934 221.512 173.873C226.16 177.813 232.062 179.962 238.155 179.934C244.248 179.907 250.13 177.703 254.742 173.722C259.354 169.74 262.392 164.242 263.308 158.219C264.225 152.195 262.959 146.042 259.74 140.869C256.521 135.696 251.56 131.844 245.751 130.005C239.943 128.167 233.668 128.464 228.059 130.842C223.143 132.921 219.001 136.487 216.215 141.04V141.068Z" fill="black"/>
</g>
<path d="M260.331 167.406C258.085 171.093 254.999 174.196 251.326 176.463C247.653 178.731 243.497 180.099 239.195 180.456C234.893 180.813 230.567 180.148 226.571 178.517C222.575 176.885 219.02 174.332 216.197 171.067C213.374 167.801 211.363 163.915 210.326 159.724C209.29 155.534 209.258 151.158 210.234 146.953C211.209 142.748 213.164 138.833 215.939 135.526C218.714 132.22 222.231 129.616 226.204 127.926V127.926C231.544 125.655 237.468 125.137 243.122 126.449C248.775 127.76 253.867 130.833 257.662 135.223C261.457 139.614 263.761 145.096 264.241 150.88C264.72 156.664 263.351 162.451 260.331 167.406V167.406ZM215.104 139.838C211.935 145.04 210.729 151.203 211.702 157.216C212.675 163.229 215.764 168.696 220.412 172.633C225.06 176.57 230.962 178.717 237.053 178.687C243.144 178.657 249.024 176.453 253.634 172.471C258.243 168.49 261.279 162.992 262.194 156.97C263.108 150.948 261.842 144.797 258.623 139.626C255.403 134.455 250.443 130.604 244.636 128.767C238.828 126.93 232.555 127.228 226.948 129.607C222.027 131.694 217.884 135.273 215.104 139.838V139.838Z" fill="#00AFDB"/>
<path d="M300.195 117.019L301.266 118.711C302.231 120.2 301.052 122.602 298.942 123.578L263.168 145.484L259.829 140.6L294.701 116.184C296.957 114.458 298.954 115.101 300.195 117.019Z" fill="#00AFDB"/>
<path d="M238.053 130.369C237.903 130.383 237.752 130.383 237.602 130.369C237.309 130.369 236.875 130.329 236.316 130.369C234.74 130.435 233.178 130.691 231.663 131.13C230.616 131.436 229.591 131.813 228.595 132.258C227.458 132.772 226.357 133.363 225.301 134.029C224.133 134.758 223.026 135.581 221.991 136.488C220.871 137.456 219.842 138.525 218.917 139.68C218 140.839 217.197 142.084 216.52 143.397C215.909 144.633 215.404 145.917 215.008 147.238C214.351 149.483 214.038 151.814 214.078 154.152C214.099 155.729 214.288 157.298 214.642 158.834C214.743 159.398 214.895 159.792 214.958 160.086C215.007 160.227 215.041 160.372 215.059 160.52C214.997 160.385 214.944 160.245 214.901 160.103C214.822 159.815 214.653 159.409 214.529 158.862C214.127 157.325 213.902 155.746 213.858 154.158C213.788 151.795 214.084 149.436 214.738 147.165C215.129 145.824 215.636 144.52 216.255 143.267C216.936 141.932 217.749 140.668 218.68 139.494C219.617 138.326 220.659 137.246 221.793 136.268C222.849 135.347 223.981 134.517 225.177 133.786C226.245 133.118 227.361 132.53 228.516 132.027C229.527 131.596 230.565 131.235 231.624 130.944C233.153 130.525 234.73 130.304 236.316 130.284C236.749 130.277 237.182 130.292 237.613 130.329C237.761 130.331 237.908 130.344 238.053 130.369Z" fill="white"/>
<path d="M259.44 159.674C259.372 159.674 259.88 158.422 260.235 156.318C260.275 156.053 260.32 155.754 260.359 155.495C260.399 155.235 260.41 154.903 260.444 154.592C260.512 153.972 260.5 153.301 260.512 152.596C260.46 149.537 259.75 146.524 258.43 143.764C258.109 143.138 257.821 142.534 257.483 142.01C257.319 141.745 257.173 141.479 257.009 141.237C256.846 140.994 256.682 140.774 256.53 140.554C255.272 138.834 254.274 137.954 254.319 137.904C254.564 138.094 254.796 138.301 255.013 138.524C255.283 138.768 255.536 139.032 255.768 139.314C256.099 139.671 256.408 140.047 256.693 140.442C256.857 140.656 257.02 140.882 257.195 141.118C257.37 141.355 257.517 141.62 257.692 141.891C258.051 142.46 258.38 143.048 258.679 143.651C259.344 145.048 259.865 146.508 260.235 148.011C260.582 149.517 260.771 151.056 260.799 152.602C260.799 153.312 260.799 153.989 260.703 154.621C260.669 154.931 260.653 155.241 260.602 155.529C260.551 155.816 260.5 156.093 260.455 156.358C260.371 156.835 260.261 157.307 260.128 157.773C260.044 158.128 259.934 158.477 259.801 158.817C259.705 159.112 259.584 159.399 259.44 159.674V159.674Z" fill="white"/>
<path d="M242.52 140.261C242.577 140.323 238.888 143.775 234.28 147.977C229.672 152.179 225.899 155.54 225.82 155.478C225.741 155.416 229.452 151.964 234.06 147.768C238.668 143.572 242.441 140.199 242.52 140.261Z" fill="white"/>
<path d="M249.536 144.711C249.455 144.801 249.367 144.884 249.271 144.959L248.482 145.636L245.56 148.101C243.09 150.176 239.683 153.053 235.972 156.273C232.261 159.493 228.905 162.443 226.497 164.586L223.632 167.124L222.848 167.807C222.761 167.892 222.664 167.965 222.56 168.027C222.635 167.931 222.718 167.843 222.808 167.762L223.558 167.04C224.213 166.414 225.166 165.528 226.378 164.434C228.758 162.251 232.075 159.274 235.803 156.047C239.531 152.821 242.96 149.979 245.47 147.943C246.722 146.922 247.726 146.104 248.453 145.551L249.277 144.914C249.355 144.836 249.442 144.768 249.536 144.711V144.711Z" fill="white"/>
<g opacity="0.3">
<path d="M215.262 165.968L252.886 133.504C252.886 133.504 256.603 136.324 258.182 138.896L219.678 172.02C217.832 170.304 216.332 168.25 215.262 165.968V165.968Z" fill="white"/>
</g>
<g opacity="0.3">
<path d="M223.801 175.066L260.461 143.132C260.461 143.132 260.641 142.833 261.143 145.128L225.6 176.064C224.932 175.872 224.317 175.531 223.801 175.066V175.066Z" fill="white"/>
</g>
<path d="M276.275 119.23C276.275 119.23 265.244 131.384 264.995 131.841C264.747 132.297 261.775 139.314 262.508 140.735C263.241 142.156 268.769 147.148 268.769 147.148C268.769 147.148 270.743 146.296 268.876 142.957L267.009 139.624L268.013 136.24C268.013 136.24 269.502 140.509 270.365 141.446C271.228 142.382 274.645 143.984 275.503 143.138C276.014 142.648 276.359 142.011 276.49 141.316C276.49 141.316 278.83 143.177 280.483 140.216C280.483 140.216 282.564 139.895 283.455 138.439C284.346 136.984 284.256 134.232 284.256 134.232C284.17 134.052 284.044 133.895 283.889 133.77C283.733 133.646 283.551 133.559 283.357 133.515C283.163 133.471 282.961 133.472 282.767 133.517C282.573 133.562 282.392 133.65 282.237 133.775C281.353 134.447 280.67 135.348 280.263 136.381L279.298 135.095C279.55 133.359 280.045 131.667 280.77 130.07C281.442 128.784 285.773 125.981 286.286 123.747C286.721 121.858 282.942 120.606 281.002 120.713C280.711 120.729 280.424 120.788 280.15 120.888L276.275 119.23Z" fill="#FFBF9D"/>
<path d="M275.317 134.751C275.299 134.861 275.299 134.973 275.317 135.084C275.342 135.381 275.393 135.675 275.469 135.963C275.717 136.929 276.211 137.815 276.903 138.533C277.595 139.252 278.461 139.779 279.417 140.064C279.704 140.15 279.998 140.211 280.297 140.244C280.405 140.262 280.515 140.262 280.624 140.244C280.624 140.21 280.156 140.177 279.451 139.94C278.529 139.631 277.693 139.107 277.014 138.411C276.347 137.706 275.854 136.854 275.576 135.924C275.362 135.219 275.345 134.751 275.317 134.751Z" fill="#FF9A6C"/>
<path d="M271.605 134.384C271.593 134.501 271.593 134.618 271.605 134.734C271.612 134.872 271.627 135.01 271.651 135.146C271.669 135.335 271.699 135.524 271.741 135.71C271.845 136.173 271.987 136.628 272.164 137.069C272.609 138.15 273.273 139.128 274.115 139.94C274.462 140.274 274.839 140.574 275.243 140.836C275.407 140.955 275.57 141.04 275.706 141.124C275.841 141.209 275.971 141.265 276.072 141.31C276.176 141.368 276.285 141.414 276.399 141.446C276.399 141.417 275.96 141.209 275.311 140.741C274.929 140.468 274.57 140.165 274.239 139.833C273.835 139.427 273.469 138.985 273.145 138.513C272.792 138.016 272.479 137.492 272.209 136.945C272.059 136.535 271.945 136.112 271.871 135.682C271.668 134.881 271.639 134.379 271.605 134.384Z" fill="#FF9A6C"/>
<path d="M267.381 133.504C267.381 133.504 267.285 133.668 267.246 133.961C267.205 134.343 267.251 134.728 267.381 135.089C267.495 135.463 267.71 135.799 268.001 136.059C268.216 136.262 268.379 136.347 268.391 136.33C268.023 135.958 267.731 135.517 267.533 135.033C267.386 134.538 267.334 134.019 267.381 133.504V133.504Z" fill="#FF9A6C"/>
<path d="M305.428 96.2015C305.428 96.2466 304.825 95.8405 303.776 95.4627C302.414 94.9682 300.948 94.8303 299.518 95.0622C298.092 95.3209 296.775 95.996 295.733 97.0024C294.921 97.7638 294.521 98.3391 294.476 98.3109C294.536 98.1547 294.621 98.0098 294.729 97.8822C294.988 97.5164 295.276 97.173 295.592 96.8557C296.63 95.7551 297.995 95.0176 299.484 94.752C300.963 94.5104 302.48 94.6842 303.866 95.254C304.284 95.4209 304.685 95.6287 305.062 95.8744C305.304 96.0718 305.44 96.1846 305.428 96.2015Z" fill="#FF9A6C"/>
<path d="M248.233 45.9434C248.233 42.2492 248.233 38.5324 247.59 34.889C246.947 31.2455 245.678 27.6529 243.388 24.737C243.039 24.2971 240.371 21.4601 239.858 21.6801C239.491 21.8437 241.476 24.6524 241.392 25.0641C240.58 28.7978 241.302 32.7401 242.768 36.2708C244.225 39.6898 246.058 42.9359 248.233 45.949" fill="#263238"/>
<path d="M244.212 32.4131C241.646 23.5019 234.325 17.5686 225.487 20.383L224.687 20.6875C220.798 22.1807 217.614 25.0828 215.767 28.8166C213.921 32.5505 213.547 36.8425 214.721 40.8393C216.977 48.5492 219.594 57.0373 221.178 61.0305C224.472 69.2987 233.276 67.4037 233.276 67.4037L238.77 80.0373L256.254 71.0753L244.212 32.4131Z" fill="#FFBF9D"/>
<path d="M233.315 67.4657C237.146 65.9871 240.473 63.4428 242.903 60.1337C242.903 60.1337 243.152 67.8999 234.573 70.3364L233.315 67.4657Z" fill="#FF9A6C"/>
<path d="M220.643 48.3292C220.76 48.6369 220.994 48.8864 221.293 49.0244C221.592 49.1625 221.934 49.1781 222.244 49.068C222.4 49.0224 222.544 48.9461 222.669 48.8438C222.794 48.7414 222.898 48.6151 222.974 48.4721C223.049 48.3292 223.096 48.1725 223.11 48.0114C223.124 47.8503 223.106 47.6879 223.057 47.5339C222.934 47.2302 222.699 46.9855 222.401 46.851C222.102 46.7164 221.763 46.7025 221.455 46.812C221.301 46.8578 221.159 46.9335 221.035 47.0347C220.911 47.1359 220.808 47.2606 220.733 47.4016C220.657 47.5426 220.611 47.6972 220.595 47.8564C220.58 48.0156 220.596 48.1763 220.643 48.3292V48.3292Z" fill="#263238"/>
<path d="M217.839 43.6028C218.048 43.7043 218.691 42.6947 219.971 42.2041C221.251 41.7134 222.43 42.001 222.504 41.7923C222.549 41.6965 222.289 41.4709 221.77 41.3299C221.071 41.16 220.336 41.2112 219.667 41.4765C219.002 41.7269 218.435 42.1834 218.048 42.7793C217.766 43.2305 217.743 43.5633 217.839 43.6028Z" fill="#263238"/>
<path d="M231.556 44.4997C231.67 44.8106 231.902 45.0643 232.202 45.2066C232.501 45.3489 232.844 45.3684 233.158 45.2611C233.313 45.2154 233.458 45.139 233.584 45.0363C233.71 44.9336 233.814 44.8066 233.889 44.663C233.965 44.5194 234.011 44.3621 234.025 44.2003C234.039 44.0386 234.02 43.8757 233.97 43.7213C233.855 43.4104 233.623 43.1567 233.324 43.0144C233.025 42.8721 232.682 42.8526 232.368 42.9599C232.213 43.0062 232.068 43.0831 231.943 43.186C231.817 43.2888 231.714 43.4157 231.638 43.5591C231.563 43.7025 231.516 43.8596 231.502 44.0211C231.488 44.1826 231.506 44.3453 231.556 44.4997V44.4997Z" fill="#263238"/>
<path d="M230.541 39.3221C230.75 39.4236 231.392 38.4084 232.673 37.9234C233.953 37.4383 235.126 37.7203 235.205 37.506C235.25 37.4158 234.991 37.1902 234.472 37.0492C233.773 36.8801 233.039 36.9293 232.368 37.1902C231.703 37.4444 231.134 37.9024 230.744 38.4987C230.473 38.9499 230.445 39.2826 230.541 39.3221Z" fill="#263238"/>
<path d="M229.728 50.8898C229.728 50.8108 228.86 50.98 227.512 51.3071C227.173 51.403 226.841 51.4538 226.7 51.2507C226.54 50.9258 226.486 50.5587 226.547 50.2017C226.547 49.2993 226.547 48.3461 226.547 47.3535C226.547 43.304 226.384 40.0215 226.22 40.0215C226.057 40.0215 225.938 43.3096 225.955 47.3535C225.955 48.3518 225.955 49.2993 225.989 50.2073C225.939 50.6784 226.052 51.1525 226.311 51.5496C226.403 51.6459 226.516 51.7203 226.641 51.7671C226.766 51.814 226.9 51.8322 227.032 51.8204C227.225 51.7977 227.414 51.7523 227.596 51.685C228.944 51.262 229.751 50.9631 229.728 50.8898Z" fill="#263238"/>
<path d="M233.823 50.3313C233.609 50.399 234.139 51.7808 233.333 53.219C232.526 54.6572 230.992 55.0746 231.077 55.272C231.077 55.3678 231.511 55.413 232.137 55.193C232.946 54.895 233.626 54.3247 234.06 53.58C234.472 52.8542 234.587 51.9973 234.382 51.1886C234.201 50.5682 233.914 50.2862 233.823 50.3313Z" fill="#263238"/>
<path d="M228.623 34.1164C228.882 34.4153 230.095 33.7611 231.663 33.3663C233.231 32.9715 234.596 32.9151 234.675 32.5316C234.709 32.3454 234.37 32.1029 233.755 31.9676C232.945 31.8002 232.107 31.8253 231.308 32.0409C230.508 32.2382 229.767 32.6251 229.148 33.1689C228.679 33.5919 228.51 33.9754 228.623 34.1164Z" fill="#263238"/>
<path d="M216.74 39.1585C217.078 39.3615 217.84 38.7242 218.894 38.3068C219.949 37.8895 220.919 37.7428 221.009 37.3649C221.043 37.1845 220.789 36.9476 220.293 36.8009C219.642 36.6791 218.97 36.7509 218.359 37.0076C217.748 37.2642 217.227 37.6944 216.858 38.2448C216.576 38.7129 216.576 39.0569 216.74 39.1585Z" fill="#263238"/>
<path d="M245.904 38.8257C246.022 38.7073 250.98 34.9454 252.959 40.6926C254.939 46.4397 248.791 47.2632 248.724 47.0996C248.656 46.9361 245.904 38.8257 245.904 38.8257Z" fill="#FFBF9D"/>
<path d="M249.722 44.3135C249.722 44.3135 249.846 44.3473 250.044 44.3642C250.317 44.3849 250.589 44.2979 250.799 44.1217C251.324 43.6874 251.504 42.5482 251.172 41.4991C251.019 41.0043 250.761 40.5483 250.416 40.1624C250.299 40.0024 250.145 39.8731 249.967 39.7856C249.789 39.6982 249.593 39.6553 249.395 39.6605C249.271 39.6742 249.155 39.7287 249.065 39.8154C248.975 39.9022 248.917 40.0163 248.899 40.1399C248.899 40.326 248.955 40.4275 248.927 40.4501C248.899 40.4726 248.769 40.3937 248.735 40.1399C248.715 39.9858 248.751 39.8295 248.837 39.7C248.953 39.5258 249.133 39.4043 249.339 39.3616C249.591 39.3263 249.848 39.3566 250.085 39.4494C250.322 39.5423 250.531 39.6946 250.692 39.8917C251.112 40.3027 251.423 40.8128 251.595 41.375C251.961 42.5425 251.747 43.8341 250.997 44.3642C250.859 44.4621 250.7 44.5277 250.533 44.556C250.366 44.5843 250.195 44.5747 250.032 44.5278C249.778 44.4488 249.705 44.3304 249.722 44.3135Z" fill="#FF9A6C"/>
<path d="M215.251 30.0274C214.123 29.83 215.922 25.8594 217.862 24.049C220.795 21.3023 225.758 18.55 229.266 18.3751C233.479 18.1664 237.32 19.0012 240.433 21.8494C243.501 24.7833 245.73 28.4825 246.891 32.5654C247.354 33.7742 247.484 35.0848 247.269 36.3611C246.891 37.9064 245.622 39.2318 246.282 40.969C246.412 41.2798 246.479 41.6134 246.479 41.9503C246.479 42.2873 246.412 42.6208 246.282 42.9317C245.605 44.4094 243.958 43.789 243.011 42.9317C240.98 41.1043 239.926 38.4535 238.944 35.9042C238.245 34.0938 237.534 32.2382 237.455 30.2981C237.416 29.2434 237.563 28.1831 237.455 27.1284C237.437 26.5988 237.304 26.0795 237.065 25.6063C236.827 25.1331 236.488 24.7172 236.074 24.3874C235.873 24.2628 235.662 24.1571 235.442 24.0715C234.401 23.6416 233.265 23.4964 232.15 23.6511C231.035 23.8057 229.981 24.2545 229.097 24.9514C226.237 27.2074 221.274 30.7831 219.453 30.174C216.836 29.2885 215.984 28.4256 215.984 28.4256L215.251 30.0274Z" fill="#263238"/>
<path d="M206.554 83.5171C206.554 83.5171 205.73 81.1934 208.522 78.0688C211.314 74.9443 233.44 68.8079 233.44 68.8079C233.44 68.8079 241.482 77.9166 248.442 71.6956C253.518 67.1836 253.687 62.6716 253.687 62.6716H273.709L276.208 83.2407L268.227 83.2858L206.554 83.5171Z" fill="#00AFDB"/>
<path d="M270.071 62.666C270.071 62.666 275.294 61.6113 280.065 63.794C288.08 67.4318 302.005 79.022 302.005 79.022L285.085 92.9246L273.354 83.3028L270.071 62.666Z" fill="#00AFDB"/>
<path d="M277.347 86.6247C277.269 86.5964 277.195 86.5585 277.127 86.5119C276.992 86.4273 276.789 86.3032 276.563 86.1284C275.86 85.6412 275.194 85.102 274.572 84.5153C273.639 83.6491 272.798 82.689 272.062 81.6502C271.127 80.3837 270.488 78.9224 270.195 77.3751C269.631 74.0926 270.122 70.9793 271.182 69.0617C271.589 68.2968 272.15 67.6246 272.829 67.0877C273.018 66.95 273.216 66.8256 273.422 66.7155C273.557 66.6365 273.636 66.5971 273.641 66.6083C273.647 66.6196 273.371 66.8114 272.897 67.1723C272.265 67.7295 271.745 68.4012 271.363 69.152C270.382 71.0414 269.908 74.0983 270.483 77.3131C270.77 78.8193 271.384 80.2441 272.282 81.4867C272.997 82.5204 273.811 83.4819 274.713 84.3574C275.321 84.9564 275.961 85.5212 276.631 86.0494C276.879 86.2283 277.119 86.4204 277.347 86.6247V86.6247Z" fill="#263238"/>
<path d="M273.337 83.252C273.337 83.3309 259.553 83.455 242.548 83.5227C225.544 83.5904 211.754 83.5791 211.754 83.4945C211.754 83.4099 225.538 83.2971 242.548 83.2294C259.559 83.1617 273.337 83.1674 273.337 83.252Z" fill="#263238"/>
<path d="M199.34 80.4376C199.38 80.5222 199.413 80.6068 199.447 80.6914C199.586 81.0918 199.67 81.5093 199.695 81.9322C199.694 82.1319 199.703 82.3315 199.724 82.5301C199.769 82.6507 199.824 82.7676 199.887 82.8797C200.135 83.6782 200.21 84.5203 200.107 85.3501C200.001 86.2556 200.16 87.1724 200.564 87.9896C201.038 88.7679 202.138 89.2247 202.888 88.7059C202.851 88.9929 202.921 89.2834 203.084 89.5223C203.248 89.7613 203.493 89.9323 203.773 90.0031C204.057 90.0642 204.352 90.0512 204.63 89.9653C204.907 89.8794 205.158 89.7234 205.358 89.5124C205.755 89.0884 206.028 88.5636 206.148 87.9952C206.159 88.3349 206.302 88.6568 206.546 88.8935C206.79 89.1301 207.116 89.263 207.456 89.2642C207.796 89.2482 208.126 89.1468 208.415 88.9694C208.705 88.7919 208.946 88.5441 209.114 88.249C209.44 87.6526 209.633 86.9926 209.678 86.3145C209.767 85.4427 209.905 84.5766 210.09 83.7201C210.09 83.7201 210.942 83.8611 211.331 83.8949H211.444C211.785 83.4695 212.059 82.9939 212.256 82.4849C212.82 81.3569 213.214 80.6576 213.626 79.6649C213.942 78.9092 214.139 78.1478 213.671 77.6571C212.543 76.4671 210.332 78.8866 210.332 78.8866C210.017 78.0406 207.45 77.9053 206.948 79.0276C206.745 78.4072 206.824 78.0519 206.322 77.6345C206.077 77.4214 205.784 77.269 205.469 77.1897C205.153 77.1103 204.824 77.1062 204.506 77.1777C204.186 77.2548 203.9 77.4373 203.696 77.6961C203.491 77.9548 203.379 78.2748 203.378 78.6046C203.104 78.1821 202.708 77.8522 202.244 77.658C201.779 77.4638 201.266 77.4144 200.773 77.5161C200.182 77.6606 199.666 78.0181 199.323 78.52C199.154 78.7668 199.029 79.0418 198.957 79.3322C198.916 79.4405 198.895 79.555 198.895 79.6706C198.904 79.7218 198.921 79.7713 198.945 79.8172C199.092 80.0203 199.239 80.212 199.34 80.4376Z" fill="#FFBF9D"/>
<path d="M196.627 78.7965C196.349 78.7654 196.067 78.7952 195.801 78.8838C195.535 78.9724 195.292 79.1177 195.087 79.3097C194.678 79.9403 194.508 80.6965 194.608 81.4416C195.381 81.5883 195.781 81.6221 196.559 81.7688C196.723 81.797 196.858 81.7688 196.994 81.8534C197.349 82.1072 197.293 82.9814 197.434 83.3762C197.586 83.7253 197.865 84.0032 198.216 84.1531C198.566 84.303 198.96 84.3135 199.317 84.1827C199.668 84.0316 199.968 83.7838 200.183 83.4681C200.398 83.1524 200.518 82.7821 200.53 82.4004C200.535 81.6309 200.254 80.8869 199.74 80.3136C199.354 79.8597 198.878 79.4905 198.342 79.2294C197.807 78.9683 197.223 78.8209 196.627 78.7965V78.7965Z" fill="#FFBF9D"/>
<path d="M203.412 78.396C203.559 78.396 203.559 80.7253 203.412 83.5792C203.266 86.433 203.029 88.7398 202.888 88.7341C202.747 88.7285 202.741 86.4048 202.888 83.551C203.034 80.6971 203.271 78.3622 203.412 78.396Z" fill="#FF9A6C"/>
<path d="M206.988 78.8585C207.129 78.8585 207.315 80.9679 207.09 83.5623C206.864 86.1567 206.323 88.2096 206.187 88.1814C206.052 88.1532 206.351 86.0777 206.565 83.5172C206.779 80.9566 206.825 78.8642 206.988 78.8585Z" fill="#FF9A6C"/>
<path d="M210.462 79.3379C210.609 79.3379 210.671 81.0919 210.395 83.2239C210.118 85.3558 209.797 87.0421 209.662 87.0309C209.526 87.0196 209.605 85.2712 209.876 83.1562C210.147 81.0412 210.316 79.3323 210.462 79.3379Z" fill="#FF9A6C"/>
<path d="M197.744 79.1575C197.744 79.0954 198.116 79.0108 198.652 79.259C199.328 79.605 199.84 80.2025 200.079 80.9228C200.33 81.6069 200.451 82.3319 200.435 83.0603C200.372 83.7033 199.904 83.8894 199.871 83.8048C199.837 83.7202 200.085 83.5228 200.04 83.049C199.945 82.3884 199.787 81.7386 199.566 81.1089C199.355 80.4961 198.961 79.9626 198.438 79.5805C198.066 79.2985 197.739 79.2364 197.744 79.1575Z" fill="#FF9A6C"/>
<path d="M283.219 257.861C285.847 256.154 287.927 253.725 289.211 250.867C290.496 248.008 290.929 244.84 290.46 241.742L296.862 237.545L297.77 236.981L348.456 203.762C350.9 205.316 353.714 206.192 356.609 206.298C359.503 206.404 362.374 205.737 364.925 204.366C367.476 202.995 369.616 200.969 371.125 198.497C372.634 196.025 373.457 193.195 373.509 190.299L370.548 189.786L367.322 194.298L359.906 192.736L355.766 186.391L357.328 178.968L363.493 174.947L359.319 173.853C354.897 172.55 352.444 173.61 348.282 176.329C345.663 178.037 343.591 180.462 342.312 183.315C341.033 186.168 340.601 189.328 341.068 192.42L289.535 226.198L287.939 227.236L283.055 230.433C280.413 228.76 277.346 227.881 274.219 227.902C271.092 227.923 268.038 228.843 265.419 230.552C261.273 233.253 255.684 238.876 255.081 243.428L258.025 243.913L264.189 239.892L271.611 241.454L275.751 247.799L274.189 255.221L267.551 257.094L268.019 259.243C270.472 260.272 273.141 260.684 275.791 260.443C278.44 260.202 280.991 259.315 283.219 257.861V257.861Z" fill="#E0E0E0"/>
<g opacity="0.3">
<path d="M283.219 257.861C285.847 256.154 287.927 253.725 289.211 250.867C290.496 248.008 290.929 244.84 290.46 241.742L296.862 237.545L297.77 236.981L348.456 203.762C350.9 205.316 353.714 206.192 356.609 206.298C359.503 206.404 362.374 205.737 364.925 204.366C367.476 202.995 369.616 200.969 371.125 198.497C372.634 196.025 373.457 193.195 373.509 190.299L370.548 189.786L367.322 194.298L359.906 192.736L355.766 186.391L357.328 178.968L363.493 174.947L359.319 173.853C354.897 172.55 352.444 173.61 348.282 176.329C345.663 178.037 343.591 180.462 342.312 183.315C341.033 186.168 340.601 189.328 341.068 192.42L289.535 226.198L287.939 227.236L283.055 230.433C280.413 228.76 277.346 227.881 274.219 227.902C271.092 227.923 268.038 228.843 265.419 230.552C261.273 233.253 255.684 238.876 255.081 243.428L258.025 243.913L264.189 239.892L271.611 241.454L275.751 247.799L274.189 255.221L267.551 257.094L268.019 259.243C270.472 260.272 273.141 260.684 275.791 260.443C278.44 260.202 280.991 259.315 283.219 257.861V257.861Z" fill="black"/>
</g>
<path d="M280.274 257.376C282.898 255.666 284.974 253.236 286.253 250.378C287.533 247.519 287.961 244.352 287.488 241.257L293.895 237.055L294.797 236.491L345.484 203.266C347.929 204.825 350.746 205.705 353.644 205.813C356.542 205.92 359.417 205.253 361.971 203.88C364.525 202.506 366.667 200.476 368.175 197.998C369.682 195.521 370.502 192.686 370.548 189.786L364.344 193.813L356.928 192.251L352.788 185.9L354.35 178.483L360.52 174.456C357.85 173.336 354.929 172.946 352.058 173.329C349.188 173.711 346.47 174.851 344.186 176.631C341.902 178.412 340.133 180.768 339.062 183.459C337.991 186.15 337.655 189.077 338.09 191.94L286.557 225.724L284.984 226.728L280.1 229.931C277.655 228.382 274.842 227.512 271.949 227.409C269.057 227.307 266.189 227.976 263.641 229.348C261.093 230.721 258.955 232.747 257.449 235.218C255.943 237.689 255.121 240.517 255.069 243.411L261.239 239.384L268.656 240.946L272.796 247.297L271.234 254.714L265.08 258.757C267.533 259.786 270.201 260.197 272.849 259.956C275.498 259.715 278.047 258.829 280.274 257.376V257.376Z" fill="#E0E0E0"/>
<path d="M280.274 257.376C280.274 257.376 279.981 257.567 279.4 257.94C278.51 258.438 277.58 258.861 276.62 259.203C272.843 260.495 268.724 260.358 265.041 258.82L264.939 258.78L265.035 258.718L271.2 254.685L271.166 254.725C271.645 252.441 272.164 249.953 272.717 247.308V247.37C271.425 245.385 270.032 243.253 268.571 241.025L268.628 241.059L261.205 239.508H261.279L255.109 243.541L254.951 243.642V243.456C254.991 240.686 255.735 237.971 257.113 235.567C258.49 233.163 260.455 231.148 262.824 229.712C265.368 228.143 268.295 227.306 271.284 227.292C274.418 227.286 277.488 228.17 280.139 229.841H280.009L338.039 191.816L337.977 191.952C337.525 188.892 337.938 185.766 339.167 182.928C340.349 180.22 342.239 177.881 344.638 176.156C347.037 174.431 349.856 173.384 352.799 173.125C355.457 172.894 358.131 173.31 360.594 174.338L360.836 174.445L360.616 174.586L354.446 178.613L354.508 178.523C353.985 181.016 353.465 183.488 352.946 185.939V185.838L357.085 192.183L357.001 192.127L364.417 193.689H364.316L370.486 189.668L370.7 189.532V189.78C370.643 192.796 369.756 195.737 368.138 198.282C366.519 200.827 364.231 202.877 361.524 204.207C358.953 205.494 356.086 206.078 353.216 205.899C350.445 205.715 347.762 204.845 345.411 203.367H345.54L287.51 241.324V241.262C287.899 243.937 287.632 246.666 286.732 249.215C286.074 251.067 285.088 252.787 283.822 254.291C283.048 255.196 282.18 256.016 281.233 256.738C280.573 257.195 280.235 257.421 280.235 257.421L281.211 256.71C282.148 255.98 283.007 255.156 283.777 254.251C285.265 252.469 286.356 250.39 286.978 248.154C287.601 245.917 287.74 243.574 287.386 241.279V241.24H287.42L345.382 203.187L345.45 203.147L345.518 203.187C347.833 204.643 350.475 205.498 353.205 205.674C356.032 205.855 358.856 205.283 361.389 204.016C364.043 202.701 366.285 200.682 367.87 198.18C369.454 195.677 370.32 192.787 370.373 189.825L370.576 189.938L364.406 193.965L364.361 193.993H364.305L356.888 192.437H356.832V192.392L352.686 186.041L352.658 185.996V185.939C353.173 183.484 353.694 181.012 354.22 178.523V178.466L354.265 178.433L360.436 174.411V174.654C358.013 173.635 355.379 173.222 352.76 173.451C350.142 173.68 347.62 174.544 345.411 175.968C342.764 177.69 340.682 180.151 339.421 183.046C338.211 185.84 337.806 188.917 338.253 191.929V192.014L338.18 192.065L280.167 230.05L280.099 230.089L280.032 230.05C277.415 228.396 274.38 227.523 271.284 227.534C268.407 227.551 265.586 228.331 263.108 229.794C260.631 231.258 258.587 233.353 257.184 235.865C255.9 238.182 255.203 240.779 255.154 243.428L254.996 243.343L261.2 239.322H261.239L268.656 240.89H268.69V240.924L272.824 247.274V247.303V247.337C272.26 249.976 271.735 252.463 271.25 254.753V254.781L265.046 258.797V258.695C268.704 260.231 272.795 260.386 276.558 259.13C277.519 258.797 278.451 258.384 279.344 257.895L280.274 257.376Z" fill="#263238"/>
<path d="M343.2 200.998C343.2 200.998 343.059 200.925 342.833 200.761C342.515 200.519 342.211 200.257 341.925 199.977C340.022 198.122 338.728 195.732 338.214 193.125C338.133 192.734 338.08 192.338 338.056 191.94C338.034 191.796 338.034 191.65 338.056 191.506C338.101 191.506 338.174 192.115 338.406 193.085C338.712 194.345 339.179 195.559 339.793 196.701C340.41 197.838 341.168 198.894 342.049 199.842C342.748 200.564 343.228 200.959 343.2 200.998Z" fill="#263238"/>
<path d="M118.017 49.068H77.5388C74.4645 49.068 71.9722 51.5603 71.9722 54.6347V95.113C71.9722 98.1873 74.4645 100.68 77.5388 100.68H118.017C121.092 100.68 123.584 98.1873 123.584 95.113V54.6347C123.584 51.5603 121.092 49.068 118.017 49.068Z" fill="#00AFDB"/>
<g opacity="0.3">
<path d="M118.017 49.068H77.5388C74.4645 49.068 71.9722 51.5603 71.9722 54.6347V95.113C71.9722 98.1873 74.4645 100.68 77.5388 100.68H118.017C121.092 100.68 123.584 98.1873 123.584 95.113V54.6347C123.584 51.5603 121.092 49.068 118.017 49.068Z" fill="black"/>
</g>
<path d="M110.448 49.068H69.97C66.8956 49.068 64.4033 51.5603 64.4033 54.6347V95.113C64.4033 98.1873 66.8956 100.68 69.97 100.68H110.448C113.523 100.68 116.015 98.1873 116.015 95.113V54.6347C116.015 51.5603 113.523 49.068 110.448 49.068Z" fill="#00AFDB"/>
<path d="M82.9418 63.3711C84.0067 62.7241 85.1546 62.2251 86.354 61.8877L87.0534 58.5037L92.7611 58.4022L93.5845 61.7524C94.7949 62.0498 95.9597 62.5089 97.0475 63.1173L99.9295 61.2222L104.041 65.1702L102.253 68.1199C102.895 69.1867 103.392 70.3342 103.731 71.5321L107.115 72.2371L107.216 77.9448L103.866 78.7683C103.568 79.9783 103.109 81.143 102.501 82.2312L104.396 85.1133L100.448 89.2192L97.4987 87.4313C96.4333 88.0773 95.2855 88.5762 94.0865 88.9146L93.3815 92.2986L87.6738 92.4001L86.856 89.0669C85.6467 88.766 84.4824 88.3071 83.393 87.702L80.511 89.5914L76.4051 85.6434L78.193 82.6993C77.547 81.632 77.048 80.4823 76.7096 79.2815L73.3256 78.5821L73.2241 72.8745L76.5743 72.051C76.8742 70.8415 77.3332 69.677 77.9392 68.5881L76.0498 65.706L79.9978 61.5945L82.9475 63.388L82.9418 63.3711ZM85.9818 70.9738C85.1399 71.8451 84.5754 72.9466 84.3596 74.1389C84.1438 75.3311 84.2865 76.5606 84.7695 77.6717C85.2526 78.7829 86.0544 79.7258 87.0734 80.3812C88.0924 81.0367 89.283 81.3751 90.4944 81.3538C91.7059 81.3325 92.8838 80.9524 93.8791 80.2615C94.8745 79.5707 95.6426 78.6001 96.0863 77.4727C96.53 76.3452 96.6293 75.1115 96.3717 73.9276C96.1141 72.7436 95.5112 71.6627 94.6392 70.8215C93.4707 69.6942 91.9024 69.0771 90.279 69.1056C88.6556 69.1342 87.11 69.8061 85.9818 70.9738V70.9738Z" fill="white"/>
<g opacity="0.3">
<path d="M104.419 49.068L64.4033 81.0299V87.2508L112.118 49.068H104.419Z" fill="white"/>
</g>
<g opacity="0.3">
<path d="M64.4543 94.5039L116.015 54.505V65.7342L69.8405 100.702C69.1281 100.702 68.4229 100.56 67.7654 100.286C67.1079 100.011 66.5112 99.6096 66.0095 99.1038C65.5079 98.5979 65.1112 97.9979 64.8424 97.3382C64.5735 96.6784 64.4378 95.972 64.443 95.2596L64.4543 94.5039Z" fill="white"/>
</g>
</svg>
