<svg width="366" height="366" viewBox="0 0 366 366" fill="none" xmlns="http://www.w3.org/2000/svg">
<path d="M272.663 203.789C272.417 204.285 272.029 204.696 271.547 204.969C271.066 205.242 270.513 205.365 269.962 205.32C269.41 205.276 268.884 205.068 268.452 204.722C268.02 204.375 267.702 203.908 267.539 203.379C267.202 202.222 266.455 200.451 264.918 199.719C262.546 198.548 259.948 199.631 258.615 202.317C257.283 205.004 258.015 207.734 260.387 208.905C261.917 209.637 263.776 209.184 264.896 208.744C265.414 208.551 265.978 208.518 266.515 208.649C267.053 208.78 267.538 209.069 267.909 209.479C268.28 209.889 268.519 210.402 268.595 210.949C268.671 211.497 268.581 212.055 268.336 212.551L260.036 229.343L297.726 247.028L306.137 229.248C306.382 228.752 306.771 228.34 307.252 228.067C307.734 227.794 308.286 227.672 308.838 227.716C309.39 227.76 309.915 227.969 310.347 228.315C310.779 228.661 311.098 229.129 311.261 229.658C311.598 230.814 312.344 232.586 313.881 233.318C316.253 234.489 318.852 233.406 320.184 230.712C321.516 228.018 320.784 225.302 318.413 224.124C316.883 223.392 315.023 223.846 313.903 224.277C313.55 224.413 313.172 224.474 312.794 224.455C312.416 224.436 312.046 224.338 311.707 224.168C310.346 223.494 309.511 221.884 310.156 220.508L317.249 205.392L279.917 187.875L272.663 203.789Z" fill="#EBEBEB"/>
<path d="M217.733 28.0722L201.3 32.8595L205.509 47.4995C205.867 48.8391 207.427 49.4247 208.766 49.066C209.097 48.9806 209.407 48.8272 209.675 48.6154C209.944 48.4037 210.165 48.1383 210.325 47.8362C210.838 46.8627 211.789 45.4279 213.327 45.0253C215.654 44.4031 217.784 45.8305 218.487 48.4731C219.19 51.1156 218.063 53.4141 215.728 54.0363C214.227 54.4315 212.653 53.6776 211.731 53.0846C211.44 52.9038 211.115 52.785 210.776 52.7359C210.437 52.6868 210.092 52.7083 209.762 52.7992C209.443 52.8841 209.144 53.0311 208.882 53.2316C208.62 53.4321 208.401 53.6823 208.235 53.9678C208.07 54.2533 207.963 54.5686 207.92 54.8956C207.876 55.2226 207.898 55.5549 207.983 55.8736L212.88 73.0975L237.124 66.1216L251.354 62.0224L253.103 61.5173L248.711 45.04C248.626 44.7213 248.48 44.4224 248.279 44.1605C248.078 43.8986 247.828 43.6788 247.543 43.5136C247.257 43.3484 246.942 43.2411 246.615 43.1978C246.288 43.1545 245.956 43.176 245.637 43.2612C245.306 43.3478 244.997 43.5017 244.729 43.7133C244.461 43.9249 244.239 44.1897 244.078 44.491C243.565 45.4645 242.614 46.9066 241.077 47.3092C238.749 47.9314 236.619 46.4966 235.916 43.8614C235.213 41.2262 236.341 38.9204 238.676 38.2982C240.176 37.8956 241.75 38.6569 242.672 39.2425C242.963 39.4246 243.287 39.5447 243.626 39.595C243.965 39.6454 244.311 39.6251 244.642 39.5353C244.96 39.4504 245.259 39.3034 245.521 39.1029C245.783 38.9024 246.003 38.6522 246.168 38.3667C246.333 38.0812 246.44 37.7659 246.484 37.4389C246.527 37.1119 246.505 36.7796 246.42 36.4609L241.853 21.0889L217.755 28.0649" fill="#F5F5F5"/>
<path d="M179.34 216.474L164.788 217.528L165.688 230.434C165.765 231.004 166.062 231.522 166.517 231.875C166.971 232.228 167.546 232.389 168.118 232.322C168.409 232.312 168.694 232.242 168.956 232.116C169.218 231.99 169.451 231.811 169.641 231.59C169.996 231.107 170.444 230.698 170.957 230.388C171.471 230.077 172.041 229.872 172.635 229.782C174.684 229.68 176.199 231.246 176.295 233.574C176.39 235.902 175.065 237.607 173.015 237.71C172.418 237.686 171.831 237.544 171.288 237.293C170.746 237.041 170.258 236.686 169.853 236.246C169.644 236.042 169.394 235.885 169.121 235.782C168.848 235.68 168.556 235.636 168.265 235.653C167.699 235.681 167.167 235.933 166.787 236.353C166.407 236.773 166.209 237.327 166.237 237.893L167.247 253.104L188.673 251.603L201.234 250.725L202.786 250.615L202.054 236.129C202.025 235.561 201.773 235.028 201.351 234.646C200.93 234.264 200.374 234.066 199.806 234.094C199.517 234.105 199.233 234.175 198.972 234.301C198.712 234.427 198.48 234.606 198.291 234.826C197.936 235.309 197.489 235.718 196.975 236.029C196.461 236.339 195.891 236.544 195.297 236.634C193.248 236.736 191.733 235.17 191.637 232.842C191.542 230.514 192.867 228.809 194.917 228.706C195.517 228.733 196.106 228.88 196.649 229.138C197.192 229.395 197.678 229.759 198.079 230.207C198.288 230.41 198.537 230.568 198.811 230.668C199.085 230.769 199.376 230.812 199.667 230.792C200.233 230.764 200.765 230.512 201.145 230.092C201.525 229.672 201.723 229.118 201.695 228.552L200.568 214.952L179.34 216.474Z" fill="#EBEBEB"/>
<path d="M79.788 208.159C72.7754 211.819 67.3879 218.055 63.5229 224.944C59.658 231.832 57.1619 239.401 54.6877 246.904L52.4917 285.619C60.6535 271.711 67.2122 255.402 68.9837 239.386L63.5449 238.903C67.2049 238.347 70.25 235.704 72.1971 232.578C74.1443 229.453 75.1251 225.837 76.1207 222.286L69.4961 223.26C74.741 219.737 78.427 214.329 79.788 208.159Z" fill="#E0E0E0"/>
<path d="M51.2911 294.689C51.2911 294.689 33.5694 273.461 33.7744 253.228H40.9333C40.9333 253.228 33.1522 248.104 33.767 245.249C34.3819 242.395 34.5869 231.546 34.5869 231.546L41.1749 233.186C41.1749 233.186 36.2632 230.726 35.6483 226.847C35.0334 222.967 37.1123 204.96 37.1123 204.96C37.1123 204.96 45.0911 213.341 47.5433 221.935C49.9955 230.529 56.3639 240.55 54.4826 266.726C52.6014 292.903 51.2911 294.689 51.2911 294.689Z" fill="#EBEBEB"/>
<path d="M60.2729 296.694C60.2729 296.694 79.4733 283.906 83.7408 267.575L77.9873 266.009C77.9873 266.009 85.3585 263.601 85.4903 261.163C85.6221 258.725 87.84 249.971 87.84 249.971L82.2183 249.854C82.2183 249.854 86.7054 248.953 88.0743 245.959C89.4431 242.965 91.7343 228.055 91.7343 228.055C91.7343 228.055 83.448 233.047 79.5684 239.423C75.6888 245.798 68.3469 252.438 64.1379 273.9C59.9289 295.362 60.2729 296.694 60.2729 296.694Z" fill="#EBEBEB"/>
<path d="M41.8848 223.45C41.9154 223.521 41.9375 223.594 41.9506 223.67C41.9946 223.838 42.0458 224.051 42.1117 224.321C42.2434 224.922 42.4338 225.785 42.6753 226.839C42.9169 227.894 43.2097 229.27 43.5244 230.836C43.8392 232.403 44.2052 234.167 44.5639 236.136C45.2959 240.067 46.1304 244.773 46.9575 250C47.7847 255.226 48.5533 260.98 49.2633 267.077C49.9734 273.175 50.5004 278.951 50.9103 284.228C51.3202 289.506 51.5911 294.279 51.7521 298.275C51.8473 300.281 51.8912 302.089 51.9424 303.677C51.9937 305.266 52.023 306.642 52.0303 307.762C52.0376 308.882 52.0303 309.724 52.0303 310.339C52.0303 310.617 52.0303 310.836 52.0303 311.012C52.0303 311.188 52.0303 311.239 52.0303 311.239C52.023 311.164 52.023 311.088 52.0303 311.012V310.339C52.0303 309.724 51.9717 308.875 51.9351 307.762C51.8985 306.649 51.8546 305.273 51.7814 303.685C51.7082 302.096 51.6496 300.288 51.5325 298.29C51.3422 294.293 51.0201 289.506 50.6175 284.258C50.2149 279.009 49.6293 273.19 48.9339 267.121C48.2385 261.053 47.4699 255.292 46.6574 250.058C45.8449 244.825 45.0324 240.096 44.3004 236.187C43.9563 234.211 43.5684 232.439 43.3122 230.873C43.056 229.306 42.7558 227.945 42.5289 226.869C42.302 225.793 42.1556 224.944 42.0312 224.343C41.9872 224.065 41.9433 223.846 41.914 223.677C41.8976 223.603 41.8878 223.527 41.8848 223.45V223.45Z" fill="#E0E0E0"/>
<path d="M48.8316 307.682C48.8316 307.682 32.6105 289.279 27.6036 278.153L31.41 276.535C28.6503 276.989 25.8321 275.803 23.6947 274.002C21.5573 272.202 19.9908 269.837 18.4463 267.509L23.4239 266.66C18.82 265.351 14.8996 262.314 12.4805 258.184C18.395 259.128 23.7386 262.407 28.1453 266.448C31.6511 269.805 34.8368 273.481 37.6613 277.428C39.0692 279.329 40.2947 281.358 41.3213 283.489C44.0516 289.14 48.8389 300.925 48.8316 307.682Z" fill="#E0E0E0"/>
<path d="M83.9969 238.764C83.9788 238.829 83.9542 238.893 83.9237 238.954L83.6748 239.488L82.7159 241.56C81.8448 243.331 80.6223 245.901 79.1291 249.092C76.1279 255.468 72.2043 264.34 68.3247 274.354C64.4451 284.367 61.3707 293.613 59.2919 300.332C58.2451 303.692 57.4253 306.423 56.8763 308.311C56.6054 309.233 56.3858 309.965 56.2321 310.507L56.0564 311.071C56.0125 311.195 55.9832 311.261 55.9832 311.261C55.9717 311.196 55.9717 311.129 55.9832 311.063C56.0271 310.91 56.0711 310.719 56.1296 310.492C56.2687 309.958 56.459 309.226 56.7079 308.296C57.213 306.393 57.9889 303.648 59.0064 300.244C61.0267 293.495 64.0718 284.243 67.9441 274.215C71.8164 264.186 75.7985 255.292 78.8436 248.939C80.3661 245.762 81.6325 243.207 82.5402 241.458C82.9794 240.601 83.3307 239.928 83.5869 239.445L83.8651 238.925C83.9011 238.865 83.9455 238.811 83.9969 238.764V238.764Z" fill="#E0E0E0"/>
<path d="M50.2075 315.565C50.1608 315.459 50.1335 315.345 50.127 315.229C50.0831 314.965 50.0245 314.643 49.9586 314.255C49.8342 313.406 49.6219 312.183 49.3218 310.675C49.0217 309.168 48.5898 307.396 48.0774 305.434C47.565 303.473 46.8549 301.364 46.0351 299.176C45.2153 296.987 44.3076 294.945 43.4292 293.122C42.5508 291.299 41.6724 289.689 40.8965 288.364C40.1205 287.039 39.4837 285.978 39.0152 285.26C38.8103 284.924 38.6346 284.646 38.4882 284.419C38.4257 284.321 38.3718 284.218 38.3271 284.111C38.3271 284.111 38.415 284.192 38.5541 284.375L39.1397 285.173C39.6447 285.905 40.3255 286.915 41.1307 288.225C41.9359 289.535 42.8289 291.153 43.7439 292.961C44.6589 294.769 45.5593 296.841 46.3938 299.037C47.2283 301.233 47.8578 303.377 48.4141 305.347C48.9704 307.316 49.3291 309.109 49.5853 310.624C49.8415 312.139 50.0245 313.377 50.105 314.233L50.2002 315.221C50.2188 315.335 50.2213 315.451 50.2075 315.565V315.565Z" fill="#E0E0E0"/>
<path d="M71.6041 311.239H36.1094V318.479H71.6041V311.239Z" fill="#E0E0E0"/>
<path d="M39.4912 318.479L43.3342 341.002H64.7818L68.3613 318.479H39.4912Z" fill="#E0E0E0"/>
<path d="M69.43 318.479C69.43 318.581 62.7175 318.669 54.4313 318.669C46.1451 318.669 39.4399 318.581 39.4399 318.479C39.4399 318.376 46.1524 318.288 54.4313 318.288C62.7102 318.288 69.43 318.376 69.43 318.479Z" fill="#EBEBEB"/>
<path d="M196.908 136.547C198.684 135.471 200.597 134.639 202.596 134.073L203.767 128.437L213.283 128.276L214.659 133.861C216.676 134.36 218.618 135.123 220.435 136.13L225.244 132.982L232.088 139.57L229.109 144.489C230.182 146.267 231.014 148.18 231.583 150.177L237.168 151.378L237.336 160.894L231.751 162.262C231.253 164.28 230.488 166.223 229.475 168.038L232.63 172.847L226.042 179.699L221.123 176.712C219.343 177.787 217.428 178.619 215.428 179.186L214.257 184.823L204.741 184.991L203.372 179.399C201.353 178.904 199.411 178.141 197.596 177.129L192.787 180.277L185.935 173.689L188.922 168.77C187.844 166.994 187.012 165.081 186.448 163.082L180.811 161.911L180.643 152.395L186.236 151.026C186.731 149.009 187.494 147.066 188.505 145.251L185.35 140.442L191.938 133.597L196.857 136.577L196.908 136.547ZM201.981 149.226C200.578 150.679 199.637 152.515 199.278 154.503C198.919 156.49 199.157 158.54 199.963 160.392C200.768 162.244 202.105 163.816 203.804 164.908C205.503 166 207.488 166.564 209.508 166.529C211.527 166.493 213.491 165.859 215.15 164.707C216.809 163.555 218.09 161.937 218.829 160.057C219.568 158.178 219.734 156.121 219.304 154.147C218.875 152.174 217.87 150.372 216.416 148.969C214.461 147.088 211.84 146.058 209.127 146.106C206.414 146.154 203.831 147.276 201.944 149.226H201.981Z" fill="#EBEBEB"/>
<path d="M304.512 68.9251C306.167 67.9205 307.949 67.1425 309.811 66.612L310.902 61.3709L319.759 61.2172L321.033 66.4144C322.909 66.8805 324.716 67.5917 326.406 68.5298L330.878 65.6018L337.254 71.736L334.48 76.311C335.478 77.9649 336.251 79.7448 336.778 81.6034L342.019 82.7014L342.181 91.5512L336.976 92.8322C336.513 94.7094 335.802 96.5163 334.861 98.2051L337.789 102.678L331.64 109.053L327.065 106.279C325.408 107.278 323.626 108.051 321.765 108.578L320.674 113.819L311.817 113.972L310.543 108.775C308.667 108.312 306.86 107.6 305.171 106.66L300.691 109.588L294.322 103.432L297.097 98.8566C296.095 97.2037 295.319 95.4236 294.791 93.5642L289.55 92.4736L289.396 83.6164L294.593 82.3427C295.057 80.4658 295.768 78.6589 296.709 76.9698L293.781 72.49L299.937 66.1216L304.512 68.9251ZM309.233 80.7176C307.923 82.0706 307.045 83.7817 306.708 85.6344C306.371 87.4871 306.591 89.3981 307.341 91.1254C308.091 92.8528 309.336 94.3188 310.92 95.338C312.503 96.3572 314.353 96.8837 316.236 96.8509C318.119 96.8181 319.95 96.2274 321.497 95.1537C323.043 94.0799 324.237 92.5714 324.926 90.8189C325.615 89.0665 325.769 87.149 325.368 85.3092C324.967 83.4694 324.029 81.7899 322.673 80.4834C320.858 78.7351 318.424 77.7779 315.905 77.8218C313.385 77.8657 310.986 78.9071 309.233 80.7176V80.7176Z" fill="#EBEBEB"/>
<path d="M29.2286 151.729C30.8818 150.729 32.6618 149.956 34.521 149.43L35.6116 144.204L44.4688 144.043L45.7425 149.247C47.6215 149.705 49.4292 150.416 51.1154 151.363L55.5952 148.435L61.9636 154.584L59.1894 159.159C60.1858 160.808 60.9588 162.583 61.4878 164.436L66.729 165.527L66.8827 174.384L61.6928 175.68C61.2293 177.557 60.5178 179.364 59.5773 181.053L62.5053 185.533L56.3638 191.879L51.7888 189.105C50.1316 190.104 48.3496 190.879 46.4892 191.411L45.3838 196.652L36.534 196.806L35.253 191.601C33.3761 191.141 31.5691 190.432 29.8801 189.493L25.4076 192.421L19.0318 186.272L21.8061 181.697C20.81 180.045 20.0395 178.268 19.515 176.412L14.2738 175.321L14.1201 166.464L19.3173 165.19C19.7801 163.313 20.4916 161.506 21.4328 159.818L18.5048 155.345L24.6536 148.969L29.2359 151.744L29.2286 151.729ZM33.95 163.529C32.6392 164.881 31.7593 166.593 31.4217 168.446C31.0841 170.299 31.304 172.21 32.0535 173.938C32.803 175.666 34.0485 177.133 35.6321 178.152C37.2157 179.172 39.0663 179.699 40.9495 179.666C42.8328 179.633 44.6639 179.042 46.211 177.968C47.7581 176.893 48.9516 175.384 49.6404 173.631C50.3293 171.878 50.4824 169.96 50.0804 168.12C49.6783 166.28 48.7393 164.601 47.3822 163.295C45.5678 161.548 43.1354 160.593 40.6177 160.637C38.1 160.681 35.7024 161.721 33.95 163.529V163.529Z" fill="#EBEBEB"/>
<path d="M60.1777 79.056C61.2959 78.3788 62.4997 77.8544 63.7572 77.4969L64.4892 73.954L70.4769 73.8515L71.3407 77.3651C72.6213 77.6851 73.8526 78.1776 75.0007 78.8291L78.0238 76.8454L82.3353 81.0105L80.4541 84.0995C81.1331 85.2194 81.6575 86.4259 82.0132 87.6863L85.5561 88.4183L85.6586 94.4061L82.145 95.2698C81.8242 96.5502 81.3318 97.7814 80.681 98.9298L82.6647 101.96L78.507 106.264L75.396 104.31C74.2771 104.986 73.0734 105.51 71.8165 105.869L71.0845 109.412L65.0967 109.515L64.233 106.001C62.9544 105.692 61.7233 105.212 60.573 104.574L57.5425 106.557L53.2383 102.392L55.1122 99.3031C54.4405 98.1821 53.9165 96.979 53.5531 95.7237L50.0102 94.9917L49.9077 89.0039L53.4213 88.1401C53.7456 86.8609 54.2379 85.6302 54.8853 84.4801L52.9236 81.4716L57.096 77.1675L60.1777 79.056ZM63.3692 87.0348C62.492 87.9509 61.9058 89.1064 61.6847 90.3553C61.4635 91.6043 61.6173 92.8908 62.1266 94.0524C62.6359 95.214 63.4779 96.1988 64.5464 96.8823C65.6148 97.5658 66.8618 97.9176 68.1299 97.8931C69.3981 97.8686 70.6305 97.469 71.6718 96.7447C72.713 96.0204 73.5164 95.0039 73.9805 93.8235C74.4446 92.6431 74.5486 91.3517 74.2794 90.1122C74.0102 88.8727 73.3799 87.7407 72.468 86.8591C71.8605 86.2713 71.143 85.8092 70.3566 85.4991C69.5702 85.189 68.7304 85.037 67.8852 85.052C67.04 85.067 66.206 85.2485 65.4311 85.5862C64.6562 85.924 63.9555 86.4112 63.3692 87.0202V87.0348Z" fill="#EBEBEB"/>
<path d="M38.4228 40.5235C39.4504 39.8904 40.5582 39.398 41.7168 39.0595L42.3975 35.868L47.9095 35.7729L48.7001 39.0083C49.8657 39.2753 50.9907 39.6963 52.0453 40.26L54.8269 38.43L58.7943 42.2584L57.0961 45.1351C57.7273 46.1637 58.2196 47.2713 58.5601 48.4291L61.8175 49.1099L61.9127 54.6219L58.6187 55.4124C58.332 56.5806 57.8914 57.7055 57.3084 58.7577L59.1311 61.5393L55.3027 65.5067L52.4552 63.7792C51.4284 64.4137 50.3203 64.9062 49.1612 65.2432L48.4805 68.5079L42.9758 68.6031L42.1779 65.3676C41.0118 65.0784 39.8893 64.6353 38.84 64.05L36.0511 65.88L32.091 62.0517L33.8185 59.2042C33.1843 58.1772 32.6918 57.0692 32.3545 55.9102L29.0898 55.2294L28.9946 49.7248L32.2301 48.9269C32.5181 47.7604 32.9612 46.6377 33.5477 45.589L31.725 42.8001L35.5753 38.796L38.4228 40.5162V40.5235ZM41.3508 47.8435C40.5392 48.684 39.995 49.7463 39.7871 50.896C39.5792 52.0457 39.7169 53.2313 40.1828 54.3028C40.6488 55.3742 41.422 56.2835 42.4047 56.9155C43.3873 57.5475 44.5354 57.8739 45.7036 57.8534C46.8718 57.833 48.0077 57.4665 48.9676 56.8004C49.9276 56.1344 50.6684 55.1986 51.0965 54.1115C51.5246 53.0243 51.6207 51.8347 51.3726 50.6929C51.1246 49.5512 50.5435 48.5086 49.7029 47.6971C48.5737 46.6165 47.0621 46.0274 45.4994 46.0589C43.9367 46.0905 42.4501 46.7401 41.3654 47.8655L41.3508 47.8435Z" fill="#F5F5F5"/>
<path d="M304.944 153.581C305.972 152.958 307.08 152.478 308.238 152.154L308.911 148.889L314.423 148.794L315.214 152.029C316.383 152.317 317.508 152.76 318.559 153.347L321.348 151.524L325.315 155.352L323.588 158.2C324.219 159.228 324.711 160.336 325.052 161.494L328.309 162.175L328.404 167.679L325.169 168.477C324.886 169.644 324.446 170.767 323.859 171.815L325.681 174.604L321.853 178.564L319.006 176.844C317.977 177.467 316.869 177.947 315.712 178.271L315.038 181.536L309.526 181.631L308.736 178.396C307.567 178.108 306.442 177.665 305.39 177.078L302.601 178.908L298.641 175.08L300.369 172.232C299.735 171.205 299.242 170.097 298.905 168.938L295.647 168.258L295.545 162.746L298.78 161.955C299.07 160.787 299.513 159.662 300.098 158.61L298.275 155.828L302.104 151.861L304.951 153.588L304.944 153.581ZM307.872 160.901C307.059 161.742 306.513 162.806 306.305 163.957C306.096 165.108 306.234 166.296 306.7 167.369C307.167 168.442 307.941 169.352 308.925 169.985C309.909 170.618 311.059 170.945 312.228 170.925C313.398 170.904 314.536 170.537 315.497 169.87C316.458 169.203 317.2 168.266 317.628 167.177C318.057 166.089 318.153 164.897 317.904 163.754C317.655 162.611 317.073 161.567 316.231 160.755C315.101 159.669 313.587 159.077 312.02 159.109C310.454 159.141 308.964 159.793 307.879 160.923L307.872 160.901Z" fill="#F5F5F5"/>
<path d="M236.355 100.116C237.697 99.4856 239.118 99.0376 240.579 98.7834L241.823 94.8672L248.594 95.4528L249.15 99.5154C250.547 100.016 251.869 100.703 253.081 101.558L256.741 99.6765L261.133 104.874L258.652 108.138C259.281 109.482 259.731 110.902 259.991 112.362L263.9 113.606L263.315 120.377L259.252 120.934C258.75 122.329 258.063 123.651 257.21 124.865L259.091 128.525L253.894 132.917L250.629 130.435C249.286 131.064 247.866 131.515 246.405 131.775L245.161 135.684L238.39 135.098L237.834 131.035C236.438 130.533 235.116 129.846 233.903 128.993L230.243 130.874L225.851 125.677L228.332 122.412C227.702 121.07 227.254 119.65 227 118.189L223.084 116.944L223.67 110.173L227.732 109.617C228.234 108.221 228.921 106.899 229.774 105.686L227.893 102.026L233.09 97.6342L236.355 100.116V100.116ZM239.027 109.485C237.91 110.413 237.094 111.651 236.683 113.043C236.271 114.435 236.283 115.918 236.717 117.304C237.15 118.689 237.986 119.915 239.118 120.824C240.249 121.733 241.626 122.285 243.072 122.41C244.518 122.535 245.969 122.227 247.24 121.526C248.511 120.824 249.545 119.761 250.21 118.47C250.874 117.18 251.141 115.72 250.974 114.278C250.808 112.836 250.216 111.476 249.275 110.371C248.027 108.905 246.251 107.99 244.333 107.825C242.415 107.659 240.508 108.256 239.027 109.485V109.485Z" fill="#F5F5F5"/>
<path d="M353.263 341.661C353.263 341.771 276.579 341.851 182.012 341.851C87.4446 341.851 10.7236 341.771 10.7236 341.661C10.7236 341.551 87.3933 341.471 182.012 341.471C276.63 341.471 353.263 341.558 353.263 341.661Z" fill="#263238"/>
<path d="M186.221 338.074C186.304 336.611 185.804 335.174 184.83 334.077C183.798 332.994 182.634 332.709 182.634 330.586C182.7 327.306 185.365 325.067 189.083 325.14C192.802 325.213 195.386 327.555 195.32 330.835C195.283 332.95 192.692 333.499 192.172 334.905C191.785 335.958 191.539 337.058 191.44 338.177C191.431 338.626 191.511 339.072 191.675 339.49C191.839 339.908 192.083 340.29 192.395 340.613C192.706 340.937 193.078 341.196 193.489 341.376C193.901 341.555 194.344 341.652 194.793 341.661L216.562 341.456L216.518 307.316L216.489 284.016H195.788C193.9 284.016 192.553 285.795 192.516 287.676C192.504 288.142 192.587 288.606 192.762 289.038C192.938 289.47 193.2 289.861 193.534 290.187C194.617 291.219 196.125 293.049 196.088 295.164C196.022 298.444 193.351 300.691 189.632 300.618C185.914 300.545 183.337 298.195 183.395 294.915C183.439 292.8 185.02 291.029 186.14 290.04C186.488 289.729 186.767 289.35 186.96 288.925C187.153 288.5 187.255 288.04 187.26 287.574C187.269 287.125 187.189 286.678 187.026 286.26C186.862 285.842 186.617 285.46 186.306 285.137C185.995 284.813 185.623 284.554 185.211 284.374C184.8 284.195 184.357 284.098 183.908 284.089L159.532 284.009V340.98L182.737 341.449C183.187 341.457 183.635 341.377 184.055 341.212C184.474 341.047 184.857 340.8 185.181 340.487C185.505 340.173 185.763 339.798 185.942 339.384C186.12 338.97 186.215 338.525 186.221 338.074V338.074Z" fill="#E0E0E0"/>
<g opacity="0.3">
<path d="M186.221 338.074C186.304 336.611 185.804 335.174 184.83 334.077C183.798 332.994 182.634 332.709 182.634 330.586C182.7 327.306 185.365 325.067 189.083 325.14C192.802 325.213 195.386 327.555 195.32 330.835C195.283 332.95 192.692 333.499 192.172 334.905C191.785 335.958 191.539 337.058 191.44 338.177C191.431 338.626 191.511 339.072 191.675 339.49C191.839 339.908 192.083 340.29 192.395 340.613C192.706 340.937 193.078 341.196 193.489 341.376C193.901 341.555 194.344 341.652 194.793 341.661L216.562 341.456L216.518 307.316L216.489 284.016H195.788C193.9 284.016 192.553 285.795 192.516 287.676C192.504 288.142 192.587 288.606 192.762 289.038C192.938 289.47 193.2 289.861 193.534 290.187C194.617 291.219 196.125 293.049 196.088 295.164C196.022 298.444 193.351 300.691 189.632 300.618C185.914 300.545 183.337 298.195 183.395 294.915C183.439 292.8 185.02 291.029 186.14 290.04C186.488 289.729 186.767 289.35 186.96 288.925C187.153 288.5 187.255 288.04 187.26 287.574C187.269 287.125 187.189 286.678 187.026 286.26C186.862 285.842 186.617 285.46 186.306 285.137C185.995 284.813 185.623 284.554 185.211 284.374C184.8 284.195 184.357 284.098 183.908 284.089L159.532 284.009V340.98L182.737 341.449C183.187 341.457 183.635 341.377 184.055 341.212C184.474 341.047 184.857 340.8 185.181 340.487C185.505 340.173 185.763 339.798 185.942 339.384C186.12 338.97 186.215 338.525 186.221 338.074V338.074Z" fill="black"/>
</g>
<path d="M181.924 338.074C181.936 337.609 181.851 337.146 181.675 336.715C181.498 336.284 181.234 335.894 180.899 335.571C179.823 334.539 178.308 332.709 178.352 330.586C178.418 327.306 181.082 325.067 184.801 325.14C188.519 325.213 191.103 327.555 191.037 330.835C191.001 332.95 189.412 334.722 188.3 335.71C187.794 336.168 187.437 336.766 187.274 337.429C187.112 338.091 187.151 338.787 187.387 339.427C187.623 340.067 188.045 340.622 188.599 341.02C189.153 341.418 189.814 341.641 190.496 341.661L212.265 341.456L212.28 307.316L212.192 284.016H191.491C189.603 284.016 188.256 285.795 188.219 287.676C188.206 288.143 188.291 288.607 188.467 289.039C188.644 289.472 188.908 289.862 189.244 290.187C190.32 291.219 191.835 293.049 191.791 295.164C191.726 298.444 189.054 300.691 185.335 300.618C181.617 300.545 179.04 298.195 179.099 294.915C179.142 292.8 180.724 291.029 181.844 290.04C182.191 289.729 182.47 289.35 182.663 288.925C182.856 288.5 182.958 288.04 182.964 287.574C182.972 287.125 182.892 286.678 182.729 286.26C182.565 285.842 182.32 285.46 182.009 285.137C181.698 284.813 181.326 284.554 180.914 284.374C180.503 284.195 180.06 284.098 179.611 284.089L155.235 284.009V340.98L178.44 341.449C178.891 341.457 179.339 341.377 179.758 341.212C180.178 341.047 180.56 340.8 180.884 340.487C181.208 340.173 181.467 339.798 181.645 339.384C181.824 338.97 181.918 338.525 181.924 338.074V338.074Z" fill="#EBEBEB"/>
<path d="M181.924 338.074C181.94 338.235 181.94 338.397 181.924 338.557C181.856 339.038 181.683 339.497 181.419 339.904C180.981 340.573 180.328 341.072 179.567 341.317C179.079 341.463 178.567 341.515 178.059 341.471H176.332L155.265 341.097H155.155V340.988C155.155 326.567 155.155 306.898 155.096 284.016V283.848H155.272H170.029H177.722H179.677C180.2 283.862 180.714 283.991 181.183 284.224C181.652 284.458 182.065 284.791 182.392 285.199C182.719 285.608 182.954 286.083 183.079 286.592C183.204 287.101 183.217 287.63 183.117 288.144C182.985 288.841 182.646 289.481 182.144 289.982C181.646 290.421 181.183 290.898 180.76 291.409C179.873 292.392 179.356 293.652 179.296 294.974C179.285 295.633 179.404 296.288 179.646 296.901C179.889 297.514 180.25 298.073 180.709 298.546C181.665 299.494 182.908 300.099 184.244 300.266C185.588 300.488 186.967 300.352 188.241 299.871C189.53 299.392 190.581 298.428 191.169 297.185C191.453 296.565 191.607 295.895 191.622 295.214C191.637 294.533 191.513 293.856 191.257 293.225C190.991 292.586 190.639 291.988 190.21 291.446C189.995 291.171 189.765 290.907 189.522 290.655C189.295 290.399 189.01 290.172 188.79 289.857C188.389 289.348 188.136 288.737 188.058 288.093C187.996 287.459 188.076 286.819 188.292 286.219C188.484 285.608 188.838 285.06 189.316 284.633C189.794 284.207 190.379 283.918 191.008 283.796C191.66 283.731 192.223 283.796 192.838 283.76H212.383V284.016C212.383 305.178 212.441 324.679 212.463 341.485V341.639H212.28L198.57 341.756L192.231 341.807H190.708C190.187 341.822 189.668 341.727 189.185 341.529C188.716 341.326 188.296 341.025 187.952 340.647C187.609 340.268 187.351 339.82 187.194 339.333C187.045 338.863 186.995 338.367 187.048 337.877C187.1 337.387 187.255 336.913 187.502 336.486C187.745 336.077 188.06 335.715 188.431 335.417C188.759 335.112 189.067 334.787 189.354 334.443C189.923 333.784 190.365 333.025 190.657 332.204C190.924 331.412 190.982 330.565 190.825 329.744C190.69 328.97 190.379 328.237 189.916 327.603C189.452 326.968 188.849 326.448 188.153 326.084C186.877 325.417 185.438 325.128 184.003 325.25C182.714 325.313 181.472 325.753 180.431 326.516C179.524 327.204 178.872 328.175 178.579 329.276C178.315 330.217 178.333 331.214 178.63 332.145C178.894 332.915 179.282 333.637 179.779 334.282C180.176 334.798 180.606 335.288 181.068 335.746C181.396 336.097 181.646 336.514 181.8 336.969C181.881 337.245 181.93 337.53 181.946 337.818C181.954 337.913 181.954 338.009 181.946 338.103C181.935 337.723 181.871 337.346 181.756 336.984C181.599 336.538 181.35 336.131 181.024 335.79C180.554 335.346 180.116 334.869 179.713 334.363C179.2 333.718 178.799 332.99 178.528 332.211C178.219 331.263 178.193 330.245 178.454 329.283C178.745 328.148 179.411 327.145 180.343 326.435C181.406 325.645 182.68 325.187 184.003 325.118C185.472 324.982 186.949 325.275 188.256 325.96C188.978 326.336 189.605 326.873 190.088 327.529C190.571 328.185 190.899 328.943 191.045 329.744C191.207 330.6 191.151 331.484 190.884 332.313C190.583 333.16 190.129 333.944 189.544 334.626C189.25 334.98 188.935 335.315 188.6 335.629C188.25 335.914 187.95 336.255 187.714 336.639C187.484 337.045 187.342 337.494 187.298 337.958C187.254 338.423 187.308 338.891 187.457 339.332C187.606 339.774 187.847 340.179 188.164 340.521C188.481 340.863 188.866 341.134 189.295 341.317C190.181 341.712 191.22 341.529 192.223 341.559L198.555 341.485L212.258 341.346L212.104 341.5C212.068 324.664 212.017 305.193 211.965 284.031L212.156 284.221H198.189C195.832 284.221 193.394 284.221 191.059 284.221C188.754 284.565 187.597 287.837 189.054 289.674C189.284 289.931 189.529 290.176 189.786 290.406C190.035 290.67 190.269 290.941 190.518 291.226C190.969 291.797 191.338 292.428 191.616 293.1C191.89 293.779 192.024 294.508 192.007 295.24C191.991 295.973 191.825 296.694 191.521 297.36C190.901 298.687 189.787 299.72 188.417 300.237C187.08 300.743 185.633 300.887 184.222 300.654C182.806 300.474 181.488 299.831 180.475 298.824C179.481 297.797 178.934 296.418 178.952 294.989C179.005 293.584 179.543 292.242 180.475 291.19C180.904 290.663 181.376 290.173 181.887 289.726C182.337 289.277 182.641 288.703 182.758 288.079C182.846 287.618 182.834 287.143 182.721 286.688C182.608 286.233 182.398 285.807 182.105 285.441C181.813 285.074 181.444 284.775 181.025 284.565C180.605 284.354 180.146 284.237 179.677 284.221H177.73H170.029L155.272 284.17L155.448 283.994C155.448 306.876 155.404 326.545 155.389 340.966L155.279 340.856L176.346 341.332L178.066 341.376C178.559 341.42 179.055 341.373 179.53 341.236C180.279 341.008 180.926 340.527 181.36 339.875C181.623 339.478 181.802 339.032 181.887 338.565C181.917 338.243 181.917 338.074 181.924 338.074Z" fill="#263238"/>
<path d="M267.114 303.121C267.108 303.609 267.005 304.091 266.812 304.539C266.618 304.987 266.339 305.393 265.989 305.733C265.638 306.073 265.225 306.341 264.771 306.521C264.317 306.7 263.832 306.789 263.344 306.781C262.839 306.776 262.339 306.666 261.878 306.458C261.417 306.25 261.004 305.949 260.665 305.573C259.582 304.366 257.657 302.645 255.358 302.645C251.793 302.594 249.261 305.412 249.202 309.446C249.144 313.479 251.589 316.378 255.153 316.429C257.452 316.466 259.428 314.811 260.541 313.633C261.061 313.102 261.727 312.739 262.456 312.59C263.184 312.442 263.939 312.515 264.625 312.8C265.312 313.085 265.897 313.569 266.305 314.19C266.713 314.811 266.926 315.54 266.917 316.283L266.521 341.478L322.541 341.222V314.753C322.552 314.009 322.786 313.286 323.212 312.677C323.639 312.068 324.238 311.601 324.933 311.337C325.628 311.073 326.386 311.023 327.11 311.195C327.833 311.367 328.488 311.752 328.99 312.3C330.074 313.508 331.999 315.228 334.297 315.228C337.862 315.28 340.395 312.469 340.461 308.428C340.526 304.388 338.074 301.496 334.509 301.445C332.211 301.408 330.227 303.063 329.115 304.241C328.763 304.606 328.339 304.894 327.871 305.087C327.402 305.28 326.898 305.373 326.392 305.361C324.342 305.361 322.366 303.897 322.395 301.826L322.292 279.346L266.814 279.602L267.114 303.121Z" fill="#00AFDB"/>
<g opacity="0.3">
<path d="M267.114 303.121C267.108 303.609 267.005 304.091 266.812 304.539C266.618 304.987 266.339 305.393 265.989 305.733C265.638 306.073 265.225 306.341 264.771 306.521C264.317 306.7 263.832 306.789 263.344 306.781C262.839 306.776 262.339 306.666 261.878 306.458C261.417 306.25 261.004 305.949 260.665 305.573C259.582 304.366 257.657 302.645 255.358 302.645C251.793 302.594 249.261 305.412 249.202 309.446C249.144 313.479 251.589 316.378 255.153 316.429C257.452 316.466 259.428 314.811 260.541 313.633C261.061 313.102 261.727 312.739 262.456 312.59C263.184 312.442 263.939 312.515 264.625 312.8C265.312 313.085 265.897 313.569 266.305 314.19C266.713 314.811 266.926 315.54 266.917 316.283L266.521 341.478L322.541 341.222V314.753C322.552 314.009 322.786 313.286 323.212 312.677C323.639 312.068 324.238 311.601 324.933 311.337C325.628 311.073 326.386 311.023 327.11 311.195C327.833 311.367 328.488 311.752 328.99 312.3C330.074 313.508 331.999 315.228 334.297 315.228C337.862 315.28 340.395 312.469 340.461 308.428C340.526 304.388 338.074 301.496 334.509 301.445C332.211 301.408 330.227 303.063 329.115 304.241C328.763 304.606 328.339 304.894 327.871 305.087C327.402 305.28 326.898 305.373 326.392 305.361C324.342 305.361 322.366 303.897 322.395 301.826L322.292 279.346L266.814 279.602L267.114 303.121Z" fill="black"/>
</g>
<path d="M262.978 303.121C262.963 304.106 262.557 305.045 261.85 305.731C261.144 306.417 260.193 306.795 259.208 306.781C258.703 306.776 258.203 306.666 257.742 306.458C257.281 306.25 256.868 305.949 256.529 305.573C255.446 304.366 253.521 302.645 251.222 302.645C247.658 302.594 245.125 305.412 245.059 309.446C244.993 313.479 247.453 316.378 251.01 316.429C253.309 316.466 255.292 314.811 256.405 313.633C256.921 313.103 257.583 312.739 258.307 312.587C259.03 312.435 259.783 312.503 260.468 312.781C261.153 313.059 261.74 313.535 262.153 314.149C262.566 314.762 262.787 315.485 262.788 316.224L262.393 341.419L318.413 341.163V314.694C318.423 313.951 318.657 313.228 319.083 312.619C319.51 312.009 320.109 311.543 320.804 311.278C321.499 311.014 322.258 310.965 322.981 311.136C323.705 311.308 324.36 311.693 324.862 312.242C325.945 313.45 327.87 315.17 330.169 315.17C333.733 315.221 336.266 312.41 336.332 308.37C336.398 304.329 333.938 301.438 330.381 301.386C328.082 301.35 326.099 303.004 324.986 304.183C324.634 304.548 324.211 304.836 323.742 305.028C323.273 305.221 322.77 305.315 322.263 305.303C320.213 305.303 318.237 303.839 318.266 301.767L318.164 279.287L262.685 279.543L262.978 303.121Z" fill="#00AFDB"/>
<path d="M262.978 303.121C262.978 303.121 262.978 302.989 262.978 302.726C262.978 302.462 262.978 302.067 262.942 301.555C262.942 300.508 262.898 298.978 262.854 296.98C262.788 292.961 262.686 287.083 262.561 279.602V279.5H262.664L318.142 279.185H318.31V279.346C318.31 284.916 318.369 290.728 318.398 296.753C318.398 298.261 318.398 299.776 318.398 301.313C318.384 301.683 318.403 302.053 318.457 302.418C318.527 302.777 318.663 303.12 318.859 303.429C319.275 304.048 319.862 304.531 320.55 304.819C321.24 305.121 321.997 305.237 322.746 305.156C323.495 305.063 324.192 304.726 324.73 304.197C325.809 302.975 327.182 302.048 328.719 301.503C329.117 301.384 329.527 301.308 329.942 301.277C331.2 301.208 332.45 301.528 333.521 302.192C334.932 303.144 335.914 304.61 336.259 306.276C336.625 307.937 336.529 309.666 335.981 311.276C335.7 312.091 335.252 312.838 334.664 313.468C334.077 314.099 333.363 314.599 332.57 314.936C331.758 315.259 330.888 315.411 330.015 315.382C329.136 315.33 328.28 315.079 327.511 314.65C326.748 314.235 326.043 313.717 325.418 313.113C325.103 312.82 324.803 312.476 324.525 312.191C324.082 311.763 323.534 311.459 322.936 311.312C322.339 311.164 321.712 311.177 321.121 311.349C320.328 311.581 319.64 312.08 319.174 312.762C318.715 313.461 318.502 314.292 318.566 315.126V317.739C318.566 325.703 318.566 333.528 318.566 341.163V341.354H318.42L262.4 341.58H262.232V341.412C262.324 335.712 262.415 330.259 262.503 325.052C262.546 322.451 262.588 319.921 262.627 317.461C262.664 316.859 262.664 316.255 262.627 315.653C262.547 315.077 262.323 314.531 261.976 314.065C261.476 313.375 260.746 312.887 259.918 312.687C259.091 312.487 258.219 312.589 257.459 312.974C256.979 313.246 256.552 313.603 256.2 314.028C255.409 314.817 254.491 315.468 253.484 315.953C252.516 316.405 251.441 316.58 250.379 316.459C249.317 316.337 248.309 315.924 247.467 315.265C246.721 314.631 246.116 313.847 245.693 312.965C245.269 312.082 245.036 311.12 245.008 310.141C244.866 308.362 245.311 306.585 246.274 305.083C247.123 303.828 248.43 302.955 249.915 302.653C251.4 302.35 252.944 302.642 254.216 303.465C255.219 304.119 256.126 304.91 256.91 305.815C257.577 306.398 258.433 306.719 259.318 306.719C260.204 306.719 261.06 306.398 261.727 305.815C262.156 305.446 262.495 304.983 262.715 304.461C262.892 304.032 262.993 303.577 263.015 303.114C263.015 303.114 263.015 303.231 263.015 303.465C262.98 303.814 262.896 304.157 262.766 304.483C262.553 305.017 262.217 305.493 261.785 305.874C261.107 306.481 260.23 306.82 259.319 306.828C258.409 306.836 257.526 306.513 256.837 305.917C256.05 305.026 255.146 304.246 254.15 303.597C252.901 302.794 251.385 302.516 249.932 302.825C248.479 303.133 247.207 304.002 246.391 305.244C245.48 306.709 245.069 308.43 245.22 310.148C245.249 311.094 245.476 312.024 245.887 312.876C246.298 313.729 246.884 314.485 247.606 315.097C248.415 315.728 249.383 316.122 250.403 316.235C251.423 316.349 252.454 316.178 253.382 315.741C254.362 315.267 255.253 314.628 256.017 313.852C256.394 313.413 256.848 313.046 257.357 312.769C257.887 312.496 258.474 312.353 259.069 312.352C260.001 312.343 260.904 312.672 261.611 313.278C262.319 313.883 262.784 314.724 262.92 315.646C262.956 316.262 262.956 316.881 262.92 317.498C262.886 319.938 262.849 322.468 262.81 325.089C262.727 330.286 262.644 335.739 262.561 341.449L262.4 341.288L318.42 341.01L318.237 341.193C318.237 333.572 318.237 325.747 318.2 317.769V315.163C318.136 314.251 318.373 313.343 318.874 312.579C319.388 311.823 320.151 311.272 321.03 311.021C321.908 310.769 322.847 310.834 323.683 311.202C324.097 311.377 324.477 311.625 324.803 311.934C325.118 312.264 325.381 312.564 325.689 312.857C326.292 313.432 326.969 313.924 327.702 314.321C328.422 314.719 329.223 314.949 330.044 314.994C330.862 315.022 331.677 314.88 332.438 314.577C333.186 314.257 333.857 313.782 334.408 313.184C334.96 312.586 335.378 311.879 335.637 311.107C336.168 309.57 336.262 307.915 335.908 306.327C335.591 304.752 334.665 303.365 333.331 302.47C332.666 302.046 331.916 301.771 331.135 301.665C330.365 301.54 329.576 301.592 328.829 301.818C327.35 302.344 326.03 303.239 324.993 304.417C324.398 305.002 323.626 305.375 322.797 305.478C321.984 305.568 321.16 305.442 320.411 305.112C319.659 304.796 319.017 304.263 318.566 303.582C318.348 303.237 318.194 302.855 318.113 302.455C318.055 302.063 318.033 301.666 318.047 301.269C318.047 299.737 318.047 298.219 318.047 296.716C318.047 290.692 318.003 284.88 317.981 279.317L318.142 279.478L262.664 279.661L262.788 279.624C262.869 287.112 262.934 292.99 262.986 297.009C262.986 299.007 262.986 300.537 262.986 301.584V302.755C262.986 302.989 262.978 303.121 262.978 303.121Z" fill="#263238"/>
<path d="M273.717 308.538C272.56 308.538 268.9 308.011 268.095 308.853C266.821 310.178 267.099 312.996 264.486 312.945C260.438 312.864 257.671 309.577 257.766 304.988C257.861 300.398 260.746 297.221 264.794 297.302C267.399 297.346 266.616 301.357 268.344 301.994C269.369 302.367 272.684 302.038 273.848 302.06C274.404 302.073 274.956 301.977 275.474 301.776C275.991 301.575 276.464 301.274 276.865 300.89C277.266 300.505 277.587 300.045 277.809 299.536C278.031 299.027 278.15 298.479 278.16 297.924L277.904 271.074L235.799 271.133L207.031 271.206V296.731C206.987 299.059 209.227 300.728 211.555 300.771C212.129 300.786 212.7 300.682 213.231 300.465C213.763 300.249 214.244 299.924 214.644 299.512C215.918 298.18 218.18 296.314 220.786 296.365C224.834 296.445 227.601 299.739 227.513 304.322C227.425 308.904 224.526 312.088 220.486 312.015C217.872 311.964 215.691 310.009 214.469 308.633C214.086 308.205 213.618 307.861 213.095 307.623C212.572 307.384 212.005 307.257 211.431 307.25C210.877 307.238 210.327 307.336 209.812 307.537C209.296 307.738 208.825 308.039 208.426 308.423C208.027 308.806 207.707 309.265 207.486 309.772C207.264 310.279 207.144 310.825 207.134 311.378L207.031 341.441H277.303L277.882 312.828C277.891 312.272 277.791 311.72 277.587 311.203C277.382 310.687 277.078 310.215 276.691 309.817C276.304 309.418 275.842 309.1 275.331 308.881C274.821 308.661 274.272 308.545 273.717 308.538V308.538Z" fill="#263238"/>
<path d="M269.281 308.538C268.707 308.524 268.136 308.63 267.604 308.847C267.072 309.065 266.591 309.391 266.192 309.804C264.918 311.129 262.664 312.996 260.051 312.945C256.003 312.864 253.243 309.577 253.331 304.988C253.419 300.398 256.31 297.221 260.358 297.302C262.971 297.346 265.153 299.3 266.368 300.676C266.752 301.105 267.221 301.45 267.745 301.688C268.269 301.926 268.837 302.053 269.413 302.06C269.966 302.071 270.516 301.974 271.032 301.773C271.548 301.571 272.018 301.27 272.418 300.887C272.817 300.503 273.136 300.045 273.358 299.538C273.58 299.031 273.699 298.485 273.71 297.931L273.453 271.082L231.349 271.14L202.581 271.213V296.738C202.537 299.066 204.777 300.735 207.105 300.779C207.68 300.793 208.252 300.688 208.784 300.472C209.317 300.255 209.799 299.931 210.201 299.52C211.475 298.188 213.73 296.321 216.335 296.372C220.383 296.453 223.15 299.747 223.063 304.329C222.975 308.911 220.083 312.096 216.035 312.022C213.422 311.971 211.241 310.017 210.018 308.64C209.636 308.212 209.168 307.867 208.645 307.629C208.122 307.391 207.555 307.264 206.981 307.257C206.427 307.245 205.877 307.343 205.361 307.544C204.846 307.746 204.375 308.047 203.976 308.43C203.577 308.813 203.257 309.272 203.035 309.779C202.814 310.286 202.694 310.832 202.684 311.385L202.581 341.449H272.853L273.431 312.835C273.442 312.28 273.343 311.728 273.14 311.212C272.937 310.695 272.634 310.224 272.249 309.825C271.863 309.425 271.402 309.106 270.893 308.885C270.384 308.665 269.836 308.547 269.281 308.538Z" fill="#455A64"/>
<path d="M269.281 308.538C269.482 308.533 269.683 308.548 269.881 308.582C270.472 308.665 271.037 308.877 271.535 309.204C272.359 309.743 272.972 310.55 273.27 311.488C273.448 312.088 273.512 312.716 273.46 313.34C273.46 314.006 273.461 314.716 273.424 315.47C273.314 321.494 273.153 330.3 272.948 341.449V341.559H272.838L202.566 341.617H202.398V341.449C202.398 335.563 202.415 329.495 202.449 323.244C202.449 320.126 202.449 316.956 202.449 313.728C202.449 312.923 202.449 312.117 202.449 311.312C202.473 310.463 202.743 309.64 203.225 308.941C203.71 308.234 204.392 307.685 205.185 307.362C205.979 307.038 206.849 306.953 207.69 307.118C208.542 307.278 209.325 307.692 209.938 308.304C210.48 308.92 211.069 309.493 211.702 310.017C212.917 311.099 214.468 311.727 216.094 311.795C217.747 311.821 219.342 311.189 220.53 310.039C221.709 308.852 222.461 307.307 222.667 305.647C222.798 304.819 222.822 303.977 222.74 303.143C222.68 302.303 222.487 301.478 222.169 300.698C221.572 299.111 220.38 297.82 218.846 297.097C218.075 296.744 217.241 296.553 216.394 296.534C215.547 296.515 214.705 296.669 213.92 296.987C213.131 297.317 212.392 297.756 211.724 298.29C211.387 298.554 211.058 298.839 210.743 299.132C210.436 299.455 210.111 299.76 209.769 300.047C209.141 300.524 208.394 300.82 207.61 300.903C206.834 300.978 206.052 300.88 205.319 300.618C204.628 300.347 204.006 299.927 203.496 299.388C202.95 298.822 202.592 298.101 202.471 297.324C202.432 296.947 202.417 296.568 202.427 296.189V288.481C202.427 282.625 202.427 276.869 202.427 271.213V271.03H202.61L273.482 270.928H273.636V271.082C273.687 276.981 273.739 282.625 273.783 287.983C273.783 290.655 273.826 293.268 273.848 295.794C273.848 296.433 273.848 297.063 273.848 297.682C273.861 298.32 273.741 298.953 273.497 299.542C273.254 300.106 272.894 300.612 272.442 301.027C271.989 301.441 271.453 301.756 270.87 301.949C270.287 302.141 269.67 302.209 269.059 302.146C268.448 302.083 267.858 301.892 267.326 301.584C266.827 301.282 266.384 300.895 266.016 300.442C265.64 300.037 265.239 299.656 264.816 299.3C264.002 298.593 263.064 298.044 262.049 297.682C261.066 297.363 260.019 297.295 259.003 297.485C258.048 297.654 257.143 298.039 256.359 298.612C255.575 299.184 254.932 299.927 254.48 300.786C253.655 302.361 253.297 304.139 253.448 305.91C253.532 307.495 254.076 309.021 255.014 310.302C255.811 311.335 256.906 312.099 258.15 312.492C259.395 312.884 260.73 312.887 261.975 312.498C262.927 312.173 263.818 311.691 264.611 311.071C265.238 310.584 265.83 310.053 266.382 309.482C266.818 309.095 267.332 308.805 267.89 308.633C268.226 308.522 268.576 308.461 268.929 308.45C269.046 308.44 269.164 308.44 269.281 308.45H268.929C268.581 308.477 268.237 308.546 267.905 308.655C267.362 308.835 266.863 309.127 266.441 309.512C265.893 310.091 265.306 310.631 264.684 311.129C263.886 311.762 262.988 312.257 262.027 312.593C260.855 312.973 259.599 313.003 258.411 312.681C257.015 312.321 255.781 311.504 254.904 310.361C253.95 309.086 253.384 307.564 253.272 305.976C253.106 304.166 253.464 302.347 254.304 300.735C254.769 299.849 255.431 299.081 256.237 298.488C257.044 297.896 257.975 297.495 258.96 297.316C260.011 297.112 261.097 297.18 262.114 297.514C263.158 297.88 264.124 298.439 264.962 299.161C265.396 299.522 265.807 299.911 266.192 300.325C266.543 300.761 266.97 301.13 267.451 301.416C267.954 301.701 268.512 301.877 269.088 301.932C269.663 301.987 270.244 301.92 270.792 301.735C271.34 301.549 271.843 301.25 272.268 300.857C272.692 300.464 273.029 299.986 273.256 299.454C273.746 298.356 273.519 297.068 273.556 295.794C273.556 293.268 273.497 290.67 273.475 287.983C273.417 282.625 273.358 277.003 273.292 271.082L273.453 271.235L202.581 271.404L202.771 271.213V296.204C202.763 296.565 202.778 296.927 202.815 297.287C202.954 297.986 203.278 298.635 203.755 299.164C204.232 299.694 204.843 300.085 205.524 300.296C206.203 300.538 206.928 300.631 207.646 300.567C208.361 300.486 209.041 300.215 209.615 299.783C209.944 299.503 210.257 299.205 210.552 298.89C210.875 298.59 211.211 298.297 211.563 298.026C212.26 297.467 213.034 297.011 213.861 296.672C214.693 296.335 215.585 296.172 216.483 296.192C217.38 296.212 218.264 296.415 219.08 296.789C220.707 297.55 221.973 298.916 222.608 300.596C222.933 301.41 223.133 302.269 223.201 303.143C223.285 304.009 223.257 304.882 223.121 305.742C222.903 307.481 222.112 309.098 220.874 310.339C219.615 311.557 217.926 312.228 216.174 312.205C214.467 312.143 212.833 311.494 211.548 310.368C210.903 309.841 210.303 309.26 209.755 308.633C209.196 308.073 208.482 307.696 207.705 307.55C207.131 307.437 206.539 307.45 205.97 307.589C205.401 307.728 204.87 307.989 204.412 308.354C203.955 308.719 203.582 309.179 203.32 309.703C203.058 310.226 202.913 310.8 202.896 311.385C202.896 312.191 202.896 312.996 202.896 313.794C202.896 317 202.884 320.172 202.859 323.31C202.859 329.551 202.837 335.617 202.793 341.507L202.618 341.332L272.89 341.397L272.78 341.507C273.021 330.359 273.219 321.553 273.358 315.521C273.358 314.789 273.358 314.057 273.409 313.398C273.463 312.785 273.403 312.168 273.234 311.576C273.01 310.828 272.582 310.157 271.997 309.64C271.412 309.122 270.695 308.779 269.925 308.648C269.486 308.545 269.281 308.553 269.281 308.538Z" fill="#263238"/>
<path d="M147.22 63.9477L149.848 58.5601C148.191 54.054 148.28 49.0912 150.096 44.6472C151.913 40.2033 155.327 36.5997 159.666 34.5449C164.005 32.4901 168.956 32.1328 173.545 33.5431C178.134 34.9535 182.03 38.0295 184.466 42.1665C186.902 46.3034 187.703 51.2021 186.71 55.8994C185.718 60.5967 183.004 64.7529 179.103 67.5508C175.201 70.3488 170.394 71.5861 165.627 71.0196C160.859 70.4531 156.476 68.1237 153.339 64.4893L147.22 63.9477Z" fill="white"/>
<path d="M147.22 63.9475H147.637L148.815 64.0427L153.354 64.4233L153.273 64.5404L153.003 63.9914L153.412 64.4526C155.495 66.8347 158.132 68.6674 161.091 69.7889C164.763 71.1684 168.772 71.3796 172.568 70.3937C176.365 69.4077 179.764 67.2728 182.301 64.2809C184.838 61.289 186.388 57.5864 186.74 53.6797C187.092 49.7729 186.228 45.8529 184.266 42.456L183.666 41.4531L183 40.5308L182.663 40.0623L182.275 39.6305L181.477 38.796C178.339 35.5884 174.178 33.5791 169.714 33.1157C166.512 32.812 163.285 33.3221 160.333 34.5988C157.381 35.8755 154.8 37.8773 152.828 40.4185C150.857 42.9596 149.559 45.9576 149.056 49.1343C148.553 52.3109 148.86 55.5632 149.95 58.5893V58.5893L147.959 62.5274L147.439 63.5522L147.249 63.9109C147.249 63.9109 147.293 63.8011 147.403 63.5742C147.513 63.3473 147.674 62.9886 147.879 62.5494L149.774 58.56V58.6259C148.655 55.6322 148.306 52.4056 148.757 49.2416C149.468 44.3224 152.043 39.8649 155.95 36.7922C159.856 33.7194 164.795 32.2668 169.743 32.735C174.297 33.2015 178.545 35.2414 181.755 38.5032L182.539 39.3816L182.927 39.8208L183.278 40.3039L184.01 41.2555L184.625 42.2803C186.067 44.7657 186.937 47.5412 187.171 50.405C187.405 53.2688 186.998 56.1488 185.979 58.8354C184.961 61.5221 183.356 63.9479 181.282 65.9364C179.208 67.9249 176.716 69.426 173.989 70.3305C170.361 71.5441 166.453 71.644 162.767 70.6173C159.082 69.5906 155.788 67.4844 153.31 64.5697L153.442 64.4819L153.5 64.6136H153.361L148.779 64.1232L147.622 63.9987L147.22 63.9475Z" fill="#263238"/>
<path d="M158.719 52.3526L161.201 49.8711L165.988 54.1241L175.387 45.0839L177.693 47.5653L165.637 58.9113L158.719 52.3526Z" fill="#00AFDB"/>
<path d="M126.35 316.283L125.735 332.423C125.735 332.423 141.935 338.462 142.118 341.456L110.781 341.39L110.7 316.209L126.35 316.283Z" fill="#263238"/>
<path d="M116.051 331.047C115.748 331.137 115.49 331.338 115.326 331.608C115.162 331.879 115.105 332.201 115.166 332.511C115.245 332.821 115.443 333.088 115.716 333.255C115.99 333.422 116.317 333.475 116.63 333.404C116.95 333.307 117.223 333.095 117.396 332.808C117.569 332.521 117.63 332.181 117.567 331.852C117.444 331.548 117.209 331.303 116.911 331.167C116.613 331.031 116.274 331.014 115.963 331.12" fill="#E0E0E0"/>
<path d="M110.781 341.39L110.869 338.857L140.881 339.868C140.881 339.868 142.271 340.475 142.118 341.456L110.781 341.39Z" fill="#455A64"/>
<path d="M126.248 332.262C126.248 332.416 125.479 332.482 124.725 332.994C123.971 333.507 123.569 334.129 123.422 334.07C123.276 334.012 123.518 333.126 124.44 332.548C125.362 331.969 126.277 332.123 126.248 332.262Z" fill="white"/>
<path d="M129.564 333.631C129.6 333.777 128.942 334.034 128.415 334.685C127.888 335.337 127.749 336.01 127.595 336.003C127.441 335.995 127.346 335.132 128.005 334.341C128.664 333.55 129.564 333.485 129.564 333.631Z" fill="white"/>
<path d="M131.387 337.569C131.248 337.569 131.035 336.837 131.431 335.995C131.826 335.154 132.543 334.831 132.609 334.956C132.675 335.08 132.229 335.527 131.914 336.222C131.599 336.918 131.54 337.554 131.387 337.569Z" fill="white"/>
<path d="M125.977 328.573C125.911 328.712 125.245 328.5 124.345 328.573C123.444 328.646 122.807 328.902 122.727 328.77C122.646 328.639 123.298 328.097 124.315 328.038C125.333 327.98 126.05 328.448 125.977 328.573Z" fill="white"/>
<path d="M87.9935 314.087L86.2953 333.55L89.3916 349.34C89.445 349.609 89.4424 349.886 89.3838 350.154C89.3253 350.423 89.2122 350.676 89.0515 350.898C88.8908 351.121 88.6859 351.308 88.4498 351.448C88.2136 351.588 87.9511 351.677 87.6787 351.711V351.711C87.3626 351.751 87.0415 351.715 86.7423 351.605C86.443 351.496 86.1743 351.316 85.9585 351.082C83.1696 348.037 72.9509 336.786 73.1559 335.366C73.3901 333.726 73.5804 314.716 73.5804 314.716L87.9935 314.087Z" fill="#263238"/>
<path d="M87.6789 351.711L73.2365 334.048L73.1853 334.875C73.1402 335.59 73.3475 336.297 73.7709 336.874C74.9201 338.404 78.1629 342.576 85.9001 351.075C86.1207 351.32 86.3987 351.506 86.7091 351.617C87.0196 351.729 87.3528 351.761 87.6789 351.711V351.711Z" fill="#455A64"/>
<g opacity="0.6">
<path d="M77.6433 328.017C77.8729 328.208 78.0232 328.478 78.0651 328.774C78.107 329.071 78.0376 329.372 77.8702 329.62C77.6864 329.853 77.4208 330.007 77.1273 330.052C76.8338 330.097 76.5341 330.029 76.2891 329.861C76.0471 329.657 75.8893 329.371 75.846 329.057C75.8027 328.743 75.8771 328.425 76.0548 328.163C76.2713 327.937 76.567 327.804 76.8797 327.791C77.1923 327.779 77.4976 327.889 77.7311 328.097" fill="white"/>
</g>
<path d="M83.7698 342.905C84.235 342.284 84.8591 341.798 85.5765 341.501C86.2939 341.203 87.0782 341.104 87.847 341.215C87.847 341.163 87.6348 340.995 87.1809 340.9C86.5837 340.793 85.9685 340.862 85.4095 341.097C84.8524 341.33 84.3726 341.716 84.026 342.21C83.7698 342.576 83.7259 342.883 83.7698 342.905Z" fill="white"/>
<path d="M84.9921 345.607C85.5699 345.327 86.1639 345.083 86.7709 344.875C87.4098 344.797 88.0525 344.756 88.696 344.75C88.4063 344.545 88.0722 344.412 87.721 344.361C87.3699 344.31 87.0117 344.343 86.6757 344.457C85.5045 344.721 84.9116 345.548 84.9921 345.607Z" fill="white"/>
<path d="M81.3984 339.392C82.255 338.889 83.1481 338.451 84.0702 338.082C85.6294 337.569 86.9982 337.723 86.9982 337.591C85.9892 337.325 84.9251 337.353 83.9315 337.672C82.938 337.991 82.0565 338.588 81.3911 339.392H81.3984Z" fill="white"/>
<path d="M81.4204 333.433C81.4643 333.55 82.5696 333.17 83.9751 333.206C85.3805 333.243 86.4712 333.653 86.5224 333.536C85.7867 333.004 84.8885 332.745 83.9824 332.804C83.0808 332.703 82.1726 332.926 81.4204 333.433V333.433Z" fill="white"/>
<path d="M81.7714 327.702C82.6396 327.483 83.5334 327.382 84.4286 327.402C85.8926 327.533 86.8954 328.324 86.976 328.214C87.0565 328.104 86.8076 327.921 86.3757 327.629C85.8012 327.265 85.1492 327.042 84.4725 326.977C83.7943 326.903 83.1081 326.996 82.4742 327.248C81.9837 327.446 81.7495 327.658 81.7714 327.702Z" fill="white"/>
<path d="M84.4653 326.311C84.5427 326.075 84.5676 325.825 84.5385 325.579C84.5171 324.898 84.3604 324.229 84.0774 323.61C83.9082 323.14 83.5893 322.739 83.1697 322.468C83.0241 322.389 82.8575 322.358 82.6933 322.379C82.5292 322.4 82.3757 322.472 82.2547 322.585C82.0297 322.818 81.8992 323.125 81.8887 323.449C81.8911 324.106 82.1227 324.742 82.5435 325.247C82.9644 325.752 83.5482 326.095 84.1945 326.216C84.8366 326.323 85.4963 326.238 86.0894 325.969C86.6825 325.7 87.1823 325.261 87.5251 324.708C87.6098 324.569 87.6641 324.414 87.6843 324.252C87.7045 324.09 87.6901 323.926 87.6422 323.771C87.5762 323.618 87.4633 323.491 87.3198 323.406C87.1764 323.322 87.0098 323.286 86.8443 323.302C86.3574 323.376 85.8982 323.575 85.5121 323.881C84.9529 324.28 84.4695 324.776 84.0847 325.345C83.9261 325.536 83.809 325.758 83.7406 325.996C84.2968 325.297 84.95 324.681 85.6804 324.166C86.027 323.915 86.4284 323.749 86.8516 323.683C86.9425 323.674 87.034 323.694 87.1129 323.74C87.1918 323.786 87.2541 323.856 87.2908 323.939C87.3142 324.044 87.3159 324.153 87.2957 324.259C87.2756 324.365 87.2341 324.465 87.1737 324.554C86.8613 325.027 86.4183 325.399 85.8986 325.625C85.3789 325.851 84.8047 325.922 84.2457 325.828C83.7001 325.721 83.2065 325.433 82.8451 325.01C82.4837 324.588 82.2757 324.056 82.2547 323.5C82.2581 323.277 82.3382 323.063 82.4816 322.893C82.5474 322.829 82.6311 322.787 82.7215 322.773C82.8118 322.758 82.9044 322.772 82.9867 322.812C83.34 323.044 83.6135 323.378 83.7699 323.771C84.1474 324.571 84.3827 325.43 84.4653 326.311V326.311Z" fill="white"/>
<path d="M141.444 180.233C142.956 186.923 143.467 193.801 142.959 200.641C142.63 204.975 127.99 324.942 127.99 324.942H108.226L113.782 212.214L112.164 212.558C112.164 212.558 101.382 260.651 100.496 268.439C99.7055 275.437 90.6141 326.267 90.6141 326.267L72.5557 326.472L78.3238 259.216L85.0363 194.712L87.5617 175.929L141.444 180.233Z" fill="#263238"/>
<path d="M113.072 204.535C113.072 204.535 113.108 204.594 113.196 204.675C113.341 204.782 113.505 204.859 113.679 204.901C114.005 204.969 114.342 204.963 114.666 204.886C114.99 204.809 115.293 204.662 115.553 204.455C115.924 204.136 116.228 203.746 116.448 203.309C116.668 202.872 116.799 202.396 116.834 201.908C116.973 200.832 116.995 199.675 117.076 198.453C117.208 196.015 117.31 193.804 117.361 192.201C117.431 191.339 117.431 190.472 117.361 189.61C117.207 190.461 117.116 191.322 117.09 192.187C116.966 193.782 116.827 195.993 116.695 198.431C116.615 199.646 116.6 200.824 116.483 201.856C116.436 202.763 116.043 203.617 115.385 204.243C115.156 204.439 114.889 204.585 114.6 204.673C114.312 204.762 114.008 204.789 113.709 204.755C113.489 204.707 113.275 204.633 113.072 204.535Z" fill="#455A64"/>
<path d="M84.0039 192.941C84.1757 193.04 84.3642 193.107 84.5602 193.138C85.0765 193.27 85.6029 193.358 86.134 193.402C87.9088 193.557 89.6953 193.292 91.3487 192.628C93.002 191.965 94.4756 190.92 95.65 189.581C96.0056 189.182 96.3264 188.753 96.6089 188.3C96.7262 188.14 96.8153 187.962 96.8725 187.773C96.8139 187.773 96.3747 188.446 95.4524 189.398C94.2505 190.637 92.8049 191.614 91.2068 192.267C89.6043 192.904 87.8863 193.198 86.1633 193.131C84.8237 193.08 84.0185 192.875 84.0039 192.941Z" fill="#455A64"/>
<path d="M133.575 187.919C133.569 188.592 133.67 189.262 133.875 189.903C134.289 191.466 134.96 192.95 135.859 194.295C136.76 195.649 137.878 196.846 139.167 197.838C139.68 198.27 140.255 198.623 140.873 198.884C140.968 198.782 138.238 197.223 136.181 194.083C134.991 192.179 134.111 190.099 133.575 187.919Z" fill="#455A64"/>
<path d="M131.679 60.0826C132.576 60.1256 133.457 59.8378 134.155 59.2739C134.853 58.7099 135.32 57.9091 135.466 57.0237C135.612 56.1383 135.428 55.2299 134.949 54.4713C134.469 53.7127 133.728 53.1567 132.865 52.909C133.399 52.3097 133.729 51.5565 133.807 50.7579C133.886 49.9593 133.709 49.1563 133.302 48.4646C132.895 47.7729 132.279 47.2282 131.543 46.9087C130.807 46.5893 129.988 46.5116 129.205 46.687C129.133 45.9043 128.859 45.1536 128.411 44.5084C127.962 43.8631 127.353 43.3452 126.645 43.0052C125.936 42.6652 125.151 42.5148 124.367 42.5687C123.583 42.6225 122.826 42.8788 122.171 43.3124C121.251 42.6406 120.133 42.2946 118.994 42.3291C117.855 42.3636 116.761 42.7765 115.883 43.5028C115.117 43.4172 114.343 43.5756 113.673 43.9555C113.002 44.3354 112.468 44.9173 112.148 45.6184C111.827 46.3194 111.736 47.1037 111.888 47.8595C112.039 48.6153 112.426 49.3039 112.991 49.8273" fill="#263238"/>
<path d="M115.305 47.1408L116.11 47.1042C119.994 46.9153 123.807 48.1951 126.791 50.6893C129.775 53.1835 131.711 56.7094 132.214 60.5657C133.187 68.0101 134.168 76.2451 134.322 80.2565C134.629 88.5647 126.387 90.2702 126.387 90.2702L127.587 100.211L107.406 100.584L103.827 64.4965C102.678 55.9175 106.696 48.0778 115.305 47.1408Z" fill="#FFBF9D"/>
<path d="M126.482 90.2556C122.626 90.4473 118.795 89.5303 115.443 87.6131C115.443 87.6131 118.298 93.4691 126.548 92.2979L126.482 90.2556Z" fill="#FF9A6C"/>
<path d="M130.222 68.2224C130.243 68.5316 130.14 68.8362 129.938 69.0705C129.735 69.3048 129.448 69.4498 129.139 69.4741C128.989 69.4945 128.837 69.4846 128.691 69.4449C128.545 69.4051 128.408 69.3364 128.29 69.2429C128.171 69.1493 128.072 69.0327 127.999 68.9002C127.926 68.7676 127.881 68.6218 127.865 68.4713C127.847 68.1618 127.95 67.8573 128.152 67.6223C128.354 67.3873 128.64 67.2402 128.949 67.2122C129.099 67.1929 129.252 67.2038 129.398 67.2444C129.544 67.285 129.68 67.3544 129.799 67.4486C129.917 67.5427 130.016 67.6597 130.089 67.7926C130.162 67.9255 130.207 68.0717 130.222 68.2224V68.2224Z" fill="#263238"/>
<path d="M130.654 64.7161C130.515 64.8772 129.586 64.255 128.305 64.3208C127.024 64.3867 126.109 65.0528 125.984 64.9284C125.86 64.8039 126.05 64.5697 126.438 64.255C126.972 63.8459 127.618 63.6108 128.29 63.5815C128.955 63.5467 129.613 63.7236 130.171 64.0866C130.574 64.3721 130.72 64.6429 130.654 64.7161Z" fill="#263238"/>
<path d="M118.415 68.5445C118.434 68.8532 118.331 69.1569 118.128 69.3907C117.926 69.6245 117.64 69.77 117.332 69.7962C117.183 69.8157 117.032 69.8056 116.886 69.7665C116.741 69.7273 116.605 69.6599 116.486 69.5681C116.367 69.4763 116.268 69.3619 116.193 69.2315C116.118 69.101 116.07 68.9571 116.051 68.808C116.028 68.4984 116.127 68.1922 116.327 67.9544C116.527 67.7166 116.811 67.5659 117.12 67.5343C117.272 67.5129 117.426 67.5222 117.574 67.5617C117.722 67.6012 117.861 67.6702 117.982 67.7644C118.103 67.8587 118.204 67.9764 118.278 68.1104C118.352 68.2444 118.399 68.392 118.415 68.5445Z" fill="#263238"/>
<path d="M118.122 65.5726C117.983 65.7409 117.054 65.1187 115.78 65.1846C114.506 65.2505 113.584 65.9166 113.452 65.7849C113.321 65.6531 113.518 65.4335 113.913 65.1187C114.444 64.7086 115.088 64.4733 115.758 64.4453C116.423 64.4069 117.083 64.584 117.639 64.9504C118.042 65.2285 118.196 65.5067 118.122 65.5726Z" fill="#263238"/>
<path d="M123.224 74.8104C123.887 74.5658 124.578 74.406 125.281 74.3346C125.603 74.2834 125.911 74.2028 125.955 73.9759C125.96 73.639 125.866 73.308 125.684 73.0243C125.34 72.2484 124.952 71.4359 124.601 70.5868C123.085 67.1244 121.973 64.2696 122.112 64.2037C122.251 64.1378 123.576 66.9048 125.106 70.3745L126.152 72.8194C126.378 73.2031 126.461 73.6542 126.387 74.093C126.346 74.2109 126.278 74.3178 126.189 74.4054C126.101 74.493 125.993 74.5589 125.874 74.5981C125.697 74.6566 125.512 74.691 125.325 74.7006C124.632 74.8243 123.927 74.8612 123.224 74.8104V74.8104Z" fill="#263238"/>
<path d="M118.986 60.6096C118.832 60.9463 117.727 60.6096 116.373 60.6682C115.019 60.7267 113.906 60.9756 113.767 60.6682C113.701 60.5071 113.928 60.207 114.404 59.9362C115.014 59.5927 115.702 59.4113 116.402 59.4091C117.094 59.4003 117.776 59.5745 118.379 59.9142C118.84 60.1558 119.052 60.4559 118.986 60.6096Z" fill="#263238"/>
<path d="M130.457 59.453C130.201 59.7532 129.132 59.5043 127.866 59.5555C126.599 59.6068 125.538 59.863 125.275 59.5555C125.157 59.4091 125.311 59.109 125.765 58.8235C126.398 58.4604 127.112 58.2609 127.842 58.243C128.572 58.2251 129.294 58.3894 129.945 58.721C130.406 59.0138 130.567 59.292 130.457 59.453Z" fill="#263238"/>
<path d="M131.248 56.7959C131.248 56.7959 128.803 51.6719 126.233 50.6178C123.122 49.3002 121.988 52.6967 119.052 52.0306C116.117 51.3645 113.153 50.0981 110.305 52.4844C107.194 55.0903 108.797 56.73 108.775 60.4266C108.709 75.4033 106.191 79.7587 105.064 72.7681C104.939 72.0361 102.773 71.4944 102.297 68.2517C101.675 64.05 101.258 58.9333 102.048 55.8882C102.722 53.3189 104.068 51.4962 106.557 49.4539C110.481 46.2112 116.073 45.8671 119.902 46.0648C123.73 46.2624 131.27 50.2664 131.248 56.7959Z" fill="#263238"/>
<path d="M105.584 72.5119C105.558 72.2078 105.472 71.912 105.329 71.6423C105.186 71.3727 104.99 71.1348 104.753 70.9432C104.515 70.7516 104.241 70.6101 103.947 70.5275C103.654 70.4448 103.346 70.4227 103.044 70.4623C101.499 70.6893 99.8228 71.6482 100.116 74.8543C100.577 80.52 106.169 78.8877 106.169 78.7193C106.169 78.5509 105.796 74.8836 105.584 72.5119Z" fill="#FFBF9D"/>
<path d="M104.727 76.6843C104.727 76.6843 104.639 76.7575 104.478 76.8527C104.253 76.9697 103.991 76.9958 103.746 76.9259C103.131 76.7575 102.546 75.8499 102.436 74.8251C102.378 74.3312 102.434 73.8306 102.597 73.3611C102.636 73.1798 102.719 73.0107 102.837 72.8681C102.956 72.7254 103.107 72.6133 103.278 72.5412C103.39 72.5032 103.511 72.505 103.622 72.5463C103.733 72.5877 103.826 72.666 103.885 72.7681C103.973 72.9219 103.944 73.0317 103.973 73.039C104.002 73.0463 104.09 72.9365 104.024 72.7096C103.983 72.5717 103.895 72.4525 103.776 72.3729C103.693 72.3188 103.601 72.2818 103.504 72.2642C103.407 72.2466 103.308 72.2487 103.212 72.2704C102.983 72.3364 102.775 72.4598 102.607 72.6289C102.439 72.798 102.317 73.0072 102.253 73.2366C102.057 73.7467 101.984 74.2961 102.041 74.8397C102.172 75.9816 102.846 77.0357 103.68 77.1675C103.836 77.2002 103.997 77.1974 104.152 77.1594C104.307 77.1214 104.451 77.0491 104.573 76.9479C104.727 76.86 104.749 76.6917 104.727 76.6843Z" fill="#6F4439"/>
<path d="M105.144 61.488C105.868 62.0233 106.713 62.3704 107.604 62.4982C108.049 62.5445 108.497 62.4275 108.863 62.1691C109.229 61.9107 109.489 61.5282 109.595 61.0927C109.646 60.6974 109.522 60.2436 109.77 59.9288C110.019 59.6141 110.642 59.6287 111.117 59.658C112.779 59.7532 114.616 57.8353 114.953 56.2103C115.183 56.5087 115.518 56.7071 115.891 56.7644C116.263 56.8216 116.643 56.7333 116.951 56.5177C117.461 56.1718 117.904 55.7381 118.262 55.2367C118.467 54.9157 118.748 54.6498 119.08 54.4622C119.411 54.2746 119.784 54.1711 120.165 54.1607C120.57 54.281 120.987 54.3522 121.409 54.373C122.141 54.2705 122.471 53.3774 122.551 52.6308C122.632 51.8842 122.668 51.0204 123.283 50.5885C123.898 50.1566 124.615 50.3616 125.303 50.4275C125.992 50.4934 126.877 50.2957 127.016 49.615C127.037 49.4339 127.02 49.2507 126.969 49.076C126.917 48.9013 126.831 48.7386 126.716 48.5975C126.224 47.9345 125.523 47.4573 124.725 47.2434C123.928 47.0294 123.082 47.0913 122.324 47.419C121.999 46.4872 121.404 45.6729 120.616 45.0793C119.827 44.4858 118.88 44.1396 117.895 44.0847C116.91 44.0299 115.93 44.2687 115.081 44.7711C114.231 45.2734 113.55 46.0166 113.123 46.9066C112.493 46.3899 111.747 46.0329 110.949 45.866C110.152 45.699 109.325 45.727 108.541 45.9476C107.756 46.1682 107.036 46.5748 106.443 47.133C105.849 47.6912 105.398 48.3844 105.13 49.1538C104.425 49.0018 103.691 49.0614 103.02 49.325C102.348 49.5887 101.77 50.0447 101.357 50.6359C100.944 51.227 100.715 51.9269 100.699 52.6478C100.682 53.3686 100.879 54.0783 101.265 54.6877C100.75 54.9771 100.317 55.392 100.006 55.8937C99.6952 56.3954 99.5162 56.9677 99.4858 57.5572C99.5224 58.7357 100.73 59.8483 101.843 59.4823C101.692 59.9412 101.709 60.4389 101.891 60.8863C102.073 61.3337 102.409 61.7017 102.838 61.9244C103.266 62.1471 103.76 62.21 104.231 62.1019C104.702 61.9938 105.119 61.7217 105.408 61.3343" fill="#263238"/>
<path d="M122.808 49.044C122.808 49.044 122.808 49.044 122.808 49.1538C122.808 49.2636 122.808 49.3222 122.808 49.4539C122.751 49.8447 122.63 50.2232 122.449 50.5739C122.16 51.1273 121.747 51.6059 121.241 51.972C120.584 52.4774 119.779 52.7527 118.95 52.7552L119.038 52.6235C119.137 52.875 119.185 53.1438 119.179 53.4141C119.172 53.6844 119.112 53.9506 119.001 54.1973C118.778 54.7283 118.474 55.222 118.101 55.6613C117.926 55.9089 117.724 56.1371 117.501 56.342C117.242 56.5406 116.937 56.6715 116.615 56.7227C116.283 56.7879 115.939 56.7706 115.615 56.6724C115.291 56.5741 114.996 56.3978 114.756 56.159L114.968 56.0858C114.919 56.6803 114.746 57.2579 114.46 57.7812C114.173 58.3045 113.78 58.7618 113.306 59.1236C112.792 59.56 112.15 59.817 111.476 59.8556C110.843 59.8577 110.214 59.7513 109.617 59.5409L109.763 59.4677C109.503 60.169 109.073 60.7951 108.512 61.2904C108.253 61.5342 107.944 61.7177 107.606 61.8278C107.268 61.9379 106.91 61.9718 106.557 61.9272C105.955 61.8281 105.395 61.5549 104.946 61.1413C104.497 60.7276 104.18 60.1916 104.032 59.5994L104.164 59.6507C103.582 60.0011 102.896 60.1383 102.224 60.0386C101.724 59.9703 101.247 59.7847 100.833 59.497C100.575 59.314 100.35 59.0888 100.167 58.8308C100.099 58.7443 100.045 58.6481 100.006 58.5454C100.244 58.8863 100.541 59.1814 100.884 59.4164C101.292 59.68 101.756 59.8454 102.238 59.8996C102.876 59.9808 103.522 59.8413 104.068 59.5043L104.171 59.4384V59.5555C104.308 60.116 104.608 60.6234 105.032 61.0141C105.457 61.4048 105.987 61.6613 106.557 61.7515C106.879 61.7881 107.204 61.7532 107.51 61.6494C107.816 61.5457 108.096 61.3756 108.329 61.1513C108.86 60.6831 109.265 60.0891 109.507 59.4238L109.551 59.3213H109.661C110.231 59.5168 110.83 59.6181 111.432 59.6214C112.052 59.5895 112.645 59.3584 113.123 58.9626C113.572 58.6229 113.944 58.1925 114.215 57.6993C114.486 57.2062 114.651 56.6614 114.697 56.1005V55.837L114.88 56.0346C115.095 56.2426 115.357 56.3962 115.643 56.4828C115.93 56.5694 116.233 56.5864 116.527 56.5324C116.81 56.4855 117.079 56.3727 117.31 56.203C117.52 56.0088 117.709 55.7929 117.874 55.5588C118.257 55.147 118.573 54.6777 118.811 54.168C118.913 53.9464 118.97 53.7069 118.979 53.4631C118.988 53.2193 118.948 52.9763 118.862 52.7479L118.811 52.6162H118.957C119.749 52.6162 120.52 52.3593 121.153 51.8842C121.642 51.5329 122.047 51.0779 122.339 50.5519C122.589 50.0833 122.748 49.5717 122.808 49.044Z" fill="#455A64"/>
<path d="M123.166 79.1878C123.122 78.9755 121.739 79.3415 120.45 78.4118C119.162 77.4822 118.921 75.9816 118.723 76.0182C118.635 76.0182 118.54 76.4208 118.686 77.043C118.889 77.8533 119.371 78.5661 120.048 79.056C120.698 79.5295 121.506 79.7316 122.302 79.6196C122.895 79.5245 123.195 79.2829 123.166 79.1878Z" fill="#263238"/>
<path d="M182.37 128.364L161.084 144.936C161.084 144.936 158.258 132.492 150.726 113.95C149.787 111.594 148.617 109.336 147.234 107.209C147.146 107.026 147.059 106.85 146.978 106.704C144.16 101.433 138.231 99.1055 134.534 98.8786C133.978 98.842 132.587 98.8786 130.64 98.9884L129.264 98.5419L127.69 93.8571L123.927 98.0075L105.971 89.5163L104.244 96.1555L91.4998 101.792C91.4998 101.792 79.7365 104.427 78.2359 114.551C76.5084 126.197 75.0005 152.864 75.0005 152.864L89.5746 145.397L86.061 172.057L86.9174 181.88L120.37 187.348C122.173 187.615 124.006 187.615 125.809 187.348L142.286 184.918L144.277 180.226L142.418 150.485V148.559C144.46 153.822 149.211 164.729 154.049 166.545C158.719 168.301 183.732 144.936 183.732 144.936L182.37 128.364Z" fill="#E0E0E0"/>
<path d="M105.986 89.5163C105.986 89.5163 107.992 90.1019 113.152 92.8542C118.203 95.548 123.942 97.9782 123.942 97.9782L123.51 106.14L104.39 96.5435" fill="#E0E0E0"/>
<path d="M127.704 93.8571L123.942 98.0075L125.955 106.704L129.307 98.8493" fill="#E0E0E0"/>
<g opacity="0.3">
<path d="M124.015 98.9079C124.183 99.0323 125.223 108.944 125.223 108.944L106.066 97.356L123.51 106.14L124.015 98.9079Z" fill="black"/>
</g>
<path d="M123.883 135.888C123.598 128.312 124.791 108.973 124.791 108.973L127.287 108.57C130.47 122.332 132.613 136.314 133.7 150.397C134.432 159.722 134.432 170.519 134.432 170.519L129.41 181.287L123.84 170.556C123.84 170.556 124.235 145.097 123.883 135.888Z" fill="#455A64"/>
<path d="M87.7227 104.112C87.7227 104.149 88.2424 104.574 89.0183 105.379C91.0534 107.467 92.4611 110.084 93.0809 112.933C93.3225 114.016 93.3737 114.712 93.4176 114.704C93.4444 114.542 93.4444 114.376 93.4176 114.214C93.3971 113.769 93.3433 113.326 93.2566 112.889C92.9862 111.441 92.4923 110.043 91.7926 108.746C91.094 107.445 90.1948 106.261 89.1281 105.24C88.8119 104.929 88.4744 104.64 88.1179 104.376C87.9994 104.27 87.8663 104.181 87.7227 104.112V104.112Z" fill="#263238"/>
<path d="M123.884 101.887L125.596 101.221L127.214 104.003L127.507 108.57L125.223 108.944L123.51 106.118L123.884 101.887Z" fill="#455A64"/>
<path d="M142.389 115.48C142.315 115.48 142.257 125.377 142.257 137.572C142.257 149.767 142.315 159.671 142.389 159.671C142.462 159.671 142.52 149.782 142.52 137.572C142.52 125.362 142.462 115.48 142.389 115.48Z" fill="#263238"/>
<path d="M123.766 97.9416C123.73 97.9416 124.132 98.5784 124.74 99.5959C125.348 100.613 126.145 102.033 126.936 103.666C127.002 103.798 127.06 103.937 127.119 104.061L127.236 104.317L127.361 104.061C127.982 102.749 128.515 101.397 128.956 100.013C129.125 99.4861 129.242 99.0542 129.315 98.7541C129.365 98.6025 129.394 98.445 129.403 98.2856C129.366 98.2856 129.161 98.9152 128.788 99.9546C128.299 101.311 127.742 102.643 127.119 103.944H127.368L127.185 103.549C126.529 102.144 125.775 100.786 124.93 99.4861C124.601 98.9884 124.323 98.5931 124.125 98.3296C123.928 98.066 123.781 97.927 123.766 97.9416Z" fill="#263238"/>
<path d="M104.259 96.1555C104.339 96.2205 104.428 96.2746 104.522 96.3166L105.298 96.7192L108.153 98.1832C110.561 99.4349 113.863 101.221 117.515 103.175C119.711 104.361 121.849 105.459 123.686 106.374L123.854 106.462V106.272C123.854 103.893 123.898 101.88 123.913 100.416V98.82C123.93 98.6252 123.93 98.4292 123.913 98.2344C123.88 98.4278 123.865 98.6238 123.869 98.82C123.869 99.2299 123.832 99.7789 123.803 100.46C123.767 101.924 123.715 103.915 123.649 106.316L123.825 106.213C121.995 105.276 119.894 104.171 117.669 102.985C114.009 101.031 110.7 99.2738 108.27 98.0587C107.055 97.4512 106.074 96.9754 105.342 96.6533L104.544 96.2946C104.455 96.2365 104.359 96.1898 104.259 96.1555V96.1555Z" fill="#263238"/>
<path d="M140.075 102.407C140.039 102.407 140.339 102.941 140.727 103.805C141.742 106.067 142.197 108.54 142.052 111.015C142 111.967 141.898 112.545 141.942 112.552C141.986 112.56 142 112.413 142.059 112.157C142.144 111.786 142.206 111.409 142.242 111.03C142.488 108.512 142.021 105.975 140.895 103.71C140.729 103.369 140.54 103.038 140.331 102.722C140.185 102.517 140.09 102.392 140.075 102.407Z" fill="#263238"/>
<path d="M125.64 109.236C125.684 109.302 126.116 109.097 126.614 108.783C127.112 108.468 127.478 108.16 127.441 108.102C127.404 108.043 126.965 108.241 126.467 108.556C125.97 108.87 125.604 109.178 125.64 109.236Z" fill="#263238"/>
<path d="M124.82 108.124C125.284 107.391 125.674 106.613 125.984 105.803C126.37 105.031 126.676 104.222 126.899 103.388C126.434 104.118 126.045 104.893 125.735 105.701C125.348 106.475 125.041 107.287 124.82 108.124V108.124Z" fill="#263238"/>
<path d="M85.7171 104.676C85.7171 104.676 79.7879 108.907 79.0559 111.264C78.3239 113.621 75.169 151.934 74.6127 156.494C74.0563 161.055 73.5 169.575 77.0209 172.349C80.5419 175.124 88.1327 177.217 88.1327 177.217L95.1599 162.716L91.4413 154.935L95.1599 125.838L85.7171 104.676Z" fill="#E0E0E0"/>
<path d="M86.4346 176.705C86.5609 176.688 86.6889 176.688 86.8152 176.705C87.1799 176.703 87.5442 176.678 87.9059 176.632C89.2654 176.504 90.5702 176.033 91.6976 175.263C93.3902 174.022 94.6664 172.296 95.3577 170.314C96.2563 167.809 96.7073 165.165 96.6899 162.504V162.606L91.2438 155.067L91.1999 155.008V154.935C91.1999 154.745 91.2511 154.533 91.2804 154.32C92.3272 146.166 93.2714 138.78 93.9668 133.392L94.7867 127.046C94.8819 126.314 94.9624 125.75 95.0136 125.326C95.0292 125.124 95.0585 124.923 95.1014 124.725C95.1095 124.776 95.1095 124.828 95.1014 124.879C95.1014 124.982 95.1014 125.128 95.1014 125.333C95.0648 125.758 95.0136 126.336 94.9477 127.061C94.8013 128.568 94.5525 130.721 94.2157 133.422C93.5862 138.787 92.6785 146.195 91.6318 154.371C91.6318 154.576 91.5805 154.789 91.5586 154.979V154.847C93.4691 157.512 95.3064 160.059 96.9827 162.402V162.445V162.504C96.9738 165.208 96.4779 167.889 95.5187 170.417C94.8048 172.439 93.4893 174.194 91.7489 175.446C91.0762 175.895 90.3343 176.232 89.5529 176.441L89.0624 176.58L88.6086 176.654C88.3458 176.708 88.0789 176.739 87.8107 176.749C87.443 176.781 87.0731 176.781 86.7054 176.749C86.6142 176.74 86.5237 176.726 86.4346 176.705V176.705Z" fill="#263238"/>
<path d="M79.2754 157.622C79.7308 157.173 80.2547 156.8 80.8272 156.516C82.178 155.759 83.6408 155.223 85.1607 154.928C86.6799 154.631 88.2372 154.581 89.7723 154.781C90.4106 154.833 91.0375 154.981 91.6315 155.221C89.5073 154.926 87.3509 154.951 85.2339 155.294C83.1415 155.764 81.1326 156.549 79.2754 157.622V157.622Z" fill="#263238"/>
<path d="M113.731 137.404C113.625 138.614 113.042 139.733 112.112 140.514C111.181 141.295 109.978 141.674 108.768 141.569C108.146 141.518 107.541 141.339 106.992 141.043C106.443 140.747 105.961 140.34 105.576 139.849C104.354 138.26 102.129 135.984 99.3031 135.742C94.9111 135.361 91.5586 138.597 91.1194 143.56C90.6802 148.523 93.4471 152.3 97.8245 152.681C100.657 152.929 103.234 151.07 104.713 149.753C105.176 149.333 105.723 149.015 106.316 148.818C106.91 148.622 107.538 148.551 108.16 148.611C108.759 148.662 109.342 148.831 109.876 149.108C110.409 149.385 110.883 149.765 111.27 150.225C111.657 150.685 111.949 151.217 112.13 151.791C112.311 152.364 112.378 152.967 112.325 153.566L109.602 184.545L178.608 189.163L180.906 156.589C180.958 155.989 181.127 155.406 181.405 154.871C181.682 154.337 182.062 153.862 182.523 153.475C182.984 153.087 183.517 152.794 184.091 152.613C184.665 152.431 185.27 152.365 185.869 152.417C186.493 152.468 187.1 152.647 187.65 152.945C188.201 153.242 188.684 153.651 189.068 154.145C190.291 155.726 192.509 158.002 195.334 158.251C199.726 158.632 203.086 155.389 203.518 150.426C203.95 145.463 201.198 141.693 196.813 141.305C193.987 141.064 191.403 142.916 189.925 144.27C189.461 144.688 188.917 145.005 188.324 145.202C187.732 145.398 187.106 145.47 186.484 145.412C183.959 145.192 181.653 143.216 181.873 140.698L183.732 113.035L115.436 108.424L113.731 137.404Z" fill="#00AFDB"/>
<g opacity="0.4">
<path d="M113.731 137.404C113.625 138.614 113.042 139.733 112.112 140.514C111.181 141.295 109.978 141.674 108.768 141.569C108.146 141.518 107.541 141.339 106.992 141.043C106.443 140.747 105.961 140.34 105.576 139.849C104.354 138.26 102.129 135.984 99.3031 135.742C94.9111 135.361 91.5586 138.597 91.1194 143.56C90.6802 148.523 93.4471 152.3 97.8245 152.681C100.657 152.929 103.234 151.07 104.713 149.753C105.176 149.333 105.723 149.015 106.316 148.818C106.91 148.622 107.538 148.551 108.16 148.611C108.759 148.662 109.342 148.831 109.876 149.108C110.409 149.385 110.883 149.765 111.27 150.225C111.657 150.685 111.949 151.217 112.13 151.791C112.311 152.364 112.378 152.967 112.325 153.566L109.602 184.545L178.608 189.163L180.906 156.589C180.958 155.989 181.127 155.406 181.405 154.871C181.682 154.337 182.062 153.862 182.523 153.475C182.984 153.087 183.517 152.794 184.091 152.613C184.665 152.431 185.27 152.365 185.869 152.417C186.493 152.468 187.1 152.647 187.65 152.945C188.201 153.242 188.684 153.651 189.068 154.145C190.291 155.726 192.509 158.002 195.334 158.251C199.726 158.632 203.086 155.389 203.518 150.426C203.95 145.463 201.198 141.693 196.813 141.305C193.987 141.064 191.403 142.916 189.925 144.27C189.461 144.688 188.917 145.005 188.324 145.202C187.732 145.398 187.106 145.47 186.484 145.412C183.959 145.192 181.653 143.216 181.873 140.698L183.732 113.035L115.436 108.424L113.731 137.404Z" fill="black"/>
</g>
<path d="M109.068 137.067C108.962 138.277 108.379 139.396 107.449 140.177C106.518 140.958 105.315 141.338 104.105 141.232C103.483 141.183 102.877 141.004 102.328 140.708C101.778 140.412 101.297 140.005 100.913 139.512C99.6909 137.931 97.4656 135.654 94.64 135.405C90.248 135.025 86.8955 138.26 86.4563 143.23C86.0171 148.201 88.7841 151.963 93.1614 152.344C95.9943 152.593 98.5709 150.733 100.05 149.416C100.514 148.998 101.06 148.68 101.654 148.484C102.247 148.287 102.875 148.216 103.497 148.274C104.708 148.38 105.826 148.962 106.607 149.893C107.388 150.824 107.768 152.026 107.662 153.237L104.939 184.208L173.93 188.856L176.236 156.275C176.288 155.676 176.457 155.093 176.734 154.559C177.011 154.026 177.39 153.552 177.851 153.165C178.311 152.778 178.843 152.486 179.416 152.305C179.989 152.124 180.593 152.057 181.192 152.11C181.815 152.159 182.421 152.337 182.972 152.633C183.523 152.93 184.006 153.337 184.391 153.83C185.613 155.411 187.831 157.687 190.656 157.936C195.048 158.317 198.408 155.082 198.84 150.111C199.272 145.141 196.52 141.378 192.135 140.998C189.31 140.749 186.726 142.608 185.247 143.926C184.784 144.344 184.239 144.661 183.647 144.858C183.054 145.054 182.428 145.126 181.807 145.068C179.281 144.848 176.975 142.872 177.195 140.361L179.062 112.691L110.766 108.08L109.068 137.067Z" fill="#00AFDB"/>
<path d="M109.068 137.067C109.068 137.067 109.068 136.899 109.068 136.577C109.068 136.255 109.068 135.764 109.141 135.113C109.207 133.832 109.31 131.936 109.441 129.476C109.712 124.528 110.115 117.288 110.627 108.065V107.963H110.73L179.033 112.501H179.201V112.662C178.742 119.523 178.254 126.665 177.737 134.088C177.612 135.947 177.488 137.814 177.364 139.702C177.316 140.162 177.316 140.626 177.364 141.086C177.419 141.535 177.558 141.969 177.774 142.367C178.229 143.175 178.915 143.829 179.743 144.248C180.572 144.684 181.5 144.896 182.436 144.863C183.376 144.811 184.273 144.453 184.991 143.845C186.423 142.451 188.187 141.444 190.115 140.917C190.612 140.806 191.121 140.75 191.63 140.749C192.14 140.758 192.648 140.82 193.145 140.932C194.152 141.145 195.1 141.572 195.927 142.184C197.57 143.473 198.645 145.354 198.921 147.425C199.221 149.494 198.948 151.605 198.13 153.53C197.719 154.509 197.107 155.39 196.332 156.117C195.558 156.843 194.639 157.398 193.636 157.746C192.615 158.069 191.538 158.177 190.474 158.061C189.403 157.928 188.376 157.553 187.472 156.963C186.572 156.386 185.754 155.689 185.042 154.891C184.684 154.511 184.31 154.064 184.025 153.676C183.685 153.299 183.281 152.984 182.832 152.746C181.922 152.264 180.872 152.116 179.864 152.328C178.857 152.541 177.956 153.101 177.32 153.91C176.688 154.739 176.349 155.753 176.353 156.794C176.28 157.863 176.2 158.932 176.127 160.008C175.395 169.809 174.75 179.443 174.084 188.827V189.01H173.901L104.94 184.332H104.771V184.164C105.396 177.151 105.989 170.446 106.55 164.049C106.838 160.857 107.114 157.748 107.377 154.723C107.466 153.982 107.512 153.237 107.516 152.49C107.471 151.77 107.244 151.072 106.857 150.463C106.485 149.862 105.975 149.358 105.369 148.994C104.763 148.63 104.078 148.416 103.373 148.369C102.683 148.325 101.991 148.44 101.353 148.706C101.039 148.837 100.742 149.004 100.467 149.204C100.203 149.401 99.9546 149.65 99.6837 149.877C98.6462 150.78 97.4631 151.5 96.1848 152.007C94.9561 152.473 93.6227 152.591 92.3313 152.348C91.0398 152.106 89.8403 151.511 88.8648 150.631C87.9646 149.786 87.2773 148.74 86.8591 147.579C86.4706 146.471 86.2822 145.304 86.3028 144.131C86.2843 141.933 86.9833 139.79 88.2938 138.026C89.4468 136.559 91.1289 135.602 92.9791 135.361C94.8294 135.121 96.7004 135.615 98.1905 136.738C99.3664 137.634 100.413 138.688 101.301 139.871C102.073 140.646 103.1 141.116 104.191 141.193C105.283 141.27 106.365 140.948 107.238 140.288C107.802 139.872 108.259 139.328 108.57 138.699C108.828 138.188 108.994 137.636 109.061 137.067L109.017 137.499C108.942 137.923 108.809 138.334 108.621 138.721C108.309 139.361 107.85 139.918 107.282 140.346C106.502 140.947 105.55 141.281 104.566 141.298C103.946 141.31 103.33 141.197 102.755 140.967C102.179 140.737 101.655 140.394 101.214 139.958C100.327 138.788 99.2822 137.746 98.1099 136.862C96.6522 135.768 94.8238 135.29 93.0171 135.529C91.2105 135.769 89.5699 136.707 88.4475 138.143C87.1692 139.876 86.4907 141.978 86.5151 144.131C86.4941 145.28 86.6826 146.424 87.0714 147.505C87.4821 148.62 88.149 149.623 89.0185 150.433C89.9628 151.283 91.1237 151.856 92.3729 152.087C93.6222 152.318 94.911 152.199 96.0969 151.744C97.347 151.245 98.503 150.537 99.5154 149.65C99.7789 149.431 100.02 149.182 100.313 148.969C100.602 148.752 100.916 148.573 101.25 148.435C101.924 148.148 102.657 148.025 103.388 148.076C104.135 148.121 104.861 148.344 105.505 148.726C106.15 149.108 106.693 149.638 107.092 150.272C107.521 150.929 107.773 151.685 107.824 152.468C107.828 153.227 107.784 153.985 107.692 154.738L106.872 164.078C106.316 170.471 105.73 177.176 105.115 184.193L104.969 184.018L173.931 188.644L173.733 188.819C174.392 179.443 175.072 169.787 175.768 160.001L175.995 156.787C175.993 155.67 176.361 154.584 177.042 153.698C177.735 152.819 178.715 152.211 179.81 151.98C180.905 151.749 182.047 151.909 183.037 152.432C183.525 152.692 183.963 153.037 184.332 153.449C184.684 153.874 184.984 154.269 185.342 154.657C186.03 155.43 186.821 156.104 187.692 156.663C188.547 157.222 189.519 157.58 190.532 157.709C191.545 157.82 192.57 157.718 193.541 157.409C194.494 157.079 195.368 156.551 196.103 155.859C196.839 155.168 197.42 154.329 197.808 153.398C198.589 151.538 198.842 149.499 198.54 147.505C198.283 145.53 197.261 143.735 195.693 142.506C194.911 141.922 194.012 141.515 193.058 141.313C192.577 141.205 192.086 141.147 191.594 141.137C191.113 141.139 190.635 141.193 190.166 141.298C188.294 141.819 186.584 142.807 185.196 144.167C184.42 144.829 183.447 145.215 182.429 145.265C181.427 145.307 180.432 145.082 179.545 144.614C178.657 144.158 177.922 143.454 177.429 142.586C177.191 142.148 177.04 141.669 176.983 141.174C176.935 140.687 176.935 140.196 176.983 139.71C177.107 137.828 177.239 135.954 177.364 134.102C177.852 126.69 178.34 119.548 178.828 112.677L178.981 112.852L110.686 108.182L110.796 108.087C110.239 117.31 109.807 124.55 109.507 129.498C109.353 131.958 109.236 133.846 109.156 135.127C109.112 135.764 109.083 136.24 109.061 136.591C109.039 136.943 109.068 137.067 109.068 137.067Z" fill="#263238"/>
<path d="M101.016 168.777C101.016 168.777 103.395 166.94 105.159 166.867C106.923 166.794 109.222 167.474 109.675 167.247C110.129 167.02 111.213 166.01 111.871 166.859C112.53 167.709 113.401 170.776 109.727 171.617H107.194C107.194 171.617 107.501 174.143 108.116 175.138C108.731 176.134 117.31 186.946 117.31 186.946C117.31 186.946 118.386 188.014 117.852 189.09C117.318 190.166 115.012 189.551 115.012 189.551C115.012 189.551 113.401 191.015 111.564 190.283C110.653 189.973 109.779 189.563 108.958 189.061C108.364 189.515 107.638 189.761 106.89 189.761C106.143 189.761 105.416 189.515 104.822 189.061C102.678 187.451 95.5186 178.484 95.5186 178.484L98.0732 168.448L101.016 168.777Z" fill="#FF9A6C"/>
<path d="M93.6008 162.848L101.045 168.777L95.5772 178.513L84.6704 174.553C84.6704 174.553 84.9852 163.06 93.6008 162.848Z" fill="#FF9A6C"/>
<path d="M177.678 122.903C177.678 122.903 178.059 120.304 183.534 121.19C186.967 121.739 185.174 123.964 185.174 123.964C185.43 124.186 185.629 124.466 185.753 124.782C185.877 125.097 185.923 125.438 185.886 125.775C185.85 126.112 185.732 126.435 185.542 126.716C185.353 126.998 185.099 127.229 184.801 127.39L185.159 127.653C185.159 127.653 187.89 129.022 185.533 131.453C185.771 131.888 185.869 132.386 185.812 132.879C185.756 133.372 185.548 133.835 185.218 134.205C184.039 135.376 181.097 133.81 181.097 133.81C181.097 133.81 176.939 133.744 176.705 132.646C176.628 132.311 176.669 131.96 176.819 131.651C176.97 131.342 177.221 131.094 177.532 130.947C178.499 130.764 179.477 130.646 180.46 130.596C180.46 130.596 176.8 130.552 176.492 129.864C175.907 128.59 176.06 127.295 180.46 127.456C180.46 127.456 177.188 127.39 176.8 126.724C176.412 126.058 176.888 124.982 178.059 124.433C178.756 124.104 179.521 123.946 180.291 123.972C180.291 123.972 177.21 124.55 177.678 122.903Z" fill="#FF9A6C"/>
</svg>
